<?xml version="1.0" encoding="utf-8"?>
<!-- Generator: Adobe Illustrator 16.0.0, SVG Export Plug-In . SVG Version: 6.00 Build 0)  -->
<!DOCTYPE svg PUBLIC "-//W3C//DTD SVG 1.1//EN" "http://www.w3.org/Graphics/SVG/1.1/DTD/svg11.dtd">
<svg version="1.1" id="图层_3" xmlns="http://www.w3.org/2000/svg" xmlns:xlink="http://www.w3.org/1999/xlink" x="0px" y="0px"
	 width="595.281px" height="227px" viewBox="0 307.445 595.281 227" enable-background="new 0 307.445 595.281 227"
	 xml:space="preserve">
<g>
	<g>
		<g>
			<g>
				<defs>
					<polygon id="SVGID_1_" points="362.558,401.57 232.723,401.57 254.77,295.119 340.509,295.119 					"/>
				</defs>
				<clipPath id="SVGID_2_">
					<use xlink:href="#SVGID_1_"  overflow="visible"/>
				</clipPath>
				<g clip-path="url(#SVGID_2_)">
					<polygon opacity="0.6" fill="#EE9B4A" enable-background="new    " points="506.201,392.662 87.744,392.662 150.323,309.817 
						443.843,309.817 					"/>
					<rect x="87.744" y="392.662" fill="#64677B" width="418.457" height="9.131"/>
				</g>
			</g>
		</g>
		<g>
			<g>
				<defs>
					<polygon id="SVGID_3_" points="223.592,401.57 93.535,401.57 67.924,295.119 249.203,295.119 					"/>
				</defs>
				<clipPath id="SVGID_4_">
					<use xlink:href="#SVGID_3_"  overflow="visible"/>
				</clipPath>
				<g clip-path="url(#SVGID_4_)">
					<polygon opacity="0.6" fill="#EE9B4A" enable-background="new    " points="511.99,392.662 93.535,392.662 156.113,309.817 
						449.412,309.817 					"/>
					<rect x="93.535" y="392.662" fill="#EE9B4A" width="418.455" height="9.131"/>
				</g>
			</g>
		</g>
		<g>
			<g>
				<defs>
					<polygon id="SVGID_5_" points="501.3,401.57 371.244,401.57 345.632,295.119 526.912,295.119 					"/>
				</defs>
				<clipPath id="SVGID_6_">
					<use xlink:href="#SVGID_5_"  overflow="visible"/>
				</clipPath>
				<g clip-path="url(#SVGID_6_)">
					<polygon opacity="0.6" fill="#EE9B4A" enable-background="new    " points="501.968,392.662 83.513,392.662 146.092,309.817 
						439.613,309.817 					"/>
					<rect x="83.513" y="392.662" fill="#EE9B4A" width="418.455" height="9.131"/>
				</g>
			</g>
		</g>
	</g>
	<g>
		<g>
			<g>
				<defs>
					<polygon id="SVGID_7_" points="391.732,532.518 204.217,532.518 236.063,378.632 359.884,378.632 					"/>
				</defs>
				<clipPath id="SVGID_8_">
					<use xlink:href="#SVGID_7_"  overflow="visible"/>
				</clipPath>
				<g clip-path="url(#SVGID_8_)">
					<polygon opacity="0.6" fill="#32CCCC" enable-background="new    " points="599.511,519.38 -5.122,519.38 85.072,399.789 
						509.095,399.789 					"/>
					<rect x="-5.122" y="519.38" fill="#32CCCC" width="604.633" height="13.139"/>
				</g>
			</g>
		</g>
		<g>
			<g>
				<defs>
					<polygon id="SVGID_9_" points="190.855,532.518 3.118,532.518 -34.073,378.632 228.046,378.632 					"/>
				</defs>
				<clipPath id="SVGID_10_">
					<use xlink:href="#SVGID_9_"  overflow="visible"/>
				</clipPath>
				<g clip-path="url(#SVGID_10_)">
					<polygon opacity="0.6" fill="#32CCCC" enable-background="new    " points="607.751,519.38 3.118,519.38 93.312,399.789 
						517.335,399.789 					"/>
					<rect x="3.118" y="519.38" fill="#32CCCC" width="604.634" height="13.139"/>
				</g>
			</g>
		</g>
		<g>
			<g>
				<defs>
					<polygon id="SVGID_11_" points="592.162,532.518 404.425,532.518 367.234,378.632 629.353,378.632 					"/>
				</defs>
				<clipPath id="SVGID_12_">
					<use xlink:href="#SVGID_11_"  overflow="visible"/>
				</clipPath>
				<g clip-path="url(#SVGID_12_)">
					<polygon opacity="0.6" fill="#32CCCC" enable-background="new    " points="593.277,519.38 -11.358,519.38 79.059,399.789 
						502.859,399.789 					"/>
					<rect x="-11.358" y="519.38" fill="#32CCCC" width="604.635" height="13.139"/>
				</g>
			</g>
		</g>
	</g>
	<g>
		<rect x="73.714" y="386.204" fill="#FFFFFF" width="448.52" height="27.393"/>
		<rect x="73.714" y="386.204" opacity="0.9" fill="#64677B" enable-background="new    " width="448.52" height="27.393"/>
	</g>
</g>
<g display="none">
	<g display="inline">
		<g>
			<g>
				<defs>
					<polygon id="SVGID_13_" points="215.129,941.844 143.197,941.844 155.445,816.24 202.881,816.24 					"/>
				</defs>
				<clipPath id="SVGID_14_">
					<use xlink:href="#SVGID_13_"  overflow="visible"/>
				</clipPath>
				<g clip-path="url(#SVGID_14_)">
					<polygon opacity="0.6" fill="#EE9B4A" enable-background="new    " points="294.634,931.154 63.247,931.154 97.766,833.388 
						259.892,833.388 					"/>
					<rect x="63.247" y="931.154" fill="#64677B" width="231.387" height="10.689"/>
				</g>
			</g>
		</g>
		<g>
			<g>
				<defs>
					<polygon id="SVGID_15_" points="138.297,941.844 66.365,941.844 52.112,816.24 152.328,816.24 					"/>
				</defs>
				<clipPath id="SVGID_16_">
					<use xlink:href="#SVGID_15_"  overflow="visible"/>
				</clipPath>
				<g clip-path="url(#SVGID_16_)">
					<polygon opacity="0.6" fill="#EE9B4A" enable-background="new    " points="297.751,931.154 66.365,931.154 100.884,833.388 
						263.233,833.388 					"/>
					<rect x="66.365" y="931.154" fill="#EE9B4A" width="231.387" height="10.689"/>
				</g>
			</g>
		</g>
		<g>
			<g>
				<defs>
					<polygon id="SVGID_17_" points="291.739,941.844 219.806,941.844 205.776,816.24 305.992,816.24 					"/>
				</defs>
				<clipPath id="SVGID_18_">
					<use xlink:href="#SVGID_17_"  overflow="visible"/>
				</clipPath>
				<g clip-path="url(#SVGID_18_)">
					<polygon opacity="0.6" fill="#EE9B4A" enable-background="new    " points="292.184,931.154 60.797,931.154 95.316,833.388 
						257.665,833.388 					"/>
					<rect x="60.797" y="931.154" fill="#EE9B4A" width="231.387" height="10.689"/>
				</g>
			</g>
		</g>
	</g>
	<g display="inline">
		<g>
			<polygon fill="#FFFFFF" points="341.179,1080.14 17.371,1080.14 65.697,931.154 292.629,931.154 			"/>
			<rect x="17.371" y="1080.14" fill="#FFFFFF" width="323.809" height="16.258"/>
		</g>
		<g>
			<g>
				<defs>
					<polygon id="SVGID_19_" points="231.164,1096.398 127.608,1096.398 145.201,914.896 213.57,914.896 					"/>
				</defs>
				<clipPath id="SVGID_20_">
					<use xlink:href="#SVGID_19_"  overflow="visible"/>
				</clipPath>
				<g clip-path="url(#SVGID_20_)">
					<polygon opacity="0.6" fill="#32CCCC" enable-background="new    " points="346.078,1081.032 11.803,1081.032 61.688,939.616 
						296.192,939.616 					"/>
					<rect x="11.803" y="1081.032" fill="#32CCCC" width="334.274" height="15.366"/>
				</g>
			</g>
		</g>
		<g>
			<g>
				<defs>
					<polygon id="SVGID_21_" points="120.259,1096.398 16.257,1096.398 -4.231,914.896 140.747,914.896 					"/>
				</defs>
				<clipPath id="SVGID_22_">
					<use xlink:href="#SVGID_21_"  overflow="visible"/>
				</clipPath>
				<g clip-path="url(#SVGID_22_)">
					<polygon opacity="0.6" fill="#32CCCC" enable-background="new    " points="350.531,1081.032 16.257,1081.032 66.365,939.616 
						300.646,939.616 					"/>
					<rect x="16.257" y="1081.032" fill="#32CCCC" width="334.273" height="15.366"/>
				</g>
			</g>
		</g>
		<g>
			<g>
				<defs>
					<polygon id="SVGID_23_" points="342.07,1096.398 238.29,1096.398 217.579,914.896 362.558,914.896 					"/>
				</defs>
				<clipPath id="SVGID_24_">
					<use xlink:href="#SVGID_23_"  overflow="visible"/>
				</clipPath>
				<g clip-path="url(#SVGID_24_)">
					<polygon opacity="0.6" fill="#32CCCC" enable-background="new    " points="342.738,1081.032 8.462,1081.032 58.348,939.616 
						292.629,939.616 					"/>
					<rect x="8.462" y="1081.032" fill="#32CCCC" width="334.275" height="15.366"/>
				</g>
			</g>
		</g>
	</g>
	<g display="inline">
		<rect x="55.453" y="931.377" fill="#FFFFFF" width="247.867" height="20.934"/>
		<rect x="55.453" y="931.377" opacity="0.9" fill="#64677B" enable-background="new    " width="247.867" height="20.934"/>
	</g>
	
		<line display="inline" fill="none" stroke="#FFFFFF" stroke-width="1.0409" stroke-miterlimit="10" x1="47.881" y1="989.279" x2="310.222" y2="989.279"/>
	
		<line display="inline" fill="none" stroke="#FFFFFF" stroke-width="1.0409" stroke-miterlimit="10" x1="30.733" y1="1038.719" x2="327.371" y2="1038.719"/>
	
		<line display="inline" fill="none" stroke="#FFFFFF" stroke-width="0.865" stroke-miterlimit="10" x1="90.639" y1="861.671" x2="271.918" y2="861.671"/>
	
		<line display="inline" fill="none" stroke="#FFFFFF" stroke-width="0.865" stroke-miterlimit="10" x1="76.609" y1="894.631" x2="281.271" y2="894.631"/>
</g>
<g display="none">
	<g display="inline">
		<g>
			<g>
				<defs>
					<polygon id="SVGID_25_" points="362.558,401.57 232.723,401.57 254.77,295.119 340.509,295.119 					"/>
				</defs>
				<clipPath id="SVGID_26_">
					<use xlink:href="#SVGID_25_"  overflow="visible"/>
				</clipPath>
				<g clip-path="url(#SVGID_26_)">
					<polygon opacity="0.6" fill="#32CCCC" enable-background="new    " points="506.201,392.439 87.744,392.439 150.323,309.594 
						443.843,309.594 					"/>
					<rect x="87.744" y="392.439" fill="#64677B" width="418.457" height="9.131"/>
				</g>
			</g>
		</g>
		<g>
			<g>
				<defs>
					<polygon id="SVGID_27_" points="223.592,401.57 93.535,401.57 67.924,295.119 249.203,295.119 					"/>
				</defs>
				<clipPath id="SVGID_28_">
					<use xlink:href="#SVGID_27_"  overflow="visible"/>
				</clipPath>
				<g clip-path="url(#SVGID_28_)">
					<polygon opacity="0.6" fill="#32CCCC" enable-background="new    " points="511.99,392.439 93.535,392.439 156.113,309.594 
						449.412,309.594 					"/>
					<rect x="93.535" y="392.439" fill="#32CCCC" width="418.455" height="9.131"/>
				</g>
			</g>
		</g>
		<g>
			<g>
				<defs>
					<polygon id="SVGID_29_" points="501.3,401.57 371.244,401.57 345.632,295.119 526.912,295.119 					"/>
				</defs>
				<clipPath id="SVGID_30_">
					<use xlink:href="#SVGID_29_"  overflow="visible"/>
				</clipPath>
				<g clip-path="url(#SVGID_30_)">
					<polygon opacity="0.6" fill="#32CCCC" enable-background="new    " points="501.968,392.439 83.513,392.439 146.092,309.594 
						439.613,309.594 					"/>
					<rect x="83.513" y="392.439" fill="#32CCCC" width="418.455" height="9.131"/>
				</g>
			</g>
		</g>
	</g>
	<g display="inline">
		<g>
			<g>
				<defs>
					<polygon id="SVGID_31_" points="391.732,532.296 204.217,532.296 236.063,378.632 359.884,378.632 					"/>
				</defs>
				<clipPath id="SVGID_32_">
					<use xlink:href="#SVGID_31_"  overflow="visible"/>
				</clipPath>
				<g clip-path="url(#SVGID_32_)">
					<polygon opacity="0.6" fill="#EE9B4A" enable-background="new    " points="599.511,519.38 -5.122,519.38 85.072,399.566 
						509.095,399.566 					"/>
					<rect x="-5.122" y="519.38" fill="#EE9B4A" width="604.633" height="13.139"/>
				</g>
			</g>
		</g>
		<g>
			<g>
				<defs>
					<polygon id="SVGID_33_" points="190.855,532.296 3.118,532.296 -34.073,378.632 228.046,378.632 					"/>
				</defs>
				<clipPath id="SVGID_34_">
					<use xlink:href="#SVGID_33_"  overflow="visible"/>
				</clipPath>
				<g clip-path="url(#SVGID_34_)">
					<polygon opacity="0.6" fill="#EE9B4A" enable-background="new    " points="607.751,519.38 3.118,519.38 93.312,399.566 
						517.335,399.566 					"/>
					<rect x="3.118" y="519.38" fill="#EE9B4A" width="604.634" height="13.139"/>
				</g>
			</g>
		</g>
		<g>
			<g>
				<defs>
					<polygon id="SVGID_35_" points="592.162,532.296 404.425,532.296 367.234,378.632 629.353,378.632 					"/>
				</defs>
				<clipPath id="SVGID_36_">
					<use xlink:href="#SVGID_35_"  overflow="visible"/>
				</clipPath>
				<g clip-path="url(#SVGID_36_)">
					<polygon opacity="0.6" fill="#EE9B4A" enable-background="new    " points="593.277,519.38 -11.358,519.38 79.059,399.566 
						502.859,399.566 					"/>
					<rect x="-11.358" y="519.38" fill="#EE9B4A" width="604.635" height="13.139"/>
				</g>
			</g>
		</g>
	</g>
	<g display="inline">
		<rect x="73.714" y="385.981" fill="#FFFFFF" width="448.52" height="27.392"/>
		<rect x="73.714" y="385.981" opacity="0.9" fill="#64677B" enable-background="new    " width="448.52" height="27.392"/>
	</g>
</g>
<g display="none">
	<g display="inline">
		<g>
			<g>
				<defs>
					<polygon id="SVGID_37_" points="580.582,941.844 508.873,941.844 521.121,816.24 568.333,816.24 					"/>
				</defs>
				<clipPath id="SVGID_38_">
					<use xlink:href="#SVGID_37_"  overflow="visible"/>
				</clipPath>
				<g clip-path="url(#SVGID_38_)">
					<polygon opacity="0.6" fill="#32CCCC" enable-background="new    " points="660.085,931.154 428.701,931.154 463.441,833.388 
						625.568,833.388 					"/>
					<rect x="428.701" y="931.154" fill="#64677B" width="231.385" height="10.689"/>
				</g>
			</g>
		</g>
		<g>
			<g>
				<defs>
					<polygon id="SVGID_39_" points="503.75,941.844 431.818,941.844 417.787,816.24 518.003,816.24 					"/>
				</defs>
				<clipPath id="SVGID_40_">
					<use xlink:href="#SVGID_39_"  overflow="visible"/>
				</clipPath>
				<g clip-path="url(#SVGID_40_)">
					<polygon opacity="0.6" fill="#32CCCC" enable-background="new    " points="663.205,931.154 431.818,931.154 466.558,833.388 
						628.685,833.388 					"/>
					<rect x="431.818" y="931.154" fill="#32CCCC" width="231.387" height="10.689"/>
				</g>
			</g>
		</g>
		<g>
			<g>
				<defs>
					<polygon id="SVGID_41_" points="657.414,941.844 585.482,941.844 571.228,816.24 671.445,816.24 					"/>
				</defs>
				<clipPath id="SVGID_42_">
					<use xlink:href="#SVGID_41_"  overflow="visible"/>
				</clipPath>
				<g clip-path="url(#SVGID_42_)">
					<polygon opacity="0.6" fill="#32CCCC" enable-background="new    " points="657.859,931.154 426.472,931.154 460.992,833.388 
						623.119,833.388 					"/>
					<rect x="426.472" y="931.154" fill="#32CCCC" width="231.387" height="10.689"/>
				</g>
			</g>
		</g>
	</g>
	<g display="inline">
		<g>
			<polygon fill="#FFFFFF" points="706.63,1080.14 382.824,1080.14 431.15,931.154 658.304,931.154 			"/>
			<rect x="382.824" y="1080.14" fill="#FFFFFF" width="323.807" height="16.258"/>
		</g>
		<g>
			<g>
				<defs>
					<polygon id="SVGID_43_" points="596.839,1096.398 493.06,1096.398 510.654,914.896 579.246,914.896 					"/>
				</defs>
				<clipPath id="SVGID_44_">
					<use xlink:href="#SVGID_43_"  overflow="visible"/>
				</clipPath>
				<g clip-path="url(#SVGID_44_)">
					<polygon opacity="0.6" fill="#EE9B4A" enable-background="new    " points="711.531,1081.032 377.255,1081.032 
						427.363,939.616 661.646,939.616 					"/>
					<rect x="377.255" y="1081.032" fill="#EE9B4A" width="334.275" height="15.366"/>
				</g>
			</g>
		</g>
		<g>
			<g>
				<defs>
					<polygon id="SVGID_45_" points="485.71,1096.398 381.933,1096.398 361.445,914.896 506.201,914.896 					"/>
				</defs>
				<clipPath id="SVGID_46_">
					<use xlink:href="#SVGID_45_"  overflow="visible"/>
				</clipPath>
				<g clip-path="url(#SVGID_46_)">
					<polygon opacity="0.6" fill="#EE9B4A" enable-background="new    " points="716.207,1081.032 381.933,1081.032 
						431.818,939.616 666.322,939.616 					"/>
					<rect x="381.933" y="1081.032" fill="#EE9B4A" width="334.273" height="15.366"/>
				</g>
			</g>
		</g>
		<g>
			<g>
				<defs>
					<polygon id="SVGID_47_" points="707.521,1096.398 603.744,1096.398 583.255,914.896 728.234,914.896 					"/>
				</defs>
				<clipPath id="SVGID_48_">
					<use xlink:href="#SVGID_47_"  overflow="visible"/>
				</clipPath>
				<g clip-path="url(#SVGID_48_)">
					<polygon opacity="0.6" fill="#EE9B4A" enable-background="new    " points="708.189,1081.032 373.916,1081.032 423.8,939.616 
						658.304,939.616 					"/>
					<rect x="373.916" y="1081.032" fill="#EE9B4A" width="334.273" height="15.366"/>
				</g>
			</g>
		</g>
	</g>
	<g display="inline">
		<rect x="420.906" y="931.377" fill="#FFFFFF" width="247.865" height="20.934"/>
		<rect x="420.906" y="931.377" opacity="0.9" fill="#64677B" enable-background="new    " width="247.865" height="20.934"/>
	</g>
	
		<line display="inline" fill="none" stroke="#FFFFFF" stroke-width="1.0409" stroke-miterlimit="10" x1="413.333" y1="989.279" x2="675.675" y2="989.279"/>
	
		<line display="inline" fill="none" stroke="#FFFFFF" stroke-width="1.0409" stroke-miterlimit="10" x1="396.408" y1="1038.719" x2="692.824" y2="1038.719"/>
	
		<line display="inline" fill="none" stroke="#FFFFFF" stroke-width="0.865" stroke-miterlimit="10" x1="456.091" y1="861.671" x2="637.371" y2="861.671"/>
	
		<line display="inline" fill="none" stroke="#FFFFFF" stroke-width="0.865" stroke-miterlimit="10" x1="442.062" y1="894.631" x2="646.947" y2="894.631"/>
</g>
<g display="none">
	
		<circle display="inline" fill="#FFFFFF" stroke="#FFFFFF" stroke-width="3" stroke-miterlimit="10" cx="747.384" cy="532.296" r="164.799"/>
	
		<circle display="inline" opacity="0.1" fill="#FFFFFF" stroke="#64677B" stroke-width="3" stroke-miterlimit="10" enable-background="new    " cx="747.609" cy="532.296" r="164.799"/>
	<g display="inline">
		
			<circle opacity="0.3" fill="none" stroke="#64677B" stroke-width="12.3707" stroke-miterlimit="10" enable-background="new    " cx="747.162" cy="530.737" r="85.518"/>
		
			<circle opacity="0.3" fill="none" stroke="#64677B" stroke-width="11.1336" stroke-miterlimit="10" enable-background="new    " cx="747.384" cy="531.628" r="53.894"/>
		
			<circle opacity="0.3" fill="#64677B" stroke="#64677B" stroke-width="0.4917" stroke-miterlimit="10" enable-background="new    " cx="747.384" cy="531.628" r="34.073"/>
		<rect x="766.314" y="519.157" fill="none" width="19.375" height="24.72"/>
		<text transform="matrix(1 0 0 1 766.2144 538.1541)" font-family="'ArialMT'" font-size="22.0398">L</text>
		<rect x="792.593" y="518.488" fill="none" width="19.375" height="24.721"/>
		<text transform="matrix(1 0 0 1 792.5503 537.3962)" font-family="'ArialMT'" font-size="22.0398">M</text>
		<rect x="826.89" y="519.157" fill="none" width="19.375" height="24.72"/>
		<text transform="matrix(1 0 0 1 826.9819 538.1541)" font-family="'ArialMT'" font-size="22.0398">S</text>
		<path fill="#FFFFFF" stroke="#FFFFFF" stroke-width="6" stroke-miterlimit="10" d="M733.132,531.182l-75.051,43.872
			c-7.795-13.362-11.803-28.283-11.803-43.872c0-15.144,4.008-30.287,11.58-43.427L733.132,531.182z"/>
	</g>
	<g display="inline">
		<g>
			<path fill="#32CCCC" d="M685.697,566.592l24.498-14.253l0,0l37.189-21.379l0,0l-87.744,50.553
				c8.686,14.922,21.158,27.838,36.969,36.969l15.145-26.056C700.619,586.189,691.71,577.059,685.697,566.592z"/>
			<path fill="#32CCCC" d="M711.753,592.648L711.753,592.648L711.753,592.648l-15.145,26.056l0,0
				c16.035,9.131,33.406,13.585,50.553,13.585v-30.064C735.359,602.224,723.111,599.106,711.753,592.648z"/>
			<path fill="#32CCCC" d="M747.384,602.224L747.384,602.224v30.064c17.816,0,35.188-4.677,50.555-13.585l-14.922-26.056
				C772.105,598.884,759.857,602.224,747.384,602.224z"/>
			<path fill="#32CCCC" d="M783.017,592.648L783.017,592.648l14.922,26.056c14.92-8.686,27.838-21.156,36.969-36.968l-26.057-14.922
				C802.615,577.95,793.484,586.635,783.017,592.648z"/>
			<path fill="#32CCCC" d="M712.644,551.003l-22.938,13.14c5.566,9.799,13.807,18.262,24.273,24.274l13.139-22.938
				C721.107,562.137,715.984,557.015,712.644,551.003z"/>
			<path fill="#32CCCC" d="M727.341,565.701l-13.139,22.938l0,0c10.467,6.013,22.047,8.908,33.182,8.908v-26.502
				C740.482,571.046,733.578,569.264,727.341,565.701z"/>
			<path fill="#32CCCC" d="M747.384,571.046v26.502c11.582,0,23.162-3.118,33.184-8.908l-13.139-22.938
				C761.416,569.264,754.289,571.046,747.384,571.046z"/>
			<path fill="#32CCCC" d="M767.429,565.701l13.139,22.938c9.799-5.567,18.262-13.808,24.273-24.274l-22.938-13.14
				C778.341,557.461,773.218,562.361,767.429,565.701z"/>
			<path fill="#32CCCC" d="M747.384,566.146c6.236,0,12.25-1.559,17.594-4.677l-17.594-30.51V566.146z"/>
			<path fill="#32CCCC" d="M764.978,561.469c5.123-2.895,9.799-7.349,12.918-12.916l-30.512-17.594L764.978,561.469z"/>
			<path fill="#32CCCC" d="M729.57,561.469l17.592-30.51l-30.51,17.594C719.771,553.676,724.001,558.13,729.57,561.469z"/>
			<path fill="#32CCCC" d="M729.792,561.469c5.566,3.118,11.58,4.677,17.592,4.677V530.96L729.792,561.469z"/>
			
				<line fill="none" stroke="#FFFFFF" stroke-width="1.2945" stroke-miterlimit="10" x1="797.939" y1="618.704" x2="747.384" y2="530.96"/>
			
				<line fill="none" stroke="#FFFFFF" stroke-width="1.2945" stroke-miterlimit="10" x1="747.384" y1="632.289" x2="747.384" y2="530.96"/>
			
				<line fill="none" stroke="#FFFFFF" stroke-width="1.2945" stroke-miterlimit="10" x1="696.832" y1="618.704" x2="747.384" y2="530.96"/>
		</g>
		<g>
			<path fill="#EE9B4A" d="M809.074,495.773l-24.498,14.253l0,0l-37.191,21.379l0,0l87.746-50.553
				c-8.686-14.921-21.158-27.838-36.969-36.969l-15.145,26.056C794.152,476.176,803.06,485.306,809.074,495.773z"/>
			<path fill="#EE9B4A" d="M783.017,469.717L783.017,469.717L783.017,469.717l15.145-26.056l0,0
				c-16.035-9.131-33.406-13.585-50.555-13.585v30.064C759.412,460.14,771.66,463.259,783.017,469.717z"/>
			<path fill="#EE9B4A" d="M747.384,460.14L747.384,460.14v-30.064c-17.814,0-35.186,4.677-50.553,13.585l14.922,26.056
				C722.443,463.481,734.914,460.14,747.384,460.14z"/>
			<path fill="#EE9B4A" d="M711.753,469.717L711.753,469.717l-14.922-26.056c-14.92,8.686-27.838,21.156-36.969,36.969
				l26.057,14.921C692.156,484.637,701.287,475.73,711.753,469.717z"/>
			<path fill="#EE9B4A" d="M782.126,511.362l22.938-13.14c-5.566-9.799-13.807-18.262-24.273-24.274l-13.361,22.716
				C773.664,500.45,778.564,505.349,782.126,511.362z"/>
			<path fill="#EE9B4A" d="M767.429,496.664l13.139-22.938l0,0c-10.467-6.013-22.047-8.908-33.184-8.908v26.502
				C754.066,491.319,760.97,493.1,767.429,496.664z"/>
			<path fill="#EE9B4A" d="M747.384,491.319v-26.502c-11.58,0-23.16,3.118-33.182,8.908l13.139,22.938
				C733.355,493.1,740.259,491.319,747.384,491.319z"/>
			<path fill="#EE9B4A" d="M727.341,496.664l-13.139-22.938c-9.799,5.567-18.262,13.808-24.273,24.274l22.938,13.14
				C716.207,505.127,721.33,500.005,727.341,496.664z"/>
			<path fill="#EE9B4A" d="M747.384,496.219c-6.234,0-12.248,1.559-17.592,4.677l17.592,30.51V496.219z"/>
			<path fill="#EE9B4A" d="M729.792,500.895c-5.123,2.895-9.799,7.349-12.918,12.916l30.512,17.594L729.792,500.895z"/>
			<path fill="#EE9B4A" d="M764.978,500.895l-17.594,30.51l30.512-17.594C775,508.689,770.546,504.235,764.978,500.895z"/>
			<path fill="#EE9B4A" d="M764.978,500.895c-5.566-3.118-11.58-4.677-17.594-4.677v35.409L764.978,500.895z"/>
			
				<line fill="none" stroke="#FFFFFF" stroke-width="1.2945" stroke-miterlimit="10" x1="696.609" y1="443.661" x2="747.384" y2="531.405"/>
			
				<line fill="none" stroke="#FFFFFF" stroke-width="1.2945" stroke-miterlimit="10" x1="747.384" y1="430.076" x2="747.384" y2="531.405"/>
			
				<line fill="none" stroke="#FFFFFF" stroke-width="1.2945" stroke-miterlimit="10" x1="797.939" y1="443.661" x2="747.384" y2="531.405"/>
		</g>
	</g>
	<g display="inline">
		<g>
			<path fill="#FFFFFF" stroke="#64677B" stroke-width="0.7702" stroke-miterlimit="10" d="M842.255,479.07l40.979-23.606
				c-13.809-23.606-33.629-43.427-57.68-57.012l-23.607,40.755C819.541,449.006,832.902,463.036,842.255,479.07z"/>
			<path fill="#FFFFFF" stroke="#64677B" stroke-width="0.7702" stroke-miterlimit="10" d="M802.169,438.984l23.607-40.755
				c-22.939-13.139-49.664-20.711-78.168-20.711v46.768C766.091,424.286,784.798,428.963,802.169,438.984z"/>
			<path fill="#FFFFFF" stroke="#64677B" stroke-width="0.7702" stroke-miterlimit="10" d="M747.384,424.286v-46.545
				c-28.504,0-55.229,7.572-78.168,20.711l23.385,40.532C709.304,429.408,728.234,424.286,747.384,424.286z"/>
			<path fill="#FFFFFF" stroke="#64677B" stroke-width="0.7702" stroke-miterlimit="10" d="M692.601,438.984l-23.607-40.755
				c-24.051,13.585-43.871,33.405-57.68,57.012l41.201,23.829C662.537,461.923,676.566,448.338,692.601,438.984z"/>
			
				<image overflow="visible" enable-background="new    " width="160" height="160" xlink:href="F6758658.png"  transform="matrix(0.277 0 0 0.277 820.5601 420.4255)">
			</image>
			
				<image overflow="visible" enable-background="new    " width="160" height="160" xlink:href="F6758659.png"  transform="matrix(0.277 0 0 0.277 694.5913 386.197)">
			</image>
			
				<image overflow="visible" enable-background="new    " width="160" height="160" xlink:href="F675865F.png"  transform="matrix(0.277 0 0 0.277 760.8198 386.199)">
			</image>
			
				<image overflow="visible" enable-background="new    " width="160" height="160" xlink:href="F675865A.png"  transform="matrix(0.277 0 0 0.277 627.519 416.8552)">
			</image>
		</g>
		<g>
			<path fill="#FFFFFF" stroke="#64677B" stroke-width="0.7702" stroke-miterlimit="10" d="M652.515,585.076l-40.979,23.606
				c13.809,23.606,33.629,43.427,57.68,57.012l23.607-40.755C675.453,615.14,661.869,601.11,652.515,585.076z"/>
			<path fill="#FFFFFF" stroke="#64677B" stroke-width="0.7702" stroke-miterlimit="10" d="M692.601,625.162l-23.607,40.755
				c22.939,13.14,49.662,20.711,78.168,20.711v-46.767C728.902,639.637,709.972,634.961,692.601,625.162z"/>
			<path fill="#FFFFFF" stroke="#64677B" stroke-width="0.7702" stroke-miterlimit="10" d="M747.384,639.637v46.545
				c28.506,0,55.23-7.571,78.17-20.711l-23.607-40.755C785.466,634.738,766.537,639.637,747.384,639.637z"/>
			<path fill="#FFFFFF" stroke="#64677B" stroke-width="0.7702" stroke-miterlimit="10" d="M802.169,625.162l23.607,40.755
				c24.051-13.585,43.871-33.405,57.68-57.012l-40.979-23.606C832.234,602.224,818.205,615.809,802.169,625.162z"/>
			
				<image overflow="visible" enable-background="new    " width="160" height="160" xlink:href="F675865B.png"  transform="matrix(0.277 0 0 0.277 629.9155 598.5408)">
			</image>
			
				<image overflow="visible" enable-background="new    " width="160" height="160" xlink:href="F6758656.png"  transform="matrix(0.277 0 0 0.277 753.6831 637.2732)">
			</image>
			
				<image overflow="visible" enable-background="new    " width="160" height="160" xlink:href="F6758657.png"  transform="matrix(0.277 0 0 0.277 696.7202 640.071)">
			</image>
			
				<image overflow="visible" enable-background="new    " width="160" height="160" xlink:href="F6758668.png"  transform="matrix(0.277 0 0 0.277 814.9761 598.5408)">
			</image>
		</g>
	</g>
</g>
</svg>
