<?xml version="1.0" encoding="utf-8"?>
<!-- Generator: Adobe Illustrator 16.0.0, SVG Export Plug-In . SVG Version: 6.00 Build 0)  -->
<!DOCTYPE svg PUBLIC "-//W3C//DTD SVG 1.1//EN" "http://www.w3.org/Graphics/SVG/1.1/DTD/svg11.dtd">
<svg version="1.1" id="图层_3" xmlns="http://www.w3.org/2000/svg" xmlns:xlink="http://www.w3.org/1999/xlink" x="0px" y="0px"
	 width="595.281px" height="152px" viewBox="0 0 595.281 152" enable-background="new 0 0 595.281 152" xml:space="preserve">
<g>
	<g>
		<g>
			<g>
				<g>
					<defs>
						<line id="SVGID_1_" x1="362.559" y1="17.805" x2="232.724" y2="17.805"/>
					</defs>
					<clipPath id="SVGID_2_">
						<use xlink:href="#SVGID_1_"  overflow="visible"/>
					</clipPath>
					<g clip-path="url(#SVGID_2_)">
						<line opacity="0.6" fill="#EE9B4A" enable-background="new    " x1="506.202" y1="8.896" x2="87.745" y2="8.896"/>
						<rect x="87.745" y="8.896" fill="#64677B" width="418.457" height="9.131"/>
					</g>
				</g>
			</g>
		</g>
		<g>
			<g>
				<g>
					<defs>
						<line id="SVGID_3_" x1="223.593" y1="17.805" x2="93.536" y2="17.805"/>
					</defs>
					<clipPath id="SVGID_4_">
						<use xlink:href="#SVGID_3_"  overflow="visible"/>
					</clipPath>
					<g clip-path="url(#SVGID_4_)">
						<line opacity="0.6" fill="#EE9B4A" enable-background="new    " x1="511.991" y1="8.896" x2="93.536" y2="8.896"/>
						<rect x="93.536" y="8.896" fill="#EE9B4A" width="418.455" height="9.131"/>
					</g>
				</g>
			</g>
		</g>
		<g>
			<g>
				<g>
					<defs>
						<line id="SVGID_5_" x1="501.301" y1="17.805" x2="371.245" y2="17.805"/>
					</defs>
					<clipPath id="SVGID_6_">
						<use xlink:href="#SVGID_5_"  overflow="visible"/>
					</clipPath>
					<g clip-path="url(#SVGID_6_)">
						<line opacity="0.6" fill="#EE9B4A" enable-background="new    " x1="501.969" y1="8.896" x2="83.514" y2="8.896"/>
						<rect x="83.514" y="8.896" fill="#EE9B4A" width="418.455" height="9.131"/>
					</g>
				</g>
			</g>
		</g>
	</g>
	<g>
		<g>
			<g>
				<g>
					<defs>
						<polygon id="SVGID_7_" points="391.733,148.752 204.218,148.752 236.064,-5.134 359.885,-5.134 						"/>
					</defs>
					<clipPath id="SVGID_8_">
						<use xlink:href="#SVGID_7_"  overflow="visible"/>
					</clipPath>
					<g clip-path="url(#SVGID_8_)">
						<polygon opacity="0.6" fill="#9E9E9E" enable-background="new    " points="599.512,135.615 -5.121,135.615 85.073,16.023 
							509.096,16.023 						"/>
						<rect x="-5.121" y="135.615" fill="#9E9E9E" width="604.633" height="13.139"/>
					</g>
				</g>
			</g>
		</g>
		<g>
			<g>
				<g>
					<defs>
						<polygon id="SVGID_9_" points="190.856,148.752 3.119,148.752 -34.072,-5.134 228.047,-5.134 						"/>
					</defs>
					<clipPath id="SVGID_10_">
						<use xlink:href="#SVGID_9_"  overflow="visible"/>
					</clipPath>
					<g clip-path="url(#SVGID_10_)">
						<polygon opacity="0.6" fill="#9E9E9E" enable-background="new    " points="607.752,135.615 3.119,135.615 93.313,16.023 
							517.336,16.023 						"/>
						<rect x="3.119" y="135.615" fill="#9E9E9E" width="604.634" height="13.139"/>
					</g>
				</g>
			</g>
		</g>
		<g>
			<g>
				<g>
					<defs>
						<polygon id="SVGID_11_" points="592.163,148.752 404.426,148.752 367.235,-5.134 629.354,-5.134 						"/>
					</defs>
					<clipPath id="SVGID_12_">
						<use xlink:href="#SVGID_11_"  overflow="visible"/>
					</clipPath>
					<g clip-path="url(#SVGID_12_)">
						<polygon opacity="0.6" fill="#9E9E9E" enable-background="new    " points="593.278,135.615 -11.357,135.615 79.06,16.023 
							502.86,16.023 						"/>
						<rect x="-11.357" y="135.615" fill="#9E9E9E" width="604.635" height="13.139"/>
					</g>
				</g>
			</g>
		</g>
	</g>
	<g>
		<rect x="73.715" y="2.438" fill="#FFFFFF" width="448.521" height="27.394"/>
		<rect x="73.715" y="2.438" opacity="0.9" fill="#686868" enable-background="new    " width="448.521" height="27.394"/>
	</g>
</g>
<g display="none">
	<g display="inline">
		<g>
			<g>
				<g>
					<defs>
						<polygon id="SVGID_13_" points="215.129,941.844 143.197,941.844 155.445,816.24 202.881,816.24 						"/>
					</defs>
					<clipPath id="SVGID_14_">
						<use xlink:href="#SVGID_13_"  overflow="visible"/>
					</clipPath>
					<g clip-path="url(#SVGID_14_)">
						<polygon opacity="0.6" fill="#EE9B4A" enable-background="new    " points="294.634,931.154 63.247,931.154 97.766,833.389 
							259.892,833.389 						"/>
						<rect x="63.247" y="931.154" fill="#64677B" width="231.387" height="10.689"/>
					</g>
				</g>
			</g>
		</g>
		<g>
			<g>
				<g>
					<defs>
						<polygon id="SVGID_15_" points="138.297,941.844 66.365,941.844 52.112,816.24 152.328,816.24 						"/>
					</defs>
					<clipPath id="SVGID_16_">
						<use xlink:href="#SVGID_15_"  overflow="visible"/>
					</clipPath>
					<g clip-path="url(#SVGID_16_)">
						<polygon opacity="0.6" fill="#EE9B4A" enable-background="new    " points="297.751,931.154 66.365,931.154 100.884,833.389 
							263.233,833.389 						"/>
						<rect x="66.365" y="931.154" fill="#EE9B4A" width="231.387" height="10.689"/>
					</g>
				</g>
			</g>
		</g>
		<g>
			<g>
				<g>
					<defs>
						<polygon id="SVGID_17_" points="291.739,941.844 219.806,941.844 205.776,816.24 305.992,816.24 						"/>
					</defs>
					<clipPath id="SVGID_18_">
						<use xlink:href="#SVGID_17_"  overflow="visible"/>
					</clipPath>
					<g clip-path="url(#SVGID_18_)">
						<polygon opacity="0.6" fill="#EE9B4A" enable-background="new    " points="292.184,931.154 60.797,931.154 95.316,833.389 
							257.665,833.389 						"/>
						<rect x="60.797" y="931.154" fill="#EE9B4A" width="231.387" height="10.689"/>
					</g>
				</g>
			</g>
		</g>
	</g>
	<g display="inline">
		<g>
			<polygon fill="#FFFFFF" points="341.179,1080.141 17.371,1080.141 65.697,931.154 292.629,931.154 			"/>
			<rect x="17.371" y="1080.141" fill="#FFFFFF" width="323.809" height="16.258"/>
		</g>
		<g>
			<g>
				<g>
					<defs>
						<polygon id="SVGID_19_" points="231.164,1096.398 127.608,1096.398 145.201,914.896 213.57,914.896 						"/>
					</defs>
					<clipPath id="SVGID_20_">
						<use xlink:href="#SVGID_19_"  overflow="visible"/>
					</clipPath>
					<g clip-path="url(#SVGID_20_)">
						<polygon opacity="0.6" fill="#32CCCC" enable-background="new    " points="346.078,1081.031 11.803,1081.031 61.688,939.615 
							296.192,939.615 						"/>
						<rect x="11.803" y="1081.031" fill="#32CCCC" width="334.274" height="15.367"/>
					</g>
				</g>
			</g>
		</g>
		<g>
			<g>
				<g>
					<defs>
						<polygon id="SVGID_21_" points="120.259,1096.398 16.257,1096.398 -4.231,914.896 140.747,914.896 						"/>
					</defs>
					<clipPath id="SVGID_22_">
						<use xlink:href="#SVGID_21_"  overflow="visible"/>
					</clipPath>
					<g clip-path="url(#SVGID_22_)">
						<polygon opacity="0.6" fill="#32CCCC" enable-background="new    " points="350.531,1081.031 16.257,1081.031 66.365,939.615 
							300.646,939.615 						"/>
						<rect x="16.257" y="1081.031" fill="#32CCCC" width="334.273" height="15.367"/>
					</g>
				</g>
			</g>
		</g>
		<g>
			<g>
				<g>
					<defs>
						<polygon id="SVGID_23_" points="342.07,1096.398 238.29,1096.398 217.579,914.896 362.558,914.896 						"/>
					</defs>
					<clipPath id="SVGID_24_">
						<use xlink:href="#SVGID_23_"  overflow="visible"/>
					</clipPath>
					<g clip-path="url(#SVGID_24_)">
						<polygon opacity="0.6" fill="#32CCCC" enable-background="new    " points="342.738,1081.031 8.462,1081.031 58.348,939.615 
							292.629,939.615 						"/>
						<rect x="8.462" y="1081.031" fill="#32CCCC" width="334.275" height="15.367"/>
					</g>
				</g>
			</g>
		</g>
	</g>
	<g display="inline">
		<rect x="55.453" y="931.377" fill="#FFFFFF" width="247.867" height="20.934"/>
		<rect x="55.453" y="931.377" opacity="0.9" fill="#64677B" enable-background="new    " width="247.867" height="20.934"/>
	</g>
	
		<line display="inline" fill="none" stroke="#FFFFFF" stroke-width="1.0409" stroke-miterlimit="10" x1="47.881" y1="989.279" x2="310.222" y2="989.279"/>
	
		<line display="inline" fill="none" stroke="#FFFFFF" stroke-width="1.0409" stroke-miterlimit="10" x1="30.733" y1="1038.719" x2="327.371" y2="1038.719"/>
	
		<line display="inline" fill="none" stroke="#FFFFFF" stroke-width="0.865" stroke-miterlimit="10" x1="90.639" y1="861.672" x2="271.918" y2="861.672"/>
	
		<line display="inline" fill="none" stroke="#FFFFFF" stroke-width="0.865" stroke-miterlimit="10" x1="76.609" y1="894.631" x2="281.271" y2="894.631"/>
</g>
<g display="none">
	<g display="inline">
		<g>
			<g>
				<g>
					<defs>
						<polygon id="SVGID_25_" points="362.558,401.57 232.723,401.57 254.77,295.119 340.509,295.119 						"/>
					</defs>
					<clipPath id="SVGID_26_">
						<use xlink:href="#SVGID_25_"  overflow="visible"/>
					</clipPath>
					<g clip-path="url(#SVGID_26_)">
						<polygon opacity="0.6" fill="#32CCCC" enable-background="new    " points="506.201,392.439 87.744,392.439 150.323,309.594 
							443.843,309.594 						"/>
						<rect x="87.744" y="392.439" fill="#64677B" width="418.457" height="9.131"/>
					</g>
				</g>
			</g>
		</g>
		<g>
			<g>
				<g>
					<defs>
						<polygon id="SVGID_27_" points="223.592,401.57 93.535,401.57 67.924,295.119 249.203,295.119 						"/>
					</defs>
					<clipPath id="SVGID_28_">
						<use xlink:href="#SVGID_27_"  overflow="visible"/>
					</clipPath>
					<g clip-path="url(#SVGID_28_)">
						<polygon opacity="0.6" fill="#32CCCC" enable-background="new    " points="511.99,392.439 93.535,392.439 156.113,309.594 
							449.412,309.594 						"/>
						<rect x="93.535" y="392.439" fill="#32CCCC" width="418.455" height="9.131"/>
					</g>
				</g>
			</g>
		</g>
		<g>
			<g>
				<g>
					<defs>
						<polygon id="SVGID_29_" points="501.3,401.57 371.244,401.57 345.632,295.119 526.912,295.119 						"/>
					</defs>
					<clipPath id="SVGID_30_">
						<use xlink:href="#SVGID_29_"  overflow="visible"/>
					</clipPath>
					<g clip-path="url(#SVGID_30_)">
						<polygon opacity="0.6" fill="#32CCCC" enable-background="new    " points="501.968,392.439 83.513,392.439 146.092,309.594 
							439.613,309.594 						"/>
						<rect x="83.513" y="392.439" fill="#32CCCC" width="418.455" height="9.131"/>
					</g>
				</g>
			</g>
		</g>
	</g>
	<g display="inline">
		<g>
			<g>
				<g>
					<defs>
						<polygon id="SVGID_31_" points="391.732,532.297 204.217,532.297 236.063,378.632 359.884,378.632 						"/>
					</defs>
					<clipPath id="SVGID_32_">
						<use xlink:href="#SVGID_31_"  overflow="visible"/>
					</clipPath>
					<g clip-path="url(#SVGID_32_)">
						<polygon opacity="0.6" fill="#EE9B4A" enable-background="new    " points="599.511,519.381 -5.122,519.381 85.072,399.566 
							509.095,399.566 						"/>
						<rect x="-5.122" y="519.381" fill="#EE9B4A" width="604.633" height="13.139"/>
					</g>
				</g>
			</g>
		</g>
		<g>
			<g>
				<g>
					<defs>
						<polygon id="SVGID_33_" points="190.855,532.297 3.118,532.297 -34.073,378.632 228.046,378.632 						"/>
					</defs>
					<clipPath id="SVGID_34_">
						<use xlink:href="#SVGID_33_"  overflow="visible"/>
					</clipPath>
					<g clip-path="url(#SVGID_34_)">
						<polygon opacity="0.6" fill="#EE9B4A" enable-background="new    " points="607.751,519.381 3.118,519.381 93.312,399.566 
							517.335,399.566 						"/>
						<rect x="3.118" y="519.381" fill="#EE9B4A" width="604.634" height="13.139"/>
					</g>
				</g>
			</g>
		</g>
		<g>
			<g>
				<g>
					<defs>
						<polygon id="SVGID_35_" points="592.162,532.297 404.425,532.297 367.234,378.632 629.353,378.632 						"/>
					</defs>
					<clipPath id="SVGID_36_">
						<use xlink:href="#SVGID_35_"  overflow="visible"/>
					</clipPath>
					<g clip-path="url(#SVGID_36_)">
						<polygon opacity="0.6" fill="#EE9B4A" enable-background="new    " points="593.277,519.381 -11.358,519.381 79.059,399.566 
							502.859,399.566 						"/>
						<rect x="-11.358" y="519.381" fill="#EE9B4A" width="604.635" height="13.139"/>
					</g>
				</g>
			</g>
		</g>
	</g>
	<g display="inline">
		<rect x="73.714" y="385.98" fill="#FFFFFF" width="448.521" height="27.393"/>
		<rect x="73.714" y="385.98" opacity="0.9" fill="#64677B" enable-background="new    " width="448.521" height="27.393"/>
	</g>
</g>
<g display="none">
	<g display="inline">
		<g>
			<g>
				<g>
					<defs>
						<polygon id="SVGID_37_" points="580.582,941.844 508.873,941.844 521.121,816.24 568.333,816.24 						"/>
					</defs>
					<clipPath id="SVGID_38_">
						<use xlink:href="#SVGID_37_"  overflow="visible"/>
					</clipPath>
					<g clip-path="url(#SVGID_38_)">
						<polygon opacity="0.6" fill="#32CCCC" enable-background="new    " points="660.085,931.154 428.701,931.154 463.441,833.389 
							625.568,833.389 						"/>
						<rect x="428.701" y="931.154" fill="#64677B" width="231.385" height="10.689"/>
					</g>
				</g>
			</g>
		</g>
		<g>
			<g>
				<g>
					<defs>
						<polygon id="SVGID_39_" points="503.75,941.844 431.818,941.844 417.787,816.24 518.003,816.24 						"/>
					</defs>
					<clipPath id="SVGID_40_">
						<use xlink:href="#SVGID_39_"  overflow="visible"/>
					</clipPath>
					<g clip-path="url(#SVGID_40_)">
						<polygon opacity="0.6" fill="#32CCCC" enable-background="new    " points="663.205,931.154 431.818,931.154 466.558,833.389 
							628.685,833.389 						"/>
						<rect x="431.818" y="931.154" fill="#32CCCC" width="231.387" height="10.689"/>
					</g>
				</g>
			</g>
		</g>
		<g>
			<g>
				<g>
					<defs>
						<polygon id="SVGID_41_" points="657.414,941.844 585.482,941.844 571.228,816.24 671.445,816.24 						"/>
					</defs>
					<clipPath id="SVGID_42_">
						<use xlink:href="#SVGID_41_"  overflow="visible"/>
					</clipPath>
					<g clip-path="url(#SVGID_42_)">
						<polygon opacity="0.6" fill="#32CCCC" enable-background="new    " points="657.859,931.154 426.472,931.154 460.992,833.389 
							623.119,833.389 						"/>
						<rect x="426.472" y="931.154" fill="#32CCCC" width="231.388" height="10.689"/>
					</g>
				</g>
			</g>
		</g>
	</g>
	<g display="inline">
		<g>
			<polygon fill="#FFFFFF" points="706.63,1080.141 382.824,1080.141 431.15,931.154 658.304,931.154 			"/>
			<rect x="382.824" y="1080.141" fill="#FFFFFF" width="323.807" height="16.258"/>
		</g>
		<g>
			<g>
				<g>
					<defs>
						<polygon id="SVGID_43_" points="596.839,1096.398 493.06,1096.398 510.654,914.896 579.246,914.896 						"/>
					</defs>
					<clipPath id="SVGID_44_">
						<use xlink:href="#SVGID_43_"  overflow="visible"/>
					</clipPath>
					<g clip-path="url(#SVGID_44_)">
						<polygon opacity="0.6" fill="#EE9B4A" enable-background="new    " points="711.531,1081.031 377.255,1081.031 
							427.363,939.615 661.646,939.615 						"/>
						<rect x="377.255" y="1081.031" fill="#EE9B4A" width="334.275" height="15.367"/>
					</g>
				</g>
			</g>
		</g>
		<g>
			<g>
				<g>
					<defs>
						<polygon id="SVGID_45_" points="485.71,1096.398 381.933,1096.398 361.445,914.896 506.201,914.896 						"/>
					</defs>
					<clipPath id="SVGID_46_">
						<use xlink:href="#SVGID_45_"  overflow="visible"/>
					</clipPath>
					<g clip-path="url(#SVGID_46_)">
						<polygon opacity="0.6" fill="#EE9B4A" enable-background="new    " points="716.207,1081.031 381.933,1081.031 
							431.818,939.615 666.322,939.615 						"/>
						<rect x="381.933" y="1081.031" fill="#EE9B4A" width="334.273" height="15.367"/>
					</g>
				</g>
			</g>
		</g>
		<g>
			<g>
				<g>
					<defs>
						<polygon id="SVGID_47_" points="707.521,1096.398 603.744,1096.398 583.255,914.896 728.234,914.896 						"/>
					</defs>
					<clipPath id="SVGID_48_">
						<use xlink:href="#SVGID_47_"  overflow="visible"/>
					</clipPath>
					<g clip-path="url(#SVGID_48_)">
						<polygon opacity="0.6" fill="#EE9B4A" enable-background="new    " points="708.189,1081.031 373.916,1081.031 423.8,939.615 
							658.304,939.615 						"/>
						<rect x="373.916" y="1081.031" fill="#EE9B4A" width="334.272" height="15.367"/>
					</g>
				</g>
			</g>
		</g>
	</g>
	<g display="inline">
		<rect x="420.906" y="931.377" fill="#FFFFFF" width="247.864" height="20.934"/>
		<rect x="420.906" y="931.377" opacity="0.9" fill="#64677B" enable-background="new    " width="247.864" height="20.934"/>
	</g>
	
		<line display="inline" fill="none" stroke="#FFFFFF" stroke-width="1.0409" stroke-miterlimit="10" x1="413.333" y1="989.279" x2="675.675" y2="989.279"/>
	
		<line display="inline" fill="none" stroke="#FFFFFF" stroke-width="1.0409" stroke-miterlimit="10" x1="396.408" y1="1038.719" x2="692.824" y2="1038.719"/>
	
		<line display="inline" fill="none" stroke="#FFFFFF" stroke-width="0.865" stroke-miterlimit="10" x1="456.091" y1="861.672" x2="637.371" y2="861.672"/>
	
		<line display="inline" fill="none" stroke="#FFFFFF" stroke-width="0.865" stroke-miterlimit="10" x1="442.062" y1="894.631" x2="646.947" y2="894.631"/>
</g>
<g display="none">
	
		<circle display="inline" fill="#FFFFFF" stroke="#FFFFFF" stroke-width="3" stroke-miterlimit="10" cx="747.384" cy="532.296" r="164.799"/>
	
		<circle display="inline" opacity="0.1" fill="#FFFFFF" stroke="#64677B" stroke-width="3" stroke-miterlimit="10" enable-background="new    " cx="747.609" cy="532.296" r="164.799"/>
	<g display="inline">
		
			<circle opacity="0.3" fill="none" stroke="#64677B" stroke-width="12.3707" stroke-miterlimit="10" enable-background="new    " cx="747.162" cy="530.737" r="85.519"/>
		
			<circle opacity="0.3" fill="none" stroke="#64677B" stroke-width="11.1336" stroke-miterlimit="10" enable-background="new    " cx="747.384" cy="531.628" r="53.894"/>
		
			<circle opacity="0.3" fill="#64677B" stroke="#64677B" stroke-width="0.4917" stroke-miterlimit="10" enable-background="new    " cx="747.384" cy="531.628" r="34.073"/>
		<rect x="766.314" y="519.156" fill="none" width="19.375" height="24.721"/>
		<text transform="matrix(1 0 0 1 766.2148 538.1543)" font-family="'ArialMT'" font-size="22.0398">L</text>
		<rect x="792.593" y="518.488" fill="none" width="19.375" height="24.721"/>
		<text transform="matrix(1 0 0 1 792.5508 537.3965)" font-family="'ArialMT'" font-size="22.0398">M</text>
		<rect x="826.89" y="519.156" fill="none" width="19.375" height="24.721"/>
		<text transform="matrix(1 0 0 1 826.9824 538.1543)" font-family="'ArialMT'" font-size="22.0398">S</text>
		<path fill="#FFFFFF" stroke="#FFFFFF" stroke-width="6" stroke-miterlimit="10" d="M733.132,531.182l-75.051,43.873
			c-7.795-13.363-11.803-28.283-11.803-43.873c0-15.145,4.008-30.287,11.58-43.426L733.132,531.182z"/>
	</g>
	<g display="inline">
		<g>
			<path fill="#32CCCC" d="M685.697,566.592l24.498-14.252l0,0l37.188-21.379l0,0l-87.744,50.553
				c8.687,14.922,21.158,27.838,36.97,36.969l15.145-26.057C700.619,586.189,691.71,577.059,685.697,566.592z"/>
			<path fill="#32CCCC" d="M711.753,592.648L711.753,592.648L711.753,592.648l-15.145,26.055l0,0
				c16.034,9.133,33.405,13.586,50.553,13.586v-30.064C735.359,602.225,723.111,599.105,711.753,592.648z"/>
			<path fill="#32CCCC" d="M747.384,602.225L747.384,602.225v30.063c17.816,0,35.188-4.676,50.555-13.584l-14.922-26.057
				C772.104,598.885,759.857,602.225,747.384,602.225z"/>
			<path fill="#32CCCC" d="M783.017,592.648L783.017,592.648l14.923,26.055c14.92-8.686,27.838-21.154,36.969-36.967l-26.058-14.922
				C802.615,577.949,793.484,586.635,783.017,592.648z"/>
			<path fill="#32CCCC" d="M712.644,551.004l-22.938,13.139c5.566,9.799,13.807,18.262,24.273,24.275l13.139-22.939
				C721.107,562.137,715.984,557.016,712.644,551.004z"/>
			<path fill="#32CCCC" d="M727.341,565.701l-13.139,22.938l0,0c10.467,6.014,22.047,8.908,33.182,8.908v-26.502
				C740.482,571.047,733.578,569.264,727.341,565.701z"/>
			<path fill="#32CCCC" d="M747.384,571.047v26.502c11.582,0,23.162-3.119,33.185-8.908l-13.14-22.939
				C761.416,569.264,754.289,571.047,747.384,571.047z"/>
			<path fill="#32CCCC" d="M767.429,565.701l13.14,22.938c9.799-5.566,18.262-13.809,24.272-24.273l-22.938-13.141
				C778.341,557.461,773.218,562.361,767.429,565.701z"/>
			<path fill="#32CCCC" d="M747.384,566.146c6.236,0,12.25-1.559,17.594-4.678l-17.594-30.51V566.146z"/>
			<path fill="#32CCCC" d="M764.978,561.469c5.123-2.895,9.8-7.35,12.919-12.916l-30.513-17.594L764.978,561.469z"/>
			<path fill="#32CCCC" d="M729.57,561.469l17.592-30.51l-30.51,17.594C719.771,553.676,724.001,558.131,729.57,561.469z"/>
			<path fill="#32CCCC" d="M729.792,561.469c5.566,3.119,11.58,4.678,17.592,4.678v-35.186L729.792,561.469z"/>
			
				<line fill="none" stroke="#FFFFFF" stroke-width="1.2945" stroke-miterlimit="10" x1="797.939" y1="618.703" x2="747.384" y2="530.961"/>
			
				<line fill="none" stroke="#FFFFFF" stroke-width="1.2945" stroke-miterlimit="10" x1="747.384" y1="632.289" x2="747.384" y2="530.961"/>
			
				<line fill="none" stroke="#FFFFFF" stroke-width="1.2945" stroke-miterlimit="10" x1="696.832" y1="618.703" x2="747.384" y2="530.961"/>
		</g>
		<g>
			<path fill="#EE9B4A" d="M809.074,495.773l-24.498,14.252l0,0l-37.191,21.379l0,0l87.746-50.553
				c-8.686-14.92-21.158-27.838-36.969-36.969l-15.146,26.057C794.152,476.176,803.06,485.307,809.074,495.773z"/>
			<path fill="#EE9B4A" d="M783.017,469.717L783.017,469.717L783.017,469.717l15.146-26.057l0,0
				c-16.035-9.131-33.406-13.584-50.555-13.584v30.064C759.412,460.141,771.66,463.26,783.017,469.717z"/>
			<path fill="#EE9B4A" d="M747.384,460.141L747.384,460.141v-30.064c-17.813,0-35.186,4.678-50.553,13.584l14.922,26.057
				C722.443,463.48,734.914,460.141,747.384,460.141z"/>
			<path fill="#EE9B4A" d="M711.753,469.717L711.753,469.717l-14.922-26.057c-14.92,8.688-27.838,21.156-36.969,36.971l26.057,14.92
				C692.156,484.637,701.287,475.73,711.753,469.717z"/>
			<path fill="#EE9B4A" d="M782.126,511.361l22.938-13.139c-5.565-9.799-13.807-18.262-24.272-24.275l-13.361,22.717
				C773.664,500.449,778.564,505.35,782.126,511.361z"/>
			<path fill="#EE9B4A" d="M767.429,496.664l13.14-22.938l0,0c-10.468-6.014-22.048-8.908-33.185-8.908v26.502
				C754.066,491.318,760.97,493.1,767.429,496.664z"/>
			<path fill="#EE9B4A" d="M747.384,491.318v-26.502c-11.58,0-23.16,3.119-33.182,8.908l13.139,22.938
				C733.354,493.1,740.259,491.318,747.384,491.318z"/>
			<path fill="#EE9B4A" d="M727.341,496.664l-13.139-22.938c-9.799,5.566-18.262,13.807-24.273,24.273l22.938,13.141
				C716.207,505.127,721.33,500.006,727.341,496.664z"/>
			<path fill="#EE9B4A" d="M747.384,496.219c-6.233,0-12.248,1.559-17.592,4.678l17.592,30.51V496.219z"/>
			<path fill="#EE9B4A" d="M729.792,500.895c-5.123,2.895-9.799,7.35-12.918,12.916l30.512,17.594L729.792,500.895z"/>
			<path fill="#EE9B4A" d="M764.978,500.895l-17.594,30.51l30.513-17.594C775,508.689,770.546,504.234,764.978,500.895z"/>
			<path fill="#EE9B4A" d="M764.978,500.895c-5.565-3.117-11.579-4.676-17.594-4.676v35.408L764.978,500.895z"/>
			
				<line fill="none" stroke="#FFFFFF" stroke-width="1.2945" stroke-miterlimit="10" x1="696.609" y1="443.66" x2="747.384" y2="531.404"/>
			
				<line fill="none" stroke="#FFFFFF" stroke-width="1.2945" stroke-miterlimit="10" x1="747.384" y1="430.076" x2="747.384" y2="531.404"/>
			
				<line fill="none" stroke="#FFFFFF" stroke-width="1.2945" stroke-miterlimit="10" x1="797.939" y1="443.66" x2="747.384" y2="531.404"/>
		</g>
	</g>
	<g display="inline">
		<g>
			<path fill="#FFFFFF" stroke="#64677B" stroke-width="0.7702" stroke-miterlimit="10" d="M842.255,479.07l40.979-23.605
				c-13.81-23.607-33.63-43.428-57.681-57.013l-23.606,40.755C819.541,449.006,832.902,463.035,842.255,479.07z"/>
			<path fill="#FFFFFF" stroke="#64677B" stroke-width="0.7702" stroke-miterlimit="10" d="M802.169,438.984l23.607-40.756
				c-22.939-13.139-49.664-20.711-78.168-20.711v46.768C766.091,424.285,784.798,428.963,802.169,438.984z"/>
			<path fill="#FFFFFF" stroke="#64677B" stroke-width="0.7702" stroke-miterlimit="10" d="M747.384,424.285v-46.544
				c-28.504,0-55.229,7.571-78.168,20.711l23.385,40.532C709.304,429.408,728.234,424.285,747.384,424.285z"/>
			<path fill="#FFFFFF" stroke="#64677B" stroke-width="0.7702" stroke-miterlimit="10" d="M692.601,438.984l-23.606-40.756
				c-24.051,13.586-43.871,33.406-57.68,57.012l41.2,23.83C662.537,461.924,676.566,448.338,692.601,438.984z"/>
			
				<image overflow="visible" enable-background="new    " width="160" height="160" xlink:href="F6758658.png"  transform="matrix(0.277 0 0 0.277 820.5605 420.4248)">
			</image>
			
				<image overflow="visible" enable-background="new    " width="160" height="160" xlink:href="F6758659.png"  transform="matrix(0.277 0 0 0.277 694.5918 386.1963)">
			</image>
			
				<image overflow="visible" enable-background="new    " width="160" height="160" xlink:href="F675865F.png"  transform="matrix(0.277 0 0 0.277 760.8203 386.1982)">
			</image>
			
				<image overflow="visible" enable-background="new    " width="160" height="160" xlink:href="F675865A.png"  transform="matrix(0.277 0 0 0.277 627.5195 416.8545)">
			</image>
		</g>
		<g>
			<path fill="#FFFFFF" stroke="#64677B" stroke-width="0.7702" stroke-miterlimit="10" d="M652.515,585.076l-40.979,23.605
				c13.809,23.605,33.629,43.428,57.68,57.012l23.607-40.754C675.453,615.141,661.869,601.109,652.515,585.076z"/>
			<path fill="#FFFFFF" stroke="#64677B" stroke-width="0.7702" stroke-miterlimit="10" d="M692.601,625.162l-23.606,40.756
				c22.938,13.139,49.662,20.711,78.168,20.711v-46.768C728.902,639.637,709.972,634.961,692.601,625.162z"/>
			<path fill="#FFFFFF" stroke="#64677B" stroke-width="0.7702" stroke-miterlimit="10" d="M747.384,639.637v46.545
				c28.506,0,55.23-7.57,78.17-20.711l-23.606-40.754C785.466,634.738,766.537,639.637,747.384,639.637z"/>
			<path fill="#FFFFFF" stroke="#64677B" stroke-width="0.7702" stroke-miterlimit="10" d="M802.169,625.162l23.607,40.756
				c24.051-13.586,43.871-33.406,57.68-57.014l-40.979-23.605C832.234,602.225,818.205,615.809,802.169,625.162z"/>
			
				<image overflow="visible" enable-background="new    " width="160" height="160" xlink:href="F675865B.png"  transform="matrix(0.277 0 0 0.277 629.916 598.54)">
			</image>
			
				<image overflow="visible" enable-background="new    " width="160" height="160" xlink:href="F6758656.png"  transform="matrix(0.277 0 0 0.277 753.6836 637.2725)">
			</image>
			
				<image overflow="visible" enable-background="new    " width="160" height="160" xlink:href="F6758657.png"  transform="matrix(0.277 0 0 0.277 696.7207 640.0713)">
			</image>
			
				<image overflow="visible" enable-background="new    " width="160" height="160" xlink:href="F6758668.png"  transform="matrix(0.277 0 0 0.277 814.9766 598.54)">
			</image>
		</g>
	</g>
</g>
</svg>
