<?xml version="1.0" encoding="utf-8"?>
<!-- Generator: Adobe Illustrator 16.0.0, SVG Export Plug-In . SVG Version: 6.00 Build 0)  -->
<!DOCTYPE svg PUBLIC "-//W3C//DTD SVG 1.1//EN" "http://www.w3.org/Graphics/SVG/1.1/DTD/svg11.dtd">
<svg version="1.1" id="图层_1" xmlns="http://www.w3.org/2000/svg" xmlns:xlink="http://www.w3.org/1999/xlink" x="0px" y="0px"
	 width="595.281px" height="485px" viewBox="0 204.446 595.281 485" enable-background="new 0 204.446 595.281 485"
	 xml:space="preserve">
<g>
	<g>
		<g>
			<g>
				<path fill="#666666" d="M-474.034,1154.29c90.739,0,90.739-141.584,0-141.584
					C-565.556,1012.705-565.556,1154.29-474.034,1154.29L-474.034,1154.29z"/>
			</g>
		</g>
		<g>
			<g>
				<g>
					<path fill="#666666" d="M-624.223,1227.037c-9.387,0.782-17.991,0.782-27.378-0.781c-7.822-1.564-10.952,10.169-3.129,11.732
						c10.169,2.348,20.338,3.129,30.507,1.564C-615.618,1238.771-615.618,1226.256-624.223,1227.037L-624.223,1227.037z"/>
				</g>
			</g>
			<g>
				<g>
					<path fill="#666666" d="M-645.343,1231.731c-1.564-12.516-4.693-25.813-17.992-30.507
						c-11.733-3.911-27.378-0.782-33.636,10.951c-6.258,11.732-0.782,26.596,10.951,32.07c13.298,7.041,28.161,2.348,39.112-6.258
						c6.258-4.692-2.347-14.08-8.604-8.604c-6.258,4.692-14.081,8.604-21.903,5.476c-7.04-2.347-12.516-11.733-6.258-17.991
						c3.911-4.692,12.516-4.692,17.991-3.129c7.041,3.129,8.605,11.733,9.387,18.773
						C-657.077,1239.553-644.561,1239.553-645.343,1231.731L-645.343,1231.731z"/>
				</g>
			</g>
		</g>
		<g>
			<g>
				<path fill="#666666" d="M-472.47,1334.203c-29.725,16.428-57.103,36.766-82.134,60.231
					c-12.516,11.734-2.347,30.508,13.298,32.072c30.507,2.347,61.014,2.347,91.521,0.781c10.951-0.781,22.685-11.732,17.991-23.467
					c-3.911-10.169-7.04-21.12-8.604-32.072c-1.564-10.169-10.951-23.467-23.467-17.99c-17.209,7.04-28.943,16.427-39.894,31.289
					c-11.733,16.428,10.169,32.854,25.813,25.813c6.258-3.129,11.734-6.258,17.209-10.951c4.693-3.911,8.604-11.733,13.298-14.863
					c-4.693,0.783-9.387,1.564-14.08,1.564c0.782,0.783,2.347,0.783,3.129,1.563c-4.693-4.692-8.604-8.604-13.298-13.298
					c3.912,10.952,4.694,22.687,6.258,33.638c3.911,23.467,39.894,13.298,35.982-10.17c-3.129-16.428-1.564-43.806-22.685-48.498
					c-20.338-3.911-28.943,20.339-45.37,28.16c8.604,8.604,17.209,17.209,25.813,25.813c4.693-6.258,10.169-10.951,17.209-14.08
					c-7.822-6.259-15.645-11.733-23.467-17.992c1.564,14.862,4.693,28.161,9.387,41.459c6.258-7.821,11.734-15.645,17.992-23.467
					c-30.507,1.563-61.014,1.563-91.521-0.782c4.693,10.951,8.604,21.12,13.298,32.071c22.685-21.12,47.716-39.112,74.313-53.974
					C-432.576,1354.542-451.349,1322.47-472.47,1334.203L-472.47,1334.203z"/>
			</g>
		</g>
		<g>
			<g>
				<path fill="#666666" d="M-500.63,1150.379c5.476,70.4,7.822,140.803,5.476,211.202c-0.782,32.072,48.499,32.072,50.063,0
					c2.347-70.399,0.782-140.802-5.476-211.202C-452.914,1119.09-502.977,1119.09-500.63,1150.379L-500.63,1150.379z"/>
			</g>
		</g>
		<g>
			<g>
				<path fill="#666666" d="M-477.163,1195.747c23.467,25.032,51.627,45.37,82.917,58.668c9.387,3.911,25.813,2.348,27.378-10.95
					c3.911-30.507,0-58.668-14.081-86.046c-10.951-21.12-43.023-2.348-32.071,18.772c8.604,17.21,12.516,37.548,10.169,57.104
					c9.387-3.911,17.991-7.822,27.378-10.951c-28.942-12.517-53.974-29.727-75.876-53.192
					C-466.994,1151.943-493.59,1177.757-477.163,1195.747L-477.163,1195.747z"/>
			</g>
		</g>
		<g>
			<g>
				<path fill="#666666" d="M-479.51,1171.499c-45.37,14.08-92.304,39.111-139.237,48.498
					c-23.467,4.693-13.298,40.677,10.169,35.982c46.934-8.604,93.086-33.636,139.238-48.498
					C-446.656,1200.442-456.042,1164.458-479.51,1171.499L-479.51,1171.499z"/>
			</g>
		</g>
	</g>
	<g>
		<line fill="none" stroke="#000000" stroke-miterlimit="10" x1="-695.406" y1="1466.401" x2="-155.665" y2="1466.401"/>
		<line fill="none" stroke="#000000" stroke-miterlimit="10" x1="-689.931" y1="1463.272" x2="-713.397" y2="1549.318"/>
		
			<line fill="none" stroke="#000000" stroke-width="0.5" stroke-miterlimit="10" x1="-371.562" y1="1469.53" x2="-371.562" y2="1557.14"/>
	</g>
</g>
<g>
	<g>
		<g>
			<g>
				<path fill="#666666" d="M621.093,1105.792c90.74,0,90.74-141.586,0-141.586C530.354,964.206,530.354,1105.792,621.093,1105.792
					L621.093,1105.792z"/>
			</g>
		</g>
		<g>
			<g>
				<path fill="#666666" d="M623.441,1286.488c-29.726,16.428-57.104,36.766-82.136,60.231
					c-12.516,11.732-2.348,30.507,13.299,32.071c30.507,2.348,61.015,2.348,91.521,0.782c10.953-0.782,22.686-11.733,17.992-23.468
					c-3.91-10.169-7.039-21.12-8.604-32.071c-1.563-10.169-10.951-23.467-23.469-17.991c-17.209,7.041-28.941,16.428-39.893,31.289
					c-11.734,16.428,10.168,32.854,25.813,25.813c6.258-3.129,11.734-6.258,17.209-10.951c4.693-3.911,8.605-11.733,13.299-14.862
					c-4.692,0.782-9.387,1.564-14.08,1.564c0.781,0.781,2.347,0.781,3.129,1.563c-4.692-4.692-8.604-8.604-13.299-13.298
					c3.912,10.951,4.693,22.686,6.258,33.636c3.912,23.469,39.896,13.298,35.984-10.169c-3.129-16.427-1.563-43.805-22.686-48.498
					c-20.338-3.91-28.943,20.338-45.369,28.16c8.604,8.604,17.209,17.209,25.813,25.813c4.693-6.259,10.17-10.951,17.209-14.08
					c-7.821-6.258-15.645-11.733-23.467-17.991c1.564,14.862,4.693,28.16,9.387,41.459c6.259-7.823,11.734-15.646,17.992-23.468
					c-30.508,1.563-61.014,1.563-91.521-0.782c4.692,10.951,8.604,21.12,13.299,32.072c22.684-21.121,47.715-39.112,74.311-53.975
					C663.335,1306.825,644.562,1274.754,623.441,1286.488L623.441,1286.488z"/>
			</g>
		</g>
		<g>
			<g>
				<path d="M606.232,1113.614c-37.548,4.693-75.878,9.388-112.644,17.209c-10.951,2.348-17.99,17.991-10.951,27.378
					c17.209,22.686,33.638,39.896,61.017,50.063c22.684,8.604,32.069-27.379,10.168-35.983c-17.209-6.258-28.16-18.772-38.33-32.854
					c-3.91,9.387-7.822,17.99-10.951,27.378c33.637-7.822,68.838-11.733,103.256-15.646
					C629.699,1148.814,629.699,1111.267,606.232,1113.614L606.232,1113.614z"/>
			</g>
		</g>
		<g>
			<g>
				<path fill="#666666" d="M595.281,1102.662c5.475,70.4,7.821,140.803,5.475,211.203c-0.781,32.071,48.5,32.071,50.064,0
					c2.346-70.4,0.78-140.803-5.478-211.203C642.214,1070.591,592.933,1070.591,595.281,1102.662L595.281,1102.662z"/>
			</g>
		</g>
		<g>
			<g>
				<g>
					<path d="M542.871,1197.312c9.387-0.781,17.992-0.781,27.379,0.783c7.822,1.563,10.951-10.17,3.129-11.734
						c-10.17-2.347-20.338-3.129-30.508-1.563C535.048,1185.578,535.048,1198.095,542.871,1197.312L542.871,1197.312z"/>
				</g>
			</g>
			<g>
				<g>
					<path d="M564.773,1192.618c1.563,12.518,4.692,25.814,17.991,30.509c11.732,3.911,27.377,0.781,33.636-10.951
						c6.258-11.733,0.782-26.597-10.951-32.072c-13.297-7.04-28.16-2.347-39.111,6.258c-6.258,4.693,2.349,14.081,8.605,8.605
						c6.258-4.693,14.08-8.605,21.901-5.477c7.039,2.348,12.517,11.733,6.258,17.991c-3.911,4.693-12.516,4.693-17.991,3.129
						c-7.039-3.129-8.604-11.732-9.388-18.772C575.724,1184.797,563.208,1184.797,564.773,1192.618L564.773,1192.618z"/>
				</g>
			</g>
		</g>
		<g>
			<g>
				<path fill="#666666" d="M635.957,1155.854c29.725,7.822,59.449,14.862,89.957,20.339c19.557,3.91,27.379-18.773,12.516-30.508
					c-12.516-9.387-19.557-24.249-32.854-33.636c-17.209-12.517-33.638,15.645-16.429,28.941
					c12.517,9.388,19.558,24.249,32.854,33.638c3.912-10.171,8.604-20.34,12.516-30.509c-30.506-5.476-60.229-12.516-89.955-20.338
					C624.222,1118.307,615.619,1150.379,635.957,1155.854L635.957,1155.854z"/>
			</g>
		</g>
	</g>
	<g>
		<line fill="none" stroke="#000000" stroke-miterlimit="10" x1="754.074" y1="1425.725" x2="214.332" y2="1425.725"/>
		<line fill="none" stroke="#000000" stroke-miterlimit="10" x1="748.599" y1="1422.596" x2="772.066" y2="1508.642"/>
		
			<line fill="none" stroke="#000000" stroke-width="0.5" stroke-miterlimit="10" x1="430.228" y1="1428.854" x2="430.228" y2="1516.465"/>
	</g>
</g>
<g>
	<g>
		<g>
			<g>
				<path fill="#666666" d="M1321.193,246.898c23.469,11.733,46.936,22.686,71.184,34.418c13.299,6.258,33.637-4.692,27.379-21.12
					c-7.822-19.556-15.645-39.895-22.686-59.449c-8.604-21.902-44.587-12.517-35.982,10.169
					c7.822,19.557,15.646,39.895,22.687,59.449c9.387-7.04,17.989-14.079,27.377-21.119c-23.468-11.733-46.935-22.686-71.183-34.419
					C1318.847,203.875,1300.074,235.947,1321.193,246.898L1321.193,246.898z"/>
			</g>
		</g>
		<g>
			<g>
				<path fill="#B3B3B3" d="M1311.806,224.214c-28.16,43.021-58.666,85.263-90.737,125.938
					c-14.863,19.557,15.645,39.895,30.508,21.902c32.069-40.676,61.795-82.917,90.738-125.938
					C1355.613,224.996,1325.104,203.875,1311.806,224.214L1311.806,224.214z"/>
			</g>
		</g>
		<g>
			<g>
				<g>
					<path fill="#666666" d="M1301.638,200.746c90.738,0,90.738-141.584,0-141.584
						C1210.897,59.944,1210.897,200.746,1301.638,200.746L1301.638,200.746z"/>
				</g>
			</g>
			<g>
				<g>
					<path fill="#666666" d="M1288.339,174.932c25.031,77.441,37.547,156.447,38.33,238.581c0,32.072,50.063,32.072,50.063,0
						c-0.78-86.045-14.079-169.744-39.895-251.879C1326.669,131.128,1278.953,144.426,1288.339,174.932L1288.339,174.932z"/>
				</g>
			</g>
			<g>
				<g>
					<path fill="#666666" d="M1357.958,383.007c-34.418,3.129-67.271,10.169-99.344,21.12c-14.08,4.692-19.556,25.813-4.693,34.419
						c28.16,15.645,57.104,28.159,87.611,39.894c11.731,4.693,22.684-7.04,23.467-17.991c0.781-10.951,2.346-21.901,6.258-32.07
						c3.91-11.734-6.258-23.468-17.992-23.468c-16.426,0-30.508,3.129-44.588,11.732c-15.645,9.388-9.387,35.201,9.388,35.201
						c7.821,0,15.646-0.782,23.469-3.911c3.91-1.564,12.516-7.822,16.426-7.04c-5.475-3.129-10.951-6.258-16.426-9.387
						c-3.912-5.477-3.129,1.563-3.912,6.258c-1.563,5.476-2.346,10.169-3.91,15.645c-5.477,23.468,30.506,33.637,35.982,10.169
						c3.91-15.645,15.645-40.676,1.563-53.975c-16.428-15.645-35.201,4.693-52.41,5.477c3.129,11.733,6.259,23.468,9.388,35.2
						c8.604-4.692,16.428-7.04,25.813-6.258c-6.258-7.822-11.734-15.645-17.992-23.468c-3.91,14.081-6.258,28.161-7.039,42.241
						c7.822-6.259,15.646-11.733,23.468-17.991c-27.379-10.169-53.193-22.686-78.226-35.983
						c-1.563,11.734-3.129,22.687-4.692,34.419c28.942-10.169,58.668-16.427,89.957-19.556
						C1381.425,418.207,1381.425,380.66,1357.958,383.007L1357.958,383.007z"/>
				</g>
			</g>
		</g>
		<g>
			<g>
				<g>
					<path fill="#B3B3B3" d="M1229.671,361.104c-7.039,5.477-14.08,8.604-22.684,10.951c-7.822,2.347-5.478,14.08,2.346,12.516
						c10.17-3.129,20.34-7.04,28.162-14.079C1243.753,365.798,1235.931,357.193,1229.671,361.104L1229.671,361.104z"/>
				</g>
			</g>
			<g>
				<g>
					<path fill="#B3B3B3" d="M1213.246,374.402c-7.041-10.95-17.992-20.338-31.289-17.209c-12.516,3.129-24.25,13.299-23.467,26.597
						c1.563,12.516,12.516,21.901,25.03,21.12c14.861,0,25.031-11.733,30.507-24.249c2.348-7.822-8.604-11.733-11.732-4.693
						s-7.041,13.298-14.863,14.862c-7.821,2.347-17.989-2.348-16.426-12.517c0.781-7.04,11.732-13.298,18.772-10.951
						c5.476,1.564,10.168,7.822,13.298,12.517C1207.769,388.482,1217.938,380.66,1213.246,374.402L1213.246,374.402z"/>
				</g>
			</g>
		</g>
	</g>
	<g>
		<line fill="none" stroke="#000000" stroke-miterlimit="10" x1="1319.628" y1="512.858" x2="1016.904" y2="512.858"/>
		<line fill="none" stroke="#000000" stroke-miterlimit="10" x1="1314.154" y1="509.729" x2="1337.621" y2="595.775"/>
	</g>
</g>
<g>
	<g>
		<line fill="none" stroke="#000000" stroke-miterlimit="10" x1="2505.496" y1="4184.665" x2="1965.755" y2="4184.665"/>
		<line fill="none" stroke="#000000" stroke-miterlimit="10" x1="2500.021" y1="4187.794" x2="2523.488" y2="4101.749"/>
		
			<line fill="none" stroke="#000000" stroke-width="0.5" stroke-miterlimit="10" x1="2181.652" y1="4181.536" x2="2181.652" y2="4093.927"/>
	</g>
	<g>
		<g>
			<g>
				<path fill="#666666" d="M2311.501,4240.985c90.74,0,90.74-141.584,0-141.584
					C2220.763,4100.185,2219.979,4240.985,2311.501,4240.985L2311.501,4240.985z"/>
			</g>
		</g>
		<g>
			<g>
				<g>
					<path fill="#666666" d="M2460.91,4327.032c10.168,1.563,20.338,0.781,30.506-1.564c7.822-1.564,4.693-14.08-3.129-11.732
						c-9.387,1.563-17.99,2.347-27.377,0.78C2453.087,4312.952,2453.087,4325.468,2460.91,4327.032L2460.91,4327.032z"/>
				</g>
			</g>
			<g>
				<g>
					<path fill="#666666" d="M2494.544,4319.21c0.783-7.041,1.564-15.646,9.387-18.774c5.478-2.347,14.082-1.563,17.992,3.13
						c6.258,6.258,0.783,15.645-6.258,17.991c-7.822,3.129-16.428-0.782-21.902-5.476c-6.258-4.693-14.863,3.91-8.605,8.604
						c10.951,8.604,25.033,13.298,38.33,7.04c11.734-5.476,17.992-20.338,11.734-32.854c-6.258-10.951-21.121-14.08-32.855-10.951
						c-14.08,3.912-17.989,17.992-19.555,30.508C2481.248,4327.032,2493.763,4327.032,2494.544,4319.21L2494.544,4319.21z"/>
				</g>
			</g>
		</g>
		<g>
			<g>
				<path fill="#666666" d="M2290.382,4453.753c26.596,15.646,51.627,32.854,74.313,53.976c4.692-10.951,8.604-21.12,13.297-32.071
					c-30.506,2.348-61.014,2.348-91.521,0.783c6.258,7.821,11.733,15.645,17.991,23.467c5.476-14.08,7.822-27.379,9.388-41.459
					c-7.822,6.258-15.646,11.733-23.468,17.992c7.039,3.129,13.298,7.821,17.209,14.08c8.605-8.604,17.209-17.209,25.814-25.813
					c-15.646-7.823-25.033-32.071-45.371-28.161c-21.119,4.693-20.338,31.29-22.685,48.5c-3.912,23.467,32.07,33.635,35.982,10.168
					c1.563-10.951,3.129-23.467,6.258-33.637c-4.693,4.693-8.605,8.604-13.299,13.299c0.783-0.781,2.348-0.781,3.129-1.564
					c-4.693-0.781-9.387-1.564-14.08-1.564c5.477,3.129,9.387,10.951,13.299,14.863c5.477,4.691,10.951,7.822,17.209,10.951
					c14.863,7.04,37.547-8.604,25.814-25.814c-10.951-14.861-22.687-24.248-39.896-31.289c-12.517-5.476-22.687,7.822-23.467,17.992
					c-1.564,10.951-4.693,21.119-8.605,32.07c-4.692,11.734,7.041,22.686,17.992,23.467c30.506,1.564,61.014,1.564,91.521-0.781
					c14.861-0.781,25.813-20.338,13.298-32.071c-25.031-23.467-52.408-43.021-82.134-60.231
					C2288.035,4409.948,2269.261,4442.021,2290.382,4453.753L2290.382,4453.753z"/>
			</g>
		</g>
		<g>
			<g>
				<path fill="#666666" d="M2287.253,4237.856c-5.477,70.4-7.822,140.803-5.477,211.203c0.782,32.072,50.846,32.072,50.063,0
					c-2.348-70.4-0.783-140.803,5.476-211.203C2339.664,4205.786,2290.382,4206.567,2287.253,4237.856L2287.253,4237.856z"/>
			</g>
		</g>
		<g>
			<g>
				<path fill="#666666" d="M2287.253,4256.63c-21.121,23.467-46.152,40.678-75.877,53.192c9.387,3.911,17.99,7.821,27.379,10.951
					c-2.348-19.556,1.564-39.112,10.168-57.103c10.951-21.121-21.121-40.678-32.072-18.773c-14.08,27.377-17.99,55.537-14.08,86.045
					c1.564,13.299,17.992,14.863,27.379,10.951c31.289-13.298,59.449-33.637,82.916-58.667
					C2330.277,4265.235,2303.679,4238.641,2287.253,4256.63L2287.253,4256.63z"/>
			</g>
		</g>
		<g>
			<g>
				<path fill="#666666" d="M2306.027,4294.96c45.368,14.08,92.303,39.111,139.237,48.498c23.468,4.693,33.636-31.289,10.168-35.981
					c-46.934-8.604-93.086-33.636-139.237-48.498C2293.511,4251.938,2283.341,4287.919,2306.027,4294.96L2306.027,4294.96z"/>
			</g>
		</g>
	</g>
</g>
<g>
	<g>
		<line fill="none" stroke="#000000" stroke-miterlimit="10" x1="3408.976" y1="3665.261" x2="2913.824" y2="3665.261"/>
		<line fill="none" stroke="#000000" stroke-miterlimit="10" x1="3403.501" y1="3668.39" x2="3426.968" y2="3582.345"/>
		
			<line fill="none" stroke="#000000" stroke-width="0.5" stroke-miterlimit="10" x1="3085.132" y1="3662.133" x2="3085.132" y2="3574.523"/>
	</g>
	<g>
		<g>
			<g>
				<path fill="#B3B3B3" d="M3258.005,3636.32c16.428,9.387,30.508,21.902,42.24,36.766c4.695,5.476,8.604,11.732,11.733,17.99
					c1.564,3.911,2.347,7.04,2.347,8.604c-1.564,24.249,35.983,24.249,37.549,0c0.781-16.427-10.17-33.636-19.557-46.151
					c-14.863-20.338-33.638-36.766-55.539-49.281C3255.66,3591.732,3236.886,3624.585,3258.005,3636.32L3258.005,3636.32z"/>
			</g>
		</g>
		<g>
			<g>
				<path fill="#B3B3B3" d="M3254.876,3726.276c25.031-5.476,50.064-2.347,75.096-8.604c23.467-5.476,13.297-41.457-10.17-35.981
					c-25.031,5.476-50.063,2.346-75.094,8.604C3222.022,3695.769,3231.41,3731.751,3254.876,3726.276L3254.876,3726.276z"/>
			</g>
		</g>
		<g>
			<g>
				<g>
					<path fill="#666666" d="M3237.667,3606.594c90.74,0,90.74-141.585,0-141.585
						C3146.929,3465.01,3146.929,3606.594,3237.667,3606.594L3237.667,3606.594z"/>
				</g>
			</g>
			<g>
				<g>
					<path fill="#666666" d="M3224.371,3580.781c25.031,77.441,37.547,156.447,38.328,238.581c0,32.071,50.063,32.071,50.063,0
						c-0.783-86.046-14.08-169.745-39.895-251.88C3262.699,3536.975,3214.983,3550.273,3224.371,3580.781L3224.371,3580.781z"/>
				</g>
			</g>
			<g>
				<g>
					<path fill="#666666" d="M3293.988,3788.855c-34.418,3.129-67.271,10.169-99.345,21.12c-14.08,4.694-19.555,25.813-4.692,34.419
						c28.162,15.645,57.104,28.16,87.61,39.895c11.732,4.692,22.685-7.041,23.468-17.991c0.782-10.951,2.346-21.902,6.258-32.072
						c3.912-11.731-6.258-23.467-17.992-23.467c-16.426,0-30.506,3.129-44.586,11.733c-15.645,9.387-9.387,35.199,9.388,35.199
						c7.821,0,15.645-0.781,23.467-3.91c3.91-1.563,12.516-7.822,16.426-7.041c-5.475-3.129-10.951-6.258-16.426-9.387
						c-3.912-5.475-3.129,1.564-3.912,6.258c-1.564,5.478-2.346,10.17-3.91,15.646c-5.477,23.468,30.506,33.637,35.982,10.17
						c3.912-15.646,15.645-40.677,1.563-53.976c-16.426-15.645-35.201,4.693-52.41,5.477c3.129,11.732,6.259,23.468,9.388,35.199
						c8.604-4.692,16.428-7.039,25.813-6.258c-6.258-7.822-11.733-15.645-17.992-23.467c-3.909,14.08-6.258,28.16-7.039,42.241
						c7.822-6.259,15.646-11.733,23.468-17.991c-27.379-10.17-53.191-22.686-78.224-35.982c-1.563,11.732-3.129,22.685-4.692,34.418
						c28.94-10.17,58.666-16.428,89.957-19.557C3317.457,3824.055,3317.457,3786.508,3293.988,3788.855L3293.988,3788.855z"/>
				</g>
			</g>
		</g>
		<g>
			<g>
				<path fill="#666666" d="M3257.224,3610.506c-9.387,9.387-19.557,18.772-25.03,31.289c-1.564,3.129-2.349,5.477-3.129,8.604
					c-0.783,1.564-0.783,3.91-1.564,5.476c-1.565,5.477,0,3.129,5.476-7.039c-0.781-0.783-13.299-0.783-14.861-1.564
					c-4.693-0.782-9.389-2.348-14.08-3.912c-21.904-7.039-31.291,27.379-9.389,34.418c16.428,5.478,50.846,14.08,63.361-3.129
					c4.692-6.258,4.692-14.86,7.821-21.901c3.912-7.039,10.951-12.517,16.429-17.99
					C3299.464,3619.11,3273.649,3594.077,3257.224,3610.506L3257.224,3610.506z"/>
			</g>
		</g>
		<g>
			<g>
				<g>
					<path fill="#B3B3B3" d="M3250.966,3702.809c-10.951,1.563-21.121,3.911-30.508,9.387c-7.039,3.911-0.781,14.08,6.258,10.952
						c7.822-3.912,15.646-6.258,24.25-7.823C3258.789,3713.76,3258.789,3701.245,3250.966,3702.809L3250.966,3702.809z"/>
				</g>
			</g>
			<g>
				<g>
					<path fill="#B3B3B3" d="M3218.113,3716.889c0.78,7.04,2.346,15.645-3.129,20.339c-4.693,4.693-15.646,7.039-21.121,2.346
						c-5.478-4.693-3.129-13.298,1.563-17.209c7.039-5.476,16.428-4.693,24.25-0.781c7.039,3.129,13.297-7.041,6.258-10.951
						c-12.516-5.477-27.379-7.04-38.33,2.347c-9.387,7.822-12.516,22.685-4.692,32.854c7.039,10.168,21.901,10.95,32.854,6.258
						c14.863-6.258,16.429-20.338,14.863-34.418C3229.845,3709.067,3217.33,3709.067,3218.113,3716.889L3218.113,3716.889z"/>
				</g>
			</g>
		</g>
		<path fill="none" stroke="#333333" stroke-width="1.5929" stroke-miterlimit="10" d="M3380.815,3702.809"/>
	</g>
</g>
<g>
	<g>
		<line fill="none" stroke="#000000" stroke-miterlimit="10" x1="1045.066" y1="4176.844" x2="1584.806" y2="4176.844"/>
		<line fill="none" stroke="#000000" stroke-miterlimit="10" x1="1050.541" y1="4179.973" x2="1027.074" y2="4093.927"/>
		
			<line fill="none" stroke="#000000" stroke-width="0.5" stroke-miterlimit="10" x1="1368.91" y1="4173.714" x2="1368.91" y2="4086.104"/>
	</g>
	<g>
		<g>
			<g>
				<path fill="#666666" d="M1162.4,4253.501c90.739,0,90.739-141.584,0-141.584C1071.662,4112.7,1070.878,4253.501,1162.4,4253.501
					L1162.4,4253.501z"/>
			</g>
		</g>
		<g>
			<g>
				<path fill="#666666" d="M1141.281,4466.27c26.596,15.646,51.627,32.854,74.311,53.976c4.693-10.951,8.605-21.121,13.299-32.071
					c-30.508,2.347-61.014,2.347-91.521,0.782c6.258,7.822,11.734,15.645,17.992,23.467c5.475-14.08,7.821-27.378,9.387-41.459
					c-7.822,6.258-15.646,11.734-23.467,17.992c7.039,3.129,13.297,7.822,17.209,14.08c8.604-8.604,17.209-17.209,25.813-25.814
					c-15.645-7.821-25.031-32.069-45.369-28.16c-21.121,4.693-20.338,31.291-22.686,48.5c-3.91,23.467,32.072,33.636,35.983,10.168
					c1.564-10.951,3.13-23.467,6.259-33.636c-4.693,4.692-8.605,8.604-13.299,13.298c0.782-0.781,2.348-0.781,3.129-1.564
					c-4.693-0.78-9.388-1.563-14.08-1.563c5.477,3.129,9.387,10.951,13.299,14.862c5.475,4.692,10.951,7.822,17.209,10.951
					c14.861,7.041,37.547-8.604,25.813-25.813c-10.951-14.862-22.684-24.248-39.893-31.289
					c-12.518-5.476-22.686,7.821-23.469,17.991c-1.564,10.952-4.693,21.12-8.604,32.07c-4.692,11.734,7.039,22.687,17.99,23.467
					c30.508,1.564,61.016,1.564,91.521-0.78c14.863-0.782,25.814-20.338,13.3-32.071c-25.031-23.467-52.41-43.022-82.136-60.231
					C1138.933,4422.464,1120.16,4454.536,1141.281,4466.27L1141.281,4466.27z"/>
			</g>
		</g>
		<g>
			<g>
				<path fill="#B3B3B3" d="M1178.044,4298.872c34.418,3.91,68.838,8.604,103.256,15.645c-3.912-9.387-7.822-17.991-10.951-27.378
					c-10.951,14.08-21.121,26.597-38.33,32.854c-22.686,8.604-12.516,44.588,10.17,35.981
					c27.377-10.168,43.806-27.378,61.015-50.063c7.039-9.387,0-25.03-10.951-27.379c-36.766-7.821-75.094-12.516-112.643-17.209
					C1153.796,4258.979,1153.796,4296.524,1178.044,4298.872L1178.044,4298.872z"/>
			</g>
		</g>
		<g>
			<g>
				<g>
					<path fill="#B3B3B3" d="M1240.625,4332.507c-10.17-1.563-20.34-0.78-30.508,1.564c-7.822,1.564-4.693,14.08,3.129,11.734
						c9.387-1.564,17.992-2.349,27.379-0.783C1248.447,4345.807,1248.447,4334.071,1240.625,4332.507L1240.625,4332.507z"/>
				</g>
			</g>
			<g>
				<g>
					<path fill="#B3B3B3" d="M1206.988,4340.329c-0.783,7.041-1.564,15.646-9.388,18.773c-5.477,2.348-14.079,1.564-17.991-3.129
						c-6.259-6.258-0.781-15.645,6.258-17.99c7.822-3.13,16.428,0.781,21.902,5.475c6.258,4.693,14.862-3.91,8.604-8.604
						c-10.951-8.604-25.031-13.299-38.33-7.041c-11.731,5.477-17.99,20.338-11.731,32.854c6.258,10.951,21.118,14.08,32.854,10.951
						c14.08-3.91,17.992-17.99,19.558-30.506C1220.285,4332.507,1207.769,4332.507,1206.988,4340.329L1206.988,4340.329z"/>
				</g>
			</g>
		</g>
		<g>
			<g>
				<path fill="#666666" d="M1138.152,4250.372c-5.478,70.401-7.824,140.804-5.478,211.203c0.783,32.072,50.846,32.072,50.063,0
					c-2.347-70.399-0.781-140.801,5.477-211.203C1190.56,4218.302,1141.281,4218.302,1138.152,4250.372L1138.152,4250.372z"/>
			</g>
		</g>
		<g>
			<g>
				<path fill="#666666" d="M1138.933,4271.493c-29.725,7.822-59.448,14.862-89.957,20.338c3.912,10.168,8.605,20.338,12.517,30.508
					c12.516-9.388,20.338-24.25,32.854-33.637c17.209-12.516,0-41.459-16.426-28.943c-12.516,9.389-20.338,24.25-32.854,33.638
					c-14.862,10.951-6.258,34.418,12.517,30.508c30.506-5.478,60.229-12.517,89.957-20.338
					C1167.876,4298.089,1159.271,4266.018,1138.933,4271.493L1138.933,4271.493z"/>
			</g>
		</g>
	</g>
</g>
<g>
	<g>
		<line fill="none" stroke="#000000" stroke-miterlimit="10" x1="248.75" y1="296.961" x2="551.476" y2="296.961"/>
		<line fill="none" stroke="#000000" stroke-miterlimit="10" x1="254.226" y1="300.09" x2="230.759" y2="214.044"/>
	</g>
	<g>
		<g>
			<g>
				<path fill="#666666" d="M143.149,416.642c-23.467,11.734-46.934,22.686-71.184,34.419c-13.298,6.258-33.636-4.693-27.378-21.12
					c7.822-19.557,15.645-39.895,22.685-59.449c8.605-21.902,44.587-12.517,35.983,10.169
					c-7.822,19.556-15.645,39.894-22.685,59.449c-9.387-7.04-17.992-14.08-27.378-21.121c23.467-11.732,46.934-22.685,71.184-34.418
					C145.496,373.62,164.269,405.691,143.149,416.642L143.149,416.642z"/>
			</g>
		</g>
		<g>
			<g>
				<g>
					<path fill="#666666" d="M162.705,370.491c-90.739,0-90.739-141.585,0-141.585C253.444,229.689,253.444,370.491,162.705,370.491
						L162.705,370.491z"/>
				</g>
			</g>
			<g>
				<g>
					<path fill="#666666" d="M176.003,344.677c-25.032,77.44-37.547,156.447-38.33,238.581c0,32.071-50.063,32.071-50.063,0
						c0.782-86.046,14.08-169.745,39.894-251.879C137.673,300.872,185.39,314.17,176.003,344.677L176.003,344.677z"/>
				</g>
			</g>
			<g>
				<g>
					<path fill="#666666" d="M106.384,552.752c34.418,3.129,67.272,10.169,99.344,21.119c14.08,4.693,19.556,25.814,4.693,34.419
						c-28.16,15.646-57.103,28.16-87.61,39.895c-11.733,4.693-22.685-7.04-23.467-17.991c-0.782-10.951-2.347-21.901-6.258-32.071
						c-3.911-11.733,6.258-23.468,17.991-23.468c16.427,0,30.507,3.129,44.587,11.733c15.645,9.388,9.387,35.201-9.387,35.201
						c-7.822,0-15.645-0.782-23.467-3.911c-3.911-1.564-12.516-7.822-16.427-7.04c5.476-3.129,10.951-6.258,16.427-9.388
						c3.912-5.476,3.129,1.564,3.912,6.259c1.564,5.476,2.347,10.169,3.911,15.645c5.476,23.467-30.507,33.636-35.983,10.169
						c-3.911-15.645-15.645-40.677-1.564-53.975c16.427-15.646,35.201,4.692,52.41,5.476c-3.129,11.734-6.258,23.469-9.387,35.201
						c-8.604-4.693-16.427-7.04-25.814-6.258c6.258-7.822,11.733-15.646,17.992-23.468c3.911,14.081,6.258,28.161,7.04,42.24
						c-7.822-6.258-15.645-11.732-23.467-17.99c27.378-10.169,53.192-22.687,78.224-35.983c1.564,11.733,3.129,22.686,4.693,34.419
						c-28.943-10.169-58.667-16.427-89.957-19.556C82.917,587.951,82.917,550.405,106.384,552.752L106.384,552.752z"/>
				</g>
			</g>
		</g>
		<g>
			<g>
				<path d="M152.536,393.958c28.161,43.022,58.667,85.264,90.739,125.939c14.862,19.556-15.645,39.895-30.507,21.902
					c-32.071-40.677-61.796-82.917-90.739-125.94C108.73,395.522,139.238,373.62,152.536,393.958L152.536,393.958z"/>
			</g>
		</g>
		<g>
			<g>
				<g>
					<path d="M234.67,530.849c7.04,5.476,14.08,8.604,22.685,10.951c7.822,2.347,5.476,14.08-2.347,12.516
						c-10.169-3.129-20.338-7.04-28.16-14.08C219.808,535.543,227.63,526.938,234.67,530.849L234.67,530.849z"/>
				</g>
			</g>
			<g>
				<g>
					<path d="M250.315,544.147c7.04-10.951,17.991-20.338,31.29-17.209c12.516,3.129,24.25,13.298,23.467,26.596
						c-1.564,12.517-12.516,21.902-25.032,21.12c-14.863,0-25.032-11.732-30.507-24.249c-2.347-7.822,8.604-11.732,11.733-4.692
						c3.129,7.039,7.041,13.298,14.863,14.861c7.822,2.348,17.991-2.347,16.427-12.516c-0.782-7.04-11.733-13.298-18.773-10.951
						c-5.476,1.564-10.169,7.822-13.298,12.516C255.791,559.01,246.404,550.405,250.315,544.147L250.315,544.147z"/>
				</g>
			</g>
		</g>
	</g>
</g>
</svg>
