<?xml version="1.0" encoding="utf-8"?>
<!-- Generator: Adobe Illustrator 16.0.0, SVG Export Plug-In . SVG Version: 6.00 Build 0)  -->
<!DOCTYPE svg PUBLIC "-//W3C//DTD SVG 1.1//EN" "http://www.w3.org/Graphics/SVG/1.1/DTD/svg11.dtd">
<svg version="1.1" id="图层_1" xmlns="http://www.w3.org/2000/svg" xmlns:xlink="http://www.w3.org/1999/xlink" x="0px" y="0px"
	 width="525px" height="430px" viewBox="34.14 215.445 525 430" enable-background="new 34.14 215.445 525 430"
	 xml:space="preserve">
<g>
	<g>
		<g>
			<g>
				<path fill="#666666" d="M-474.034,1154.29c90.739,0,90.739-141.584,0-141.584
					C-565.556,1012.706-565.556,1154.29-474.034,1154.29L-474.034,1154.29z"/>
			</g>
		</g>
		<g>
			<g>
				<g>
					<path fill="#666666" d="M-624.223,1227.038c-9.387,0.782-17.991,0.782-27.378-0.782c-7.822-1.564-10.952,10.169-3.129,11.733
						c10.169,2.347,20.338,3.129,30.507,1.564C-615.618,1238.771-615.618,1226.256-624.223,1227.038L-624.223,1227.038z"/>
				</g>
			</g>
			<g>
				<g>
					<path fill="#666666" d="M-645.343,1231.731c-1.564-12.516-4.693-25.813-17.992-30.507
						c-11.733-3.911-27.378-0.782-33.636,10.951s-0.782,26.596,10.951,32.071c13.298,7.04,28.161,2.347,39.112-6.258
						c6.258-4.693-2.347-14.08-8.604-8.604c-6.258,4.693-14.081,8.604-21.903,5.476c-7.04-2.347-12.516-11.733-6.258-17.991
						c3.911-4.693,12.516-4.693,17.991-3.129c7.041,3.129,8.605,11.733,9.387,18.773
						C-657.077,1239.553-644.561,1239.553-645.343,1231.731L-645.343,1231.731z"/>
				</g>
			</g>
		</g>
		<g>
			<g>
				<path fill="#666666" d="M-472.47,1334.204c-29.725,16.427-57.103,36.765-82.134,60.231
					c-12.516,11.734-2.347,30.508,13.298,32.072c30.507,2.347,61.014,2.347,91.521,0.782c10.951-0.782,22.685-11.733,17.991-23.467
					c-3.911-10.169-7.04-21.12-8.604-32.072c-1.564-10.169-10.951-23.467-23.467-17.991c-17.209,7.04-28.943,16.427-39.894,31.289
					c-11.733,16.428,10.169,32.854,25.813,25.814c6.258-3.129,11.734-6.258,17.209-10.951c4.693-3.911,8.604-11.734,13.298-14.863
					c-4.693,0.783-9.387,1.564-14.08,1.564c0.782,0.783,2.347,0.783,3.129,1.564c-4.693-4.693-8.604-8.604-13.298-13.298
					c3.912,10.952,4.694,22.686,6.258,33.637c3.911,23.467,39.894,13.298,35.982-10.169c-3.129-16.428-1.564-43.806-22.685-48.499
					c-20.338-3.911-28.943,20.339-45.37,28.161c8.604,8.604,17.209,17.209,25.813,25.813c4.693-6.258,10.169-10.951,17.209-14.08
					c-7.822-6.259-15.645-11.733-23.467-17.992c1.564,14.862,4.693,28.161,9.387,41.459c6.258-7.822,11.734-15.645,17.992-23.467
					c-30.507,1.564-61.014,1.564-91.521-0.782c4.693,10.951,8.604,21.12,13.298,32.071c22.685-21.12,47.716-39.112,74.313-53.974
					C-432.576,1354.542-451.349,1322.47-472.47,1334.204L-472.47,1334.204z"/>
			</g>
		</g>
		<g>
			<g>
				<path fill="#666666" d="M-500.63,1150.379c5.476,70.401,7.822,140.803,5.476,211.203c-0.782,32.072,48.499,32.072,50.063,0
					c2.347-70.4,0.782-140.802-5.476-211.203C-452.914,1119.09-502.977,1119.09-500.63,1150.379L-500.63,1150.379z"/>
			</g>
		</g>
		<g>
			<g>
				<path fill="#666666" d="M-477.163,1195.748c23.467,25.032,51.627,45.37,82.917,58.668c9.387,3.911,25.813,2.347,27.378-10.951
					c3.911-30.507,0-58.668-14.081-86.046c-10.951-21.12-43.023-2.347-32.071,18.773c8.604,17.21,12.516,37.548,10.169,57.104
					c9.387-3.911,17.991-7.822,27.378-10.951c-28.942-12.516-53.974-29.726-75.876-53.192
					C-466.994,1151.943-493.59,1177.757-477.163,1195.748L-477.163,1195.748z"/>
			</g>
		</g>
		<g>
			<g>
				<path fill="#666666" d="M-479.51,1171.499c-45.37,14.081-92.304,39.112-139.237,48.499
					c-23.467,4.693-13.298,40.676,10.169,35.982c46.934-8.604,93.086-33.636,139.238-48.498
					C-446.656,1200.442-456.042,1164.459-479.51,1171.499L-479.51,1171.499z"/>
			</g>
		</g>
	</g>
	<g>
		<line fill="none" stroke="#000000" stroke-miterlimit="10" x1="-695.406" y1="1466.401" x2="-155.665" y2="1466.401"/>
		<line fill="none" stroke="#000000" stroke-miterlimit="10" x1="-689.931" y1="1463.272" x2="-713.397" y2="1549.318"/>
		
			<line fill="none" stroke="#000000" stroke-width="0.5" stroke-miterlimit="10" x1="-371.562" y1="1469.53" x2="-371.562" y2="1557.14"/>
	</g>
</g>
<g>
	<g>
		<g>
			<g>
				<path fill="#666666" d="M621.093,1105.792c90.74,0,90.74-141.585,0-141.585C530.355,964.207,530.355,1105.792,621.093,1105.792
					L621.093,1105.792z"/>
			</g>
		</g>
		<g>
			<g>
				<path fill="#666666" d="M623.441,1286.488c-29.725,16.427-57.104,36.765-82.135,60.231
					c-12.516,11.733-2.348,30.507,13.299,32.071c30.506,2.348,61.014,2.348,91.52,0.783c10.953-0.783,22.686-11.734,17.992-23.468
					c-3.91-10.169-7.039-21.12-8.604-32.071c-1.564-10.169-10.951-23.467-23.469-17.991c-17.209,7.04-28.941,16.427-39.893,31.289
					c-11.734,16.427,10.168,32.854,25.813,25.813c6.258-3.129,11.734-6.258,17.209-10.951c4.693-3.911,8.605-11.733,13.299-14.862
					c-4.693,0.782-9.387,1.564-14.08,1.564c0.781,0.782,2.346,0.782,3.129,1.564c-4.693-4.693-8.605-8.604-13.299-13.298
					c3.912,10.951,4.693,22.685,6.258,33.636c3.912,23.468,39.895,13.298,35.984-10.169c-3.129-16.427-1.564-43.805-22.686-48.498
					c-20.338-3.911-28.943,20.338-45.369,28.16c8.604,8.604,17.209,17.209,25.813,25.813c4.693-6.258,10.17-10.951,17.209-14.08
					c-7.822-6.258-15.645-11.733-23.467-17.991c1.564,14.862,4.693,28.16,9.387,41.459c6.258-7.823,11.734-15.646,17.992-23.468
					c-30.508,1.564-61.014,1.564-91.521-0.782c4.693,10.951,8.605,21.12,13.299,32.072c22.684-21.121,47.715-39.112,74.311-53.975
					C663.335,1306.826,644.562,1274.754,623.441,1286.488L623.441,1286.488z"/>
			</g>
		</g>
		<g>
			<g>
				<path d="M606.232,1113.614c-37.547,4.693-75.877,9.387-112.643,17.209c-10.951,2.347-17.99,17.991-10.951,27.378
					c17.209,22.685,33.637,39.895,61.016,50.063c22.684,8.604,32.07-27.379,10.168-35.983c-17.209-6.258-28.16-18.773-38.33-32.854
					c-3.91,9.387-7.822,17.991-10.951,27.378c33.637-7.822,68.838-11.733,103.256-15.645
					C629.699,1148.814,629.699,1111.267,606.232,1113.614L606.232,1113.614z"/>
			</g>
		</g>
		<g>
			<g>
				<path fill="#666666" d="M595.281,1102.663c5.475,70.4,7.822,140.802,5.475,211.203c-0.781,32.071,48.5,32.071,50.064,0
					c2.346-70.401,0.781-140.803-5.477-211.203C642.214,1070.591,592.933,1070.591,595.281,1102.663L595.281,1102.663z"/>
			</g>
		</g>
		<g>
			<g>
				<g>
					<path d="M542.871,1197.312c9.387-0.781,17.992-0.781,27.379,0.783c7.822,1.564,10.951-10.17,3.129-11.734
						c-10.17-2.347-20.338-3.129-30.508-1.564C535.048,1185.579,535.048,1198.095,542.871,1197.312L542.871,1197.312z"/>
				</g>
			</g>
			<g>
				<g>
					<path d="M564.773,1192.619c1.564,12.517,4.693,25.814,17.992,30.508c11.732,3.911,27.377,0.782,33.635-10.951
						s0.783-26.596-10.951-32.072c-13.297-7.04-28.16-2.347-39.111,6.258c-6.258,4.693,2.348,14.081,8.605,8.605
						c6.258-4.693,14.08-8.605,21.902-5.476c7.039,2.347,12.516,11.733,6.258,17.991c-3.912,4.693-12.516,4.693-17.992,3.129
						c-7.039-3.129-8.604-11.733-9.387-18.773C575.724,1184.797,563.208,1184.797,564.773,1192.619L564.773,1192.619z"/>
				</g>
			</g>
		</g>
		<g>
			<g>
				<path fill="#666666" d="M635.957,1155.854c29.725,7.822,59.449,14.862,89.957,20.339c19.557,3.91,27.379-18.774,12.516-30.508
					c-12.516-9.387-19.557-24.249-32.854-33.636c-17.209-12.516-33.637,15.645-16.428,28.942
					c12.516,9.387,19.557,24.249,32.854,33.637c3.912-10.17,8.605-20.339,12.516-30.508c-30.506-5.476-60.23-12.516-89.955-20.338
					C624.222,1118.307,615.619,1150.379,635.957,1155.854L635.957,1155.854z"/>
			</g>
		</g>
	</g>
	<g>
		<line fill="none" stroke="#000000" stroke-miterlimit="10" x1="754.074" y1="1425.725" x2="214.332" y2="1425.725"/>
		<line fill="none" stroke="#000000" stroke-miterlimit="10" x1="748.599" y1="1422.596" x2="772.066" y2="1508.642"/>
		
			<line fill="none" stroke="#000000" stroke-width="0.5" stroke-miterlimit="10" x1="430.228" y1="1428.854" x2="430.228" y2="1516.465"/>
	</g>
</g>
<g>
	<g>
		<line fill="none" stroke="#000000" stroke-miterlimit="10" x1="1573.074" y1="1306.044" x2="1033.332" y2="1306.044"/>
		<line fill="none" stroke="#000000" stroke-miterlimit="10" x1="1567.597" y1="1309.173" x2="1591.064" y2="1223.127"/>
		
			<line fill="none" stroke="#000000" stroke-width="0.5" stroke-miterlimit="10" x1="1249.228" y1="1302.915" x2="1249.228" y2="1215.304"/>
	</g>
	<g>
		<g>
			<g>
				<path fill="#666666" d="M1379.08,1362.364c90.738,0,90.738-141.584,0-141.584
					C1288.339,1221.562,1287.558,1362.364,1379.08,1362.364L1379.08,1362.364z"/>
			</g>
		</g>
		<g>
			<g>
				<g>
					<path fill="#666666" d="M1528.486,1448.41c10.17,1.564,20.338,0.782,30.508-1.564c7.822-1.564,4.693-14.08-3.129-11.733
						c-9.387,1.564-17.992,2.347-27.379,0.782C1520.664,1434.33,1520.664,1446.845,1528.486,1448.41L1528.486,1448.41z"/>
				</g>
			</g>
			<g>
				<g>
					<path fill="#666666" d="M1562.123,1440.588c0.781-7.04,1.564-15.645,9.387-18.773c5.475-2.347,14.08-1.564,17.99,3.129
						c6.258,6.258,0.783,15.645-6.258,17.991c-7.822,3.129-16.426-0.782-21.902-5.476c-6.258-4.693-14.861,3.911-8.604,8.604
						c10.951,8.604,25.031,13.298,38.328,7.04c11.734-5.476,17.992-20.338,11.734-32.854c-6.258-10.951-21.121-14.08-32.854-10.951
						c-14.08,3.911-17.992,17.991-19.557,30.507C1548.824,1448.41,1561.339,1448.41,1562.123,1440.588L1562.123,1440.588z"/>
				</g>
			</g>
		</g>
		<g>
			<g>
				<path fill="#666666" d="M1357.958,1575.132c26.596,15.646,51.627,32.854,74.313,53.975c4.693-10.951,8.605-21.12,13.299-32.071
					c-30.508,2.346-61.016,2.346-91.521,0.781c6.258,7.823,11.732,15.646,17.99,23.468c5.477-14.08,7.822-27.378,9.387-41.459
					c-7.822,6.258-15.645,11.733-23.467,17.991c7.041,3.129,13.299,7.823,17.209,14.081c8.605-8.604,17.209-17.209,25.814-25.814
					c-15.645-7.822-25.031-32.071-45.369-28.16c-21.121,4.693-20.338,31.289-22.686,48.499
					c-3.91,23.467,32.072,33.636,35.982,10.169c1.564-10.951,3.129-23.468,6.258-33.637c-4.693,4.693-8.604,8.604-13.297,13.298
					c0.781-0.782,2.346-0.782,3.129-1.564c-4.693-0.782-9.387-1.564-14.08-1.564c5.475,3.129,9.387,10.951,13.297,14.863
					c5.477,4.693,10.951,7.822,17.209,10.951c14.863,7.04,37.547-8.605,25.814-25.814c-10.951-14.862-22.686-24.249-39.895-31.289
					c-12.516-5.476-22.684,7.822-23.467,17.991c-1.564,10.951-4.693,21.12-8.604,32.072c-4.695,11.733,7.039,22.685,17.99,23.467
					c30.508,1.564,61.014,1.564,91.521-0.782c14.863-0.782,25.814-20.338,13.299-32.072c-25.031-23.467-52.41-43.022-82.135-60.231
					C1355.613,1531.327,1336.839,1563.398,1357.958,1575.132L1357.958,1575.132z"/>
			</g>
		</g>
		<g>
			<g>
				<path fill="#666666" d="M1354.83,1359.235c-5.475,70.401-7.822,140.803-5.475,211.203c0.781,32.072,50.844,32.072,50.063,0
					c-2.348-70.4-0.783-140.802,5.475-211.203C1407.24,1327.164,1357.958,1327.946,1354.83,1359.235L1354.83,1359.235z"/>
			</g>
		</g>
		<g>
			<g>
				<path fill="#666666" d="M1354.83,1378.009c-21.119,23.468-46.152,40.677-75.877,53.192c9.387,3.911,17.992,7.822,27.379,10.951
					c-2.348-19.556,1.564-39.111,10.168-57.104c10.951-21.12-21.119-40.676-32.07-18.773c-14.08,27.379-17.992,55.539-14.08,86.046
					c1.564,13.298,17.99,14.862,27.377,10.951c31.289-13.298,59.451-33.636,82.918-58.667
					C1397.853,1386.613,1371.257,1360.017,1354.83,1378.009L1354.83,1378.009z"/>
			</g>
		</g>
		<g>
			<g>
				<path fill="#666666" d="M1373.603,1416.339c45.369,14.08,92.305,39.111,139.238,48.498c23.467,4.693,33.637-31.289,10.17-35.982
					c-46.936-8.604-93.086-33.637-139.238-48.499C1361.087,1373.315,1350.919,1409.299,1373.603,1416.339L1373.603,1416.339z"/>
			</g>
		</g>
	</g>
</g>
<g>
	<g>
		<line fill="none" stroke="#000000" stroke-miterlimit="10" x1="536.613" y1="421.336" x2="41.458" y2="421.336"/>
		<line fill="none" stroke="#000000" stroke-miterlimit="10" x1="531.136" y1="424.466" x2="554.605" y2="338.42"/>
		
			<line fill="none" stroke="#000000" stroke-width="0.5" stroke-miterlimit="10" x1="212.768" y1="418.207" x2="212.768" y2="330.597"/>
	</g>
	<g>
		<g>
			<g>
				<path fill="#B3B3B3" d="M385.642,392.393c16.426,9.387,30.506,21.902,42.24,36.766c4.693,5.476,8.604,11.733,11.732,17.991
					c1.564,3.911,2.348,7.04,2.348,8.604c-1.564,24.249,35.982,24.249,37.547,0c0.783-16.427-10.168-33.636-19.555-46.152
					c-14.863-20.338-33.637-36.765-55.539-49.28C383.294,347.806,364.521,380.66,385.642,392.393L385.642,392.393z"/>
			</g>
		</g>
		<g>
			<g>
				<path fill="#B3B3B3" d="M382.513,482.35c25.031-5.476,50.063-2.347,75.094-8.604c23.467-5.476,13.299-41.458-10.168-35.982
					c-25.033,5.476-50.064,2.347-75.096,8.604C349.66,451.844,359.046,487.826,382.513,482.35L382.513,482.35z"/>
			</g>
		</g>
		<g>
			<g>
				<g>
					<path fill="#666666" d="M365.304,362.669c90.738,0,90.738-141.585,0-141.585C274.564,221.084,274.564,362.669,365.304,362.669
						L365.304,362.669z"/>
				</g>
			</g>
			<g>
				<g>
					<path fill="#666666" d="M352.005,336.855c25.031,77.44,37.547,156.446,38.33,238.581c0,32.072,50.063,32.072,50.063,0
						c-0.783-86.046-14.08-169.745-39.895-251.879C390.335,293.05,342.619,306.347,352.005,336.855L352.005,336.855z"/>
				</g>
			</g>
			<g>
				<g>
					<path fill="#666666" d="M421.625,544.929c-34.418,3.129-67.271,10.169-99.344,21.12c-14.08,4.693-19.557,25.813-4.693,34.419
						c28.16,15.645,57.104,28.16,87.609,39.894c11.734,4.693,22.686-7.04,23.467-17.991c0.783-10.951,2.348-21.902,6.258-32.072
						c3.912-11.733-6.258-23.467-17.99-23.467c-16.428,0-30.508,3.129-44.588,11.733c-15.645,9.387-9.387,35.201,9.387,35.201
						c7.822,0,15.645-0.782,23.467-3.911c3.912-1.564,12.516-7.822,16.428-7.04c-5.477-3.129-10.951-6.258-16.428-9.388
						c-3.91-5.476-3.129,1.564-3.91,6.259c-1.564,5.476-2.348,10.169-3.912,15.645c-5.475,23.467,30.508,33.636,35.982,10.169
						c3.912-15.645,15.646-40.677,1.564-53.975c-16.426-15.645-35.199,4.693-52.408,5.476c3.129,11.733,6.258,23.468,9.387,35.201
						c8.604-4.693,16.426-7.04,25.813-6.258c-6.258-7.822-11.732-15.646-17.99-23.468c-3.912,14.081-6.258,28.161-7.041,42.241
						c7.822-6.258,15.645-11.733,23.467-17.991c-27.377-10.169-53.191-22.686-78.223-35.983
						c-1.564,11.733-3.129,22.686-4.693,34.419c28.943-10.169,58.668-16.428,89.957-19.557
						C445.091,580.13,445.091,542.583,421.625,544.929L421.625,544.929z"/>
				</g>
			</g>
		</g>
		<g>
			<g>
				<path fill="#666666" d="M384.859,366.58c-9.387,9.387-19.555,18.773-25.031,31.289c-1.564,3.129-2.346,5.476-3.129,8.604
					c-0.781,1.564-0.781,3.911-1.564,5.476c-1.564,5.476,0,3.129,5.477-7.04c-0.783-0.782-13.299-0.782-14.863-1.564
					c-4.693-0.782-9.387-2.347-14.08-3.911c-21.902-7.04-31.289,27.379-9.387,34.419c16.426,5.476,50.846,14.08,63.361-3.129
					c4.693-6.258,4.693-14.863,7.822-21.903c3.91-7.04,10.951-12.516,16.426-17.991C427.099,375.184,401.287,350.153,384.859,366.58
					L384.859,366.58z"/>
			</g>
		</g>
		<g>
			<g>
				<g>
					<path fill="#B3B3B3" d="M378.601,458.884c-10.951,1.564-21.119,3.911-30.506,9.387c-7.041,3.911-0.783,14.08,6.258,10.951
						c7.822-3.911,15.645-6.258,24.248-7.822C386.423,469.835,386.423,457.319,378.601,458.884L378.601,458.884z"/>
				</g>
			</g>
			<g>
				<g>
					<path fill="#B3B3B3" d="M345.748,472.964c0.783,7.04,2.348,15.645-3.129,20.338c-4.693,4.693-15.645,7.041-21.121,2.347
						c-5.475-4.693-3.129-13.298,1.564-17.209c7.041-5.476,16.428-4.693,24.25-0.782c7.041,3.129,13.299-7.04,6.258-10.951
						c-12.516-5.476-27.379-7.04-38.33,2.347c-9.387,7.822-12.516,22.685-4.693,32.854c7.041,10.17,21.902,10.952,32.854,6.259
						c14.863-6.259,16.428-20.339,14.863-34.419C357.482,465.141,344.964,465.141,345.748,472.964L345.748,472.964z"/>
				</g>
			</g>
		</g>
		<path fill="none" stroke="#333333" stroke-width="1.5929" stroke-miterlimit="10" d="M508.453,458.884"/>
	</g>
</g>
<g>
	<g>
		<line fill="none" stroke="#000000" stroke-miterlimit="10" x1="1920.384" y1="731.101" x2="2460.126" y2="731.101"/>
		<line fill="none" stroke="#000000" stroke-miterlimit="10" x1="1925.861" y1="734.23" x2="1902.394" y2="648.184"/>
		
			<line fill="none" stroke="#000000" stroke-width="0.5" stroke-miterlimit="10" x1="2244.23" y1="727.972" x2="2244.23" y2="640.362"/>
	</g>
	<g>
		<g>
			<g>
				<path fill="#666666" d="M2037.72,807.76c90.74,0,90.74-141.585,0-141.585C1946.982,666.958,1946.199,807.76,2037.72,807.76
					L2037.72,807.76z"/>
			</g>
		</g>
		<g>
			<g>
				<path fill="#666666" d="M2016.599,1020.528c26.598,15.645,51.629,32.854,74.313,53.974c4.693-10.951,8.605-21.12,13.299-32.071
					c-30.508,2.347-61.014,2.347-91.521,0.782c6.258,7.822,11.732,15.645,17.99,23.467c5.477-14.08,7.822-27.378,9.389-41.458
					c-7.822,6.258-15.646,11.733-23.469,17.991c7.041,3.129,13.299,7.822,17.211,14.08c8.604-8.604,17.209-17.209,25.813-25.813
					c-15.645-7.822-25.031-32.071-45.369-28.16c-21.121,4.693-20.338,31.289-22.686,48.498
					c-3.91,23.467,32.072,33.636,35.984,10.169c1.564-10.951,3.129-23.467,6.258-33.636c-4.693,4.693-8.605,8.604-13.299,13.298
					c0.781-0.782,2.346-0.782,3.129-1.564c-4.693-0.782-9.387-1.564-14.08-1.564c5.475,3.129,9.387,10.951,13.299,14.862
					c5.475,4.693,10.951,7.822,17.209,10.951c14.861,7.04,37.547-8.604,25.813-25.813c-10.951-14.862-22.684-24.249-39.893-31.289
					c-12.518-5.476-22.686,7.822-23.469,17.991c-1.564,10.951-4.693,21.12-8.604,32.071c-4.693,11.733,7.039,22.685,17.99,23.467
					c30.508,1.564,61.016,1.564,91.521-0.782c14.863-0.782,25.814-20.338,13.299-32.071c-25.031-23.467-52.41-43.022-82.135-60.231
					C2014.253,976.722,1995.48,1008.795,2016.599,1020.528L2016.599,1020.528z"/>
			</g>
		</g>
		<g>
			<g>
				<path fill="#B3B3B3" d="M2053.365,853.13c34.418,3.911,68.836,8.604,103.256,15.645c-3.912-9.387-7.822-17.991-10.951-27.378
					c-10.951,14.08-21.121,26.596-38.33,32.854c-22.686,8.604-12.516,44.588,10.17,35.983
					c27.377-10.169,43.805-27.379,61.014-50.063c7.039-9.387,0-25.031-10.951-27.378c-36.766-7.822-75.096-12.516-112.643-17.209
					C2029.117,813.236,2029.117,850.783,2053.365,853.13L2053.365,853.13z"/>
			</g>
		</g>
		<g>
			<g>
				<g>
					<path fill="#B3B3B3" d="M2115.945,886.765c-10.17-1.564-20.34-0.782-30.508,1.564c-7.822,1.564-4.693,14.081,3.129,11.734
						c9.387-1.564,17.99-2.348,27.379-0.783C2123.767,900.064,2123.767,888.33,2115.945,886.765L2115.945,886.765z"/>
				</g>
			</g>
			<g>
				<g>
					<path fill="#B3B3B3" d="M2082.308,894.588c-0.783,7.041-1.564,15.646-9.387,18.774c-5.477,2.347-14.08,1.564-17.992-3.129
						c-6.258-6.258-0.781-15.646,6.258-17.992c7.822-3.129,16.428,0.782,21.902,5.476c6.258,4.693,14.863-3.911,8.605-8.604
						c-10.951-8.604-25.031-13.298-38.33-7.04c-11.732,5.476-17.99,20.338-11.732,32.854c6.258,10.951,21.119,14.08,32.854,10.951
						c14.08-3.911,17.99-17.991,19.555-30.508C2095.605,886.765,2083.089,886.765,2082.308,894.588L2082.308,894.588z"/>
				</g>
			</g>
		</g>
		<g>
			<g>
				<path fill="#666666" d="M2013.47,804.632c-5.475,70.4-7.822,140.802-5.475,211.203c0.781,32.071,50.846,32.071,50.063,0
					c-2.346-70.401-0.781-140.803,5.477-211.203C2065.88,772.559,2016.599,772.559,2013.47,804.632L2013.47,804.632z"/>
			</g>
		</g>
		<g>
			<g>
				<path fill="#666666" d="M2014.253,825.752c-29.725,7.822-59.449,14.862-89.957,20.338c3.912,10.169,8.605,20.338,12.516,30.507
					c12.516-9.387,20.338-24.249,32.854-33.636c17.209-12.516,0-41.458-16.426-28.942c-12.516,9.387-20.338,24.249-32.855,33.636
					c-14.861,10.951-6.258,34.418,12.518,30.507c30.506-5.476,60.23-12.516,89.957-20.338
					C2043.197,852.347,2034.591,820.276,2014.253,825.752L2014.253,825.752z"/>
			</g>
		</g>
	</g>
</g>
<g>
	<g>
		<line fill="none" stroke="#000000" stroke-miterlimit="10" x1="182.261" y1="-689.437" x2="484.986" y2="-689.437"/>
		<line fill="none" stroke="#000000" stroke-miterlimit="10" x1="187.736" y1="-686.308" x2="164.269" y2="-772.354"/>
	</g>
	<g>
		<g>
			<g>
				<path fill="#666666" d="M76.659-569.754c-23.467,11.733-46.934,22.685-71.184,34.418c-13.298,6.258-33.636-4.693-27.378-21.12
					c7.822-19.556,15.645-39.895,22.685-59.45c8.604-21.902,44.587-12.516,35.983,10.169c-7.822,19.556-15.645,39.895-22.685,59.45
					c-9.387-7.04-17.991-14.08-27.378-21.12c23.467-11.733,46.934-22.686,71.183-34.419
					C79.006-612.778,97.779-580.706,76.659-569.754L76.659-569.754z"/>
			</g>
		</g>
		<g>
			<g>
				<g>
					<path fill="#666666" d="M96.215-615.906c-90.739,0-90.739-141.584,0-141.584C186.954-756.708,186.954-615.906,96.215-615.906
						L96.215-615.906z"/>
				</g>
			</g>
			<g>
				<g>
					<path fill="#666666" d="M109.513-641.72c-25.031,77.441-37.547,156.446-38.33,238.581c0,32.072-50.063,32.072-50.063,0
						c0.782-86.046,14.081-169.744,39.894-251.879C71.183-685.526,118.899-672.227,109.513-641.72L109.513-641.72z"/>
				</g>
			</g>
			<g>
				<g>
					<path fill="#666666" d="M39.894-433.646c34.418,3.129,67.272,10.169,99.344,21.12c14.08,4.693,19.556,25.813,4.693,34.418
						c-28.161,15.646-57.103,28.161-87.61,39.895c-11.733,4.693-22.685-7.04-23.467-17.991s-2.347-21.903-6.258-32.072
						c-3.912-11.733,6.258-23.467,17.991-23.467c16.427,0,30.507,3.129,44.587,11.733c15.645,9.387,9.387,35.201-9.387,35.201
						c-7.823,0-15.645-0.782-23.467-3.911c-3.911-1.564-12.516-7.823-16.427-7.041c5.476-3.129,10.951-6.258,16.427-9.387
						c3.911-5.476,3.129,1.564,3.911,6.258c1.564,5.476,2.347,10.17,3.911,15.646c5.476,23.467-30.507,33.636-35.982,10.169
						c-3.912-15.645-15.645-40.677-1.564-53.975c16.427-15.645,35.2,4.693,52.41,5.476c-3.129,11.733-6.258,23.467-9.387,35.201
						c-8.604-4.694-16.427-7.041-25.813-6.259c6.258-7.822,11.733-15.645,17.991-23.467c3.911,14.08,6.258,28.161,7.04,42.241
						c-7.822-6.258-15.645-11.733-23.467-17.991c27.378-10.17,53.192-22.686,78.223-35.983c1.565,11.733,3.129,22.685,4.694,34.419
						c-28.943-10.17-58.668-16.428-89.957-19.557C16.427-398.446,16.427-435.992,39.894-433.646L39.894-433.646z"/>
				</g>
			</g>
		</g>
		<g>
			<g>
				<path d="M86.046-592.44c28.16,43.023,58.667,85.264,90.739,125.94c14.862,19.556-15.645,39.894-30.507,21.902
					c-32.072-40.677-61.796-82.917-90.739-125.939C42.241-590.875,72.748-612.778,86.046-592.44L86.046-592.44z"/>
			</g>
		</g>
		<g>
			<g>
				<g>
					<path d="M168.18-455.548c7.041,5.476,14.081,8.604,22.685,10.951c7.822,2.347,5.476,14.08-2.347,12.516
						c-10.169-3.129-20.338-7.04-28.161-14.08C153.318-450.855,161.14-459.459,168.18-455.548L168.18-455.548z"/>
				</g>
			</g>
			<g>
				<g>
					<path d="M183.825-442.25c7.04-10.951,17.991-20.338,31.289-17.209c12.516,3.129,24.25,13.298,23.467,26.596
						c-1.564,12.516-12.516,21.902-25.032,21.12c-14.862,0-25.031-11.733-30.507-24.249c-2.347-7.822,8.604-11.733,11.733-4.693
						s7.04,13.298,14.862,14.862c7.822,2.347,17.992-2.347,16.427-12.516c-0.782-7.04-11.734-13.298-18.774-10.951
						c-5.476,1.564-10.169,7.822-13.298,12.516C189.301-427.388,179.914-435.992,183.825-442.25L183.825-442.25z"/>
				</g>
			</g>
		</g>
	</g>
</g>
</svg>
