<?xml version="1.0" encoding="utf-8"?>
<!-- Generator: Adobe Illustrator 16.0.0, SVG Export Plug-In . SVG Version: 6.00 Build 0)  -->
<!DOCTYPE svg PUBLIC "-//W3C//DTD SVG 1.1//EN" "http://www.w3.org/Graphics/SVG/1.1/DTD/svg11.dtd">
<svg version="1.1" id="图层_1" xmlns="http://www.w3.org/2000/svg" xmlns:xlink="http://www.w3.org/1999/xlink" x="0px" y="0px"
	 width="595.281px" height="469px" viewBox="0 231.446 595.281 469" enable-background="new 0 231.446 595.281 469"
	 xml:space="preserve">
<g>
	<g>
		<g>
			<g>
				<path fill="#666666" d="M-474.034,1154.29c90.739,0,90.739-141.584,0-141.584
					C-565.556,1012.705-565.556,1154.29-474.034,1154.29L-474.034,1154.29z"/>
			</g>
		</g>
		<g>
			<g>
				<g>
					<path fill="#666666" d="M-624.223,1227.037c-9.387,0.782-17.991,0.782-27.378-0.781c-7.822-1.564-10.952,10.169-3.129,11.732
						c10.169,2.348,20.338,3.129,30.507,1.564C-615.618,1238.771-615.618,1226.256-624.223,1227.037L-624.223,1227.037z"/>
				</g>
			</g>
			<g>
				<g>
					<path fill="#666666" d="M-645.343,1231.731c-1.564-12.516-4.693-25.813-17.992-30.507
						c-11.733-3.911-27.378-0.782-33.636,10.951c-6.258,11.732-0.782,26.596,10.951,32.07c13.298,7.041,28.161,2.348,39.112-6.258
						c6.258-4.692-2.347-14.08-8.604-8.604c-6.258,4.692-14.081,8.604-21.903,5.476c-7.04-2.347-12.516-11.733-6.258-17.991
						c3.911-4.692,12.516-4.692,17.991-3.129c7.041,3.129,8.605,11.733,9.387,18.773
						C-657.077,1239.553-644.561,1239.553-645.343,1231.731L-645.343,1231.731z"/>
				</g>
			</g>
		</g>
		<g>
			<g>
				<path fill="#666666" d="M-472.47,1334.203c-29.725,16.428-57.103,36.766-82.134,60.231
					c-12.516,11.734-2.347,30.508,13.298,32.072c30.507,2.347,61.014,2.347,91.521,0.781c10.951-0.781,22.685-11.732,17.991-23.467
					c-3.911-10.169-7.04-21.12-8.604-32.072c-1.564-10.169-10.951-23.467-23.467-17.99c-17.209,7.04-28.943,16.427-39.894,31.289
					c-11.733,16.428,10.169,32.854,25.813,25.813c6.258-3.129,11.734-6.258,17.209-10.951c4.693-3.911,8.604-11.733,13.298-14.863
					c-4.693,0.783-9.387,1.564-14.08,1.564c0.782,0.783,2.347,0.783,3.129,1.563c-4.693-4.692-8.604-8.604-13.298-13.298
					c3.912,10.952,4.694,22.687,6.258,33.638c3.911,23.467,39.894,13.298,35.982-10.17c-3.129-16.428-1.564-43.806-22.685-48.498
					c-20.338-3.911-28.943,20.339-45.37,28.16c8.604,8.604,17.209,17.209,25.813,25.813c4.693-6.258,10.169-10.951,17.209-14.08
					c-7.822-6.259-15.645-11.733-23.467-17.992c1.564,14.862,4.693,28.161,9.387,41.459c6.258-7.821,11.734-15.645,17.992-23.467
					c-30.507,1.563-61.014,1.563-91.521-0.782c4.693,10.951,8.604,21.12,13.298,32.071c22.685-21.12,47.716-39.112,74.313-53.974
					C-432.576,1354.542-451.349,1322.47-472.47,1334.203L-472.47,1334.203z"/>
			</g>
		</g>
		<g>
			<g>
				<path fill="#666666" d="M-500.63,1150.379c5.476,70.4,7.822,140.803,5.476,211.202c-0.782,32.072,48.499,32.072,50.063,0
					c2.347-70.399,0.782-140.802-5.476-211.202C-452.914,1119.09-502.977,1119.09-500.63,1150.379L-500.63,1150.379z"/>
			</g>
		</g>
		<g>
			<g>
				<path fill="#666666" d="M-477.163,1195.747c23.467,25.032,51.627,45.37,82.917,58.668c9.387,3.911,25.813,2.348,27.378-10.95
					c3.911-30.507,0-58.668-14.081-86.046c-10.951-21.12-43.023-2.348-32.071,18.772c8.604,17.21,12.516,37.548,10.169,57.104
					c9.387-3.911,17.991-7.822,27.378-10.951c-28.942-12.517-53.974-29.727-75.876-53.192
					C-466.994,1151.943-493.59,1177.757-477.163,1195.747L-477.163,1195.747z"/>
			</g>
		</g>
		<g>
			<g>
				<path fill="#666666" d="M-479.51,1171.499c-45.37,14.08-92.304,39.111-139.237,48.498
					c-23.467,4.693-13.298,40.677,10.169,35.982c46.934-8.604,93.086-33.636,139.238-48.498
					C-446.656,1200.442-456.042,1164.458-479.51,1171.499L-479.51,1171.499z"/>
			</g>
		</g>
	</g>
	<g>
		<line fill="none" stroke="#000000" stroke-miterlimit="10" x1="-695.406" y1="1466.401" x2="-155.665" y2="1466.401"/>
		<line fill="none" stroke="#000000" stroke-miterlimit="10" x1="-689.931" y1="1463.272" x2="-713.397" y2="1549.318"/>
		
			<line fill="none" stroke="#000000" stroke-width="0.5" stroke-miterlimit="10" x1="-371.562" y1="1469.53" x2="-371.562" y2="1557.14"/>
	</g>
</g>
<g>
	<g>
		<g>
			<g>
				<path fill="#666666" d="M621.093,1105.792c90.74,0,90.74-141.586,0-141.586C530.354,964.206,530.354,1105.792,621.093,1105.792
					L621.093,1105.792z"/>
			</g>
		</g>
		<g>
			<g>
				<path fill="#666666" d="M623.441,1286.488c-29.726,16.428-57.104,36.766-82.136,60.231
					c-12.516,11.732-2.348,30.507,13.299,32.071c30.507,2.348,61.015,2.348,91.521,0.782c10.953-0.782,22.686-11.733,17.992-23.468
					c-3.91-10.169-7.039-21.12-8.604-32.071c-1.563-10.169-10.951-23.467-23.469-17.991c-17.209,7.041-28.941,16.428-39.893,31.289
					c-11.734,16.428,10.168,32.854,25.813,25.813c6.258-3.129,11.734-6.258,17.209-10.951c4.693-3.911,8.605-11.733,13.299-14.862
					c-4.692,0.782-9.387,1.564-14.08,1.564c0.781,0.781,2.347,0.781,3.129,1.563c-4.692-4.692-8.604-8.604-13.299-13.298
					c3.912,10.951,4.693,22.686,6.258,33.636c3.912,23.469,39.896,13.298,35.984-10.169c-3.129-16.427-1.563-43.805-22.686-48.498
					c-20.338-3.91-28.943,20.338-45.369,28.16c8.604,8.604,17.209,17.209,25.813,25.813c4.693-6.259,10.17-10.951,17.209-14.08
					c-7.821-6.258-15.645-11.733-23.467-17.991c1.564,14.862,4.693,28.16,9.387,41.459c6.259-7.823,11.734-15.646,17.992-23.468
					c-30.508,1.563-61.014,1.563-91.521-0.782c4.692,10.951,8.604,21.12,13.299,32.072c22.684-21.121,47.715-39.112,74.311-53.975
					C663.335,1306.825,644.562,1274.754,623.441,1286.488L623.441,1286.488z"/>
			</g>
		</g>
		<g>
			<g>
				<path d="M606.232,1113.614c-37.548,4.693-75.878,9.388-112.644,17.209c-10.951,2.348-17.99,17.991-10.951,27.378
					c17.209,22.686,33.638,39.896,61.017,50.063c22.684,8.604,32.069-27.379,10.168-35.983c-17.209-6.258-28.16-18.772-38.33-32.854
					c-3.91,9.387-7.822,17.99-10.951,27.378c33.637-7.822,68.838-11.733,103.256-15.646
					C629.699,1148.814,629.699,1111.267,606.232,1113.614L606.232,1113.614z"/>
			</g>
		</g>
		<g>
			<g>
				<path fill="#666666" d="M595.281,1102.662c5.475,70.4,7.821,140.803,5.475,211.203c-0.781,32.071,48.5,32.071,50.064,0
					c2.346-70.4,0.78-140.803-5.478-211.203C642.214,1070.591,592.933,1070.591,595.281,1102.662L595.281,1102.662z"/>
			</g>
		</g>
		<g>
			<g>
				<g>
					<path d="M542.871,1197.312c9.387-0.781,17.992-0.781,27.379,0.783c7.822,1.563,10.951-10.17,3.129-11.734
						c-10.17-2.347-20.338-3.129-30.508-1.563C535.048,1185.578,535.048,1198.095,542.871,1197.312L542.871,1197.312z"/>
				</g>
			</g>
			<g>
				<g>
					<path d="M564.773,1192.618c1.563,12.518,4.692,25.814,17.991,30.509c11.732,3.911,27.377,0.781,33.636-10.951
						c6.258-11.733,0.782-26.597-10.951-32.072c-13.297-7.04-28.16-2.347-39.111,6.258c-6.258,4.693,2.349,14.081,8.605,8.605
						c6.258-4.693,14.08-8.605,21.901-5.477c7.039,2.348,12.517,11.733,6.258,17.991c-3.911,4.693-12.516,4.693-17.991,3.129
						c-7.039-3.129-8.604-11.732-9.388-18.772C575.724,1184.797,563.208,1184.797,564.773,1192.618L564.773,1192.618z"/>
				</g>
			</g>
		</g>
		<g>
			<g>
				<path fill="#666666" d="M635.957,1155.854c29.725,7.822,59.449,14.862,89.957,20.339c19.557,3.91,27.379-18.773,12.516-30.508
					c-12.516-9.387-19.557-24.249-32.854-33.636c-17.209-12.517-33.638,15.645-16.429,28.941
					c12.517,9.388,19.558,24.249,32.854,33.638c3.912-10.171,8.604-20.34,12.516-30.509c-30.506-5.476-60.229-12.516-89.955-20.338
					C624.222,1118.307,615.619,1150.379,635.957,1155.854L635.957,1155.854z"/>
			</g>
		</g>
	</g>
	<g>
		<line fill="none" stroke="#000000" stroke-miterlimit="10" x1="754.074" y1="1425.725" x2="214.332" y2="1425.725"/>
		<line fill="none" stroke="#000000" stroke-miterlimit="10" x1="748.599" y1="1422.596" x2="772.066" y2="1508.642"/>
		
			<line fill="none" stroke="#000000" stroke-width="0.5" stroke-miterlimit="10" x1="430.228" y1="1428.854" x2="430.228" y2="1516.465"/>
	</g>
</g>
<g>
	<g>
		<g>
			<g>
				<path fill="#666666" d="M1321.193,246.898c23.469,11.733,46.936,22.686,71.184,34.418c13.299,6.258,33.637-4.692,27.379-21.12
					c-7.822-19.556-15.645-39.895-22.686-59.449c-8.604-21.902-44.587-12.517-35.982,10.169
					c7.822,19.557,15.646,39.895,22.687,59.449c9.387-7.04,17.989-14.079,27.377-21.119c-23.468-11.733-46.935-22.686-71.183-34.419
					C1318.847,203.875,1300.074,235.947,1321.193,246.898L1321.193,246.898z"/>
			</g>
		</g>
		<g>
			<g>
				<path fill="#B3B3B3" d="M1311.806,224.214c-28.16,43.021-58.666,85.263-90.737,125.938
					c-14.863,19.557,15.645,39.895,30.508,21.902c32.069-40.676,61.795-82.917,90.738-125.938
					C1355.613,224.996,1325.104,203.875,1311.806,224.214L1311.806,224.214z"/>
			</g>
		</g>
		<g>
			<g>
				<g>
					<path fill="#666666" d="M1301.638,200.746c90.738,0,90.738-141.584,0-141.584
						C1210.897,59.944,1210.897,200.746,1301.638,200.746L1301.638,200.746z"/>
				</g>
			</g>
			<g>
				<g>
					<path fill="#666666" d="M1288.339,174.932c25.031,77.441,37.547,156.447,38.33,238.581c0,32.072,50.063,32.072,50.063,0
						c-0.78-86.045-14.079-169.744-39.895-251.879C1326.669,131.128,1278.953,144.426,1288.339,174.932L1288.339,174.932z"/>
				</g>
			</g>
			<g>
				<g>
					<path fill="#666666" d="M1357.958,383.007c-34.418,3.129-67.271,10.169-99.344,21.12c-14.08,4.692-19.556,25.813-4.693,34.419
						c28.16,15.645,57.104,28.159,87.611,39.894c11.731,4.693,22.684-7.04,23.467-17.991c0.781-10.951,2.346-21.901,6.258-32.07
						c3.91-11.734-6.258-23.468-17.992-23.468c-16.426,0-30.508,3.129-44.588,11.732c-15.645,9.388-9.387,35.201,9.388,35.201
						c7.821,0,15.646-0.782,23.469-3.911c3.91-1.564,12.516-7.822,16.426-7.04c-5.475-3.129-10.951-6.258-16.426-9.387
						c-3.912-5.477-3.129,1.563-3.912,6.258c-1.563,5.476-2.346,10.169-3.91,15.645c-5.477,23.468,30.506,33.637,35.982,10.169
						c3.91-15.645,15.645-40.676,1.563-53.975c-16.428-15.645-35.201,4.693-52.41,5.477c3.129,11.733,6.259,23.468,9.388,35.2
						c8.604-4.692,16.428-7.04,25.813-6.258c-6.258-7.822-11.734-15.645-17.992-23.468c-3.91,14.081-6.258,28.161-7.039,42.241
						c7.822-6.259,15.646-11.733,23.468-17.991c-27.379-10.169-53.193-22.686-78.226-35.983
						c-1.563,11.734-3.129,22.687-4.692,34.419c28.942-10.169,58.668-16.427,89.957-19.556
						C1381.425,418.207,1381.425,380.66,1357.958,383.007L1357.958,383.007z"/>
				</g>
			</g>
		</g>
		<g>
			<g>
				<g>
					<path fill="#B3B3B3" d="M1229.671,361.104c-7.039,5.477-14.08,8.604-22.684,10.951c-7.822,2.347-5.478,14.08,2.346,12.516
						c10.17-3.129,20.34-7.04,28.162-14.079C1243.753,365.798,1235.931,357.193,1229.671,361.104L1229.671,361.104z"/>
				</g>
			</g>
			<g>
				<g>
					<path fill="#B3B3B3" d="M1213.246,374.402c-7.041-10.95-17.992-20.338-31.289-17.209c-12.516,3.129-24.25,13.299-23.467,26.597
						c1.563,12.516,12.516,21.901,25.03,21.12c14.861,0,25.031-11.733,30.507-24.249c2.348-7.822-8.604-11.733-11.732-4.693
						s-7.041,13.298-14.863,14.862c-7.821,2.347-17.989-2.348-16.426-12.517c0.781-7.04,11.732-13.298,18.772-10.951
						c5.476,1.564,10.168,7.822,13.298,12.517C1207.769,388.482,1217.938,380.66,1213.246,374.402L1213.246,374.402z"/>
				</g>
			</g>
		</g>
	</g>
	<g>
		<line fill="none" stroke="#000000" stroke-miterlimit="10" x1="1319.628" y1="512.858" x2="1016.904" y2="512.858"/>
		<line fill="none" stroke="#000000" stroke-miterlimit="10" x1="1314.154" y1="509.729" x2="1337.621" y2="595.775"/>
	</g>
</g>
<g>
	<g>
		<line fill="none" stroke="#000000" stroke-miterlimit="10" x1="551.476" y1="341.549" x2="11.733" y2="341.549"/>
		<line fill="none" stroke="#000000" stroke-miterlimit="10" x1="546" y1="344.677" x2="569.466" y2="258.632"/>
		
			<line fill="none" stroke="#000000" stroke-width="0.5" stroke-miterlimit="10" x1="227.63" y1="338.42" x2="227.63" y2="250.809"/>
	</g>
	<g>
		<g>
			<g>
				<path fill="#666666" d="M357.482,397.869c90.737,0,90.737-141.584,0-141.584C266.742,257.067,265.959,397.869,357.482,397.869
					L357.482,397.869z"/>
			</g>
		</g>
		<g>
			<g>
				<g>
					<path fill="#666666" d="M506.888,483.914c10.168,1.564,20.338,0.782,30.508-1.563c7.822-1.564,4.693-14.08-3.131-11.733
						c-9.387,1.564-17.989,2.348-27.377,0.782C499.066,469.835,499.066,482.35,506.888,483.914L506.888,483.914z"/>
				</g>
			</g>
			<g>
				<g>
					<path fill="#666666" d="M540.523,476.093c0.782-7.04,1.563-15.646,9.389-18.773c5.475-2.347,14.08-1.563,17.99,3.129
						c6.258,6.258,0.782,15.646-6.259,17.991c-7.821,3.129-16.426-0.782-21.901-5.476c-6.258-4.693-14.863,3.91-8.605,8.604
						c10.951,8.604,25.033,13.298,38.33,7.04c11.734-5.476,17.992-20.338,11.734-32.854c-6.258-10.951-21.121-14.08-32.854-10.951
						c-14.082,3.911-17.991,17.991-19.557,30.507C527.226,483.914,539.742,483.914,540.523,476.093L540.523,476.093z"/>
				</g>
			</g>
		</g>
		<g>
			<g>
				<path fill="#666666" d="M336.361,610.637c26.596,15.645,51.627,32.854,74.313,53.974c4.693-10.951,8.604-21.12,13.297-32.07
					c-30.506,2.347-61.014,2.347-91.521,0.781c6.258,7.822,11.733,15.646,17.992,23.467c5.477-14.08,7.821-27.378,9.387-41.458
					c-7.822,6.259-15.646,11.733-23.467,17.991c7.041,3.129,13.299,7.822,17.209,14.08c8.604-8.604,17.209-17.209,25.813-25.813
					c-15.645-7.822-25.031-32.072-45.371-28.161c-21.119,4.693-20.338,31.29-22.684,48.499
					c-3.912,23.467,32.07,33.636,35.981,10.169c1.564-10.951,3.13-23.467,6.259-33.636c-4.693,4.692-8.605,8.604-13.3,13.298
					c0.783-0.782,2.349-0.782,3.13-1.564c-4.693-0.782-9.388-1.563-14.08-1.563c5.477,3.129,9.387,10.95,13.299,14.861
					c5.477,4.693,10.951,7.822,17.209,10.951c14.863,7.04,37.547-8.604,25.813-25.813c-10.95-14.862-22.686-24.249-39.895-31.289
					c-12.516-5.478-22.687,7.821-23.467,17.99c-1.564,10.951-4.693,21.12-8.605,32.071c-4.692,11.733,7.041,22.686,17.992,23.467
					c30.508,1.564,61.014,1.564,91.521-0.781c14.86-0.782,25.813-20.339,13.297-32.071c-25.031-23.467-52.408-43.022-82.134-60.232
					C334.013,566.831,315.24,598.904,336.361,610.637L336.361,610.637z"/>
			</g>
		</g>
		<g>
			<g>
				<path fill="#666666" d="M333.232,394.74c-5.478,70.401-7.822,140.803-5.478,211.204c0.783,32.071,50.846,32.071,50.064,0
					c-2.349-70.401-0.783-140.803,5.475-211.204C385.642,362.669,336.361,363.451,333.232,394.74L333.232,394.74z"/>
			</g>
		</g>
		<g>
			<g>
				<path fill="#666666" d="M333.232,413.513c-21.121,23.468-46.152,40.677-75.877,53.191c9.387,3.911,17.992,7.822,27.378,10.951
					c-2.347-19.556,1.564-39.11,10.169-57.103c10.951-21.121-21.12-40.677-32.072-18.774c-14.08,27.379-17.991,55.539-14.08,86.046
					c1.564,13.3,17.991,14.863,27.378,10.952c31.289-13.299,59.449-33.637,82.917-58.668
					C376.255,422.118,349.66,395.522,333.232,413.513L333.232,413.513z"/>
			</g>
		</g>
		<g>
			<g>
				<path fill="#666666" d="M352.005,451.844c45.369,14.08,92.305,39.11,139.238,48.499c23.467,4.692,33.635-31.29,10.168-35.983
					c-46.935-8.604-93.086-33.636-139.236-48.499C339.49,408.82,329.32,444.803,352.005,451.844L352.005,451.844z"/>
			</g>
		</g>
	</g>
</g>
<g>
	<g>
		<line fill="none" stroke="#000000" stroke-miterlimit="10" x1="3408.976" y1="3665.261" x2="2913.824" y2="3665.261"/>
		<line fill="none" stroke="#000000" stroke-miterlimit="10" x1="3403.501" y1="3668.39" x2="3426.968" y2="3582.345"/>
		
			<line fill="none" stroke="#000000" stroke-width="0.5" stroke-miterlimit="10" x1="3085.132" y1="3662.133" x2="3085.132" y2="3574.523"/>
	</g>
	<g>
		<g>
			<g>
				<path fill="#B3B3B3" d="M3258.005,3636.32c16.428,9.387,30.508,21.902,42.24,36.766c4.695,5.476,8.604,11.732,11.733,17.99
					c1.564,3.911,2.347,7.04,2.347,8.604c-1.564,24.249,35.983,24.249,37.549,0c0.781-16.427-10.17-33.636-19.557-46.151
					c-14.863-20.338-33.638-36.766-55.539-49.281C3255.66,3591.732,3236.886,3624.585,3258.005,3636.32L3258.005,3636.32z"/>
			</g>
		</g>
		<g>
			<g>
				<path fill="#B3B3B3" d="M3254.876,3726.276c25.031-5.476,50.064-2.347,75.096-8.604c23.467-5.476,13.297-41.457-10.17-35.981
					c-25.031,5.476-50.063,2.346-75.094,8.604C3222.022,3695.769,3231.41,3731.751,3254.876,3726.276L3254.876,3726.276z"/>
			</g>
		</g>
		<g>
			<g>
				<g>
					<path fill="#666666" d="M3237.667,3606.594c90.74,0,90.74-141.585,0-141.585
						C3146.929,3465.01,3146.929,3606.594,3237.667,3606.594L3237.667,3606.594z"/>
				</g>
			</g>
			<g>
				<g>
					<path fill="#666666" d="M3224.371,3580.781c25.031,77.441,37.547,156.447,38.328,238.581c0,32.071,50.063,32.071,50.063,0
						c-0.783-86.046-14.08-169.745-39.895-251.88C3262.699,3536.975,3214.983,3550.273,3224.371,3580.781L3224.371,3580.781z"/>
				</g>
			</g>
			<g>
				<g>
					<path fill="#666666" d="M3293.988,3788.855c-34.418,3.129-67.271,10.169-99.345,21.12c-14.08,4.694-19.555,25.813-4.692,34.419
						c28.162,15.645,57.104,28.16,87.61,39.895c11.732,4.692,22.685-7.041,23.468-17.991c0.782-10.951,2.346-21.902,6.258-32.072
						c3.912-11.731-6.258-23.467-17.992-23.467c-16.426,0-30.506,3.129-44.586,11.733c-15.645,9.387-9.387,35.199,9.388,35.199
						c7.821,0,15.645-0.781,23.467-3.91c3.91-1.563,12.516-7.822,16.426-7.041c-5.475-3.129-10.951-6.258-16.426-9.387
						c-3.912-5.475-3.129,1.564-3.912,6.258c-1.564,5.478-2.346,10.17-3.91,15.646c-5.477,23.468,30.506,33.637,35.982,10.17
						c3.912-15.646,15.645-40.677,1.563-53.976c-16.426-15.645-35.201,4.693-52.41,5.477c3.129,11.732,6.259,23.468,9.388,35.199
						c8.604-4.692,16.428-7.039,25.813-6.258c-6.258-7.822-11.733-15.645-17.992-23.467c-3.909,14.08-6.258,28.16-7.039,42.241
						c7.822-6.259,15.646-11.733,23.468-17.991c-27.379-10.17-53.191-22.686-78.224-35.982c-1.563,11.732-3.129,22.685-4.692,34.418
						c28.94-10.17,58.666-16.428,89.957-19.557C3317.457,3824.055,3317.457,3786.508,3293.988,3788.855L3293.988,3788.855z"/>
				</g>
			</g>
		</g>
		<g>
			<g>
				<path fill="#666666" d="M3257.224,3610.506c-9.387,9.387-19.557,18.772-25.03,31.289c-1.564,3.129-2.349,5.477-3.129,8.604
					c-0.783,1.564-0.783,3.91-1.564,5.476c-1.565,5.477,0,3.129,5.476-7.039c-0.781-0.783-13.299-0.783-14.861-1.564
					c-4.693-0.782-9.389-2.348-14.08-3.912c-21.904-7.039-31.291,27.379-9.389,34.418c16.428,5.478,50.846,14.08,63.361-3.129
					c4.692-6.258,4.692-14.86,7.821-21.901c3.912-7.039,10.951-12.517,16.429-17.99
					C3299.464,3619.11,3273.649,3594.077,3257.224,3610.506L3257.224,3610.506z"/>
			</g>
		</g>
		<g>
			<g>
				<g>
					<path fill="#B3B3B3" d="M3250.966,3702.809c-10.951,1.563-21.121,3.911-30.508,9.387c-7.039,3.911-0.781,14.08,6.258,10.952
						c7.822-3.912,15.646-6.258,24.25-7.823C3258.789,3713.76,3258.789,3701.245,3250.966,3702.809L3250.966,3702.809z"/>
				</g>
			</g>
			<g>
				<g>
					<path fill="#B3B3B3" d="M3218.113,3716.889c0.78,7.04,2.346,15.645-3.129,20.339c-4.693,4.693-15.646,7.039-21.121,2.346
						c-5.478-4.693-3.129-13.298,1.563-17.209c7.039-5.476,16.428-4.693,24.25-0.781c7.039,3.129,13.297-7.041,6.258-10.951
						c-12.516-5.477-27.379-7.04-38.33,2.347c-9.387,7.822-12.516,22.685-4.692,32.854c7.039,10.168,21.901,10.95,32.854,6.258
						c14.863-6.258,16.429-20.338,14.863-34.418C3229.845,3709.067,3217.33,3709.067,3218.113,3716.889L3218.113,3716.889z"/>
				</g>
			</g>
		</g>
		<path fill="none" stroke="#333333" stroke-width="1.5929" stroke-miterlimit="10" d="M3380.815,3702.809"/>
	</g>
</g>
<g>
	<g>
		<line fill="none" stroke="#000000" stroke-miterlimit="10" x1="1920.384" y1="731.101" x2="2460.126" y2="731.101"/>
		<line fill="none" stroke="#000000" stroke-miterlimit="10" x1="1925.861" y1="734.23" x2="1902.394" y2="648.184"/>
		
			<line fill="none" stroke="#000000" stroke-width="0.5" stroke-miterlimit="10" x1="2244.229" y1="727.972" x2="2244.229" y2="640.362"/>
	</g>
	<g>
		<g>
			<g>
				<path fill="#666666" d="M2037.72,807.76c90.74,0,90.74-141.585,0-141.585C1946.982,666.958,1946.199,807.76,2037.72,807.76
					L2037.72,807.76z"/>
			</g>
		</g>
		<g>
			<g>
				<path fill="#666666" d="M2016.599,1020.528c26.599,15.646,51.629,32.854,74.313,53.974c4.693-10.95,8.604-21.119,13.299-32.07
					c-30.508,2.347-61.014,2.347-91.521,0.781c6.258,7.822,11.731,15.646,17.99,23.468c5.477-14.08,7.821-27.378,9.389-41.458
					c-7.822,6.258-15.646,11.732-23.469,17.99c7.041,3.13,13.299,7.822,17.211,14.08c8.604-8.604,17.209-17.209,25.813-25.813
					c-15.645-7.822-25.031-32.071-45.369-28.16c-21.121,4.693-20.338,31.289-22.686,48.498
					c-3.91,23.467,32.072,33.636,35.984,10.169c1.563-10.951,3.129-23.467,6.258-33.636c-4.693,4.692-8.605,8.604-13.299,13.298
					c0.78-0.782,2.346-0.782,3.129-1.564c-4.693-0.781-9.387-1.563-14.08-1.563c5.475,3.129,9.387,10.951,13.299,14.862
					c5.475,4.692,10.951,7.821,17.209,10.95c14.861,7.041,37.547-8.604,25.813-25.813c-10.95-14.862-22.684-24.249-39.893-31.289
					c-12.518-5.476-22.686,7.822-23.469,17.991c-1.564,10.951-4.693,21.12-8.604,32.071c-4.692,11.732,7.039,22.685,17.99,23.467
					c30.508,1.563,61.017,1.563,91.521-0.782c14.862-0.782,25.813-20.338,13.299-32.071c-25.031-23.467-52.41-43.021-82.135-60.23
					C2014.253,976.722,1995.479,1008.795,2016.599,1020.528L2016.599,1020.528z"/>
			</g>
		</g>
		<g>
			<g>
				<path fill="#B3B3B3" d="M2053.365,853.13c34.418,3.91,68.836,8.604,103.256,15.645c-3.912-9.387-7.822-17.991-10.951-27.378
					c-10.95,14.08-21.121,26.596-38.33,32.854c-22.686,8.604-12.516,44.588,10.17,35.982c27.377-10.169,43.806-27.379,61.015-50.063
					c7.039-9.388,0-25.031-10.951-27.378c-36.767-7.822-75.096-12.517-112.644-17.209
					C2029.117,813.236,2029.117,850.782,2053.365,853.13L2053.365,853.13z"/>
			</g>
		</g>
		<g>
			<g>
				<g>
					<path fill="#B3B3B3" d="M2115.945,886.765c-10.17-1.564-20.341-0.782-30.509,1.563c-7.821,1.564-4.692,14.081,3.129,11.734
						c9.388-1.563,17.99-2.348,27.379-0.783C2123.767,900.064,2123.767,888.329,2115.945,886.765L2115.945,886.765z"/>
				</g>
			</g>
			<g>
				<g>
					<path fill="#B3B3B3" d="M2082.308,894.588c-0.782,7.041-1.563,15.646-9.387,18.773c-5.477,2.347-14.08,1.564-17.992-3.129
						c-6.258-6.258-0.78-15.646,6.259-17.992c7.821-3.129,16.428,0.782,21.901,5.477c6.259,4.692,14.863-3.911,8.605-8.604
						c-10.951-8.604-25.031-13.298-38.33-7.04c-11.732,5.477-17.99,20.338-11.732,32.854c6.259,10.951,21.119,14.08,32.854,10.951
						c14.08-3.911,17.989-17.991,19.555-30.509C2095.604,886.765,2083.089,886.765,2082.308,894.588L2082.308,894.588z"/>
				</g>
			</g>
		</g>
		<g>
			<g>
				<path fill="#666666" d="M2013.47,804.632c-5.475,70.399-7.822,140.802-5.475,211.203c0.781,32.07,50.846,32.07,50.063,0
					c-2.346-70.401-0.78-140.804,5.478-211.203C2065.88,772.559,2016.599,772.559,2013.47,804.632L2013.47,804.632z"/>
			</g>
		</g>
		<g>
			<g>
				<path fill="#666666" d="M2014.253,825.752c-29.725,7.821-59.449,14.861-89.957,20.338c3.912,10.169,8.605,20.338,12.516,30.507
					c12.517-9.387,20.339-24.249,32.854-33.636c17.209-12.517,0-41.458-16.426-28.942c-12.517,9.387-20.338,24.249-32.855,33.636
					c-14.86,10.951-6.258,34.418,12.519,30.507c30.506-5.476,60.229-12.516,89.957-20.338
					C2043.197,852.347,2034.591,820.276,2014.253,825.752L2014.253,825.752z"/>
			</g>
		</g>
	</g>
</g>
<g>
	<g>
		<line fill="none" stroke="#000000" stroke-miterlimit="10" x1="182.261" y1="-689.437" x2="484.986" y2="-689.437"/>
		<line fill="none" stroke="#000000" stroke-miterlimit="10" x1="187.736" y1="-686.308" x2="164.269" y2="-772.354"/>
	</g>
	<g>
		<g>
			<g>
				<path fill="#666666" d="M76.659-569.754c-23.467,11.732-46.934,22.685-71.184,34.418c-13.298,6.258-33.636-4.693-27.378-21.12
					c7.822-19.557,15.645-39.896,22.685-59.45c8.604-21.902,44.587-12.517,35.983,10.169c-7.822,19.556-15.645,39.895-22.685,59.45
					c-9.387-7.04-17.991-14.08-27.378-21.12c23.467-11.733,46.934-22.687,71.183-34.419
					C79.006-612.778,97.779-580.706,76.659-569.754L76.659-569.754z"/>
			</g>
		</g>
		<g>
			<g>
				<g>
					<path fill="#666666" d="M96.215-615.906c-90.739,0-90.739-141.584,0-141.584C186.954-756.708,186.954-615.906,96.215-615.906
						L96.215-615.906z"/>
				</g>
			</g>
			<g>
				<g>
					<path fill="#666666" d="M109.513-641.72c-25.031,77.441-37.547,156.446-38.33,238.581c0,32.072-50.063,32.072-50.063,0
						c0.782-86.046,14.081-169.744,39.894-251.879C71.183-685.526,118.899-672.227,109.513-641.72L109.513-641.72z"/>
				</g>
			</g>
			<g>
				<g>
					<path fill="#666666" d="M39.894-433.646c34.418,3.129,67.272,10.169,99.344,21.12c14.08,4.693,19.556,25.813,4.693,34.418
						c-28.161,15.646-57.103,28.161-87.61,39.896c-11.733,4.692-22.685-7.04-23.467-17.991s-2.347-21.903-6.258-32.072
						c-3.912-11.733,6.258-23.467,17.991-23.467c16.427,0,30.507,3.129,44.587,11.732c15.645,9.388,9.387,35.201-9.387,35.201
						c-7.823,0-15.645-0.782-23.467-3.911c-3.911-1.563-12.516-7.822-16.427-7.041c5.476-3.129,10.951-6.258,16.427-9.387
						c3.911-5.476,3.129,1.564,3.911,6.258c1.564,5.477,2.347,10.17,3.911,15.646c5.476,23.467-30.507,33.636-35.982,10.169
						c-3.912-15.646-15.645-40.677-1.564-53.976c16.427-15.645,35.2,4.693,52.41,5.477c-3.129,11.732-6.258,23.467-9.387,35.201
						c-8.604-4.694-16.427-7.041-25.813-6.26c6.258-7.821,11.733-15.645,17.991-23.467c3.911,14.08,6.258,28.161,7.04,42.241
						c-7.822-6.258-15.645-11.733-23.467-17.991c27.378-10.17,53.192-22.686,78.223-35.982c1.565,11.732,3.129,22.685,4.694,34.419
						c-28.943-10.17-58.668-16.429-89.957-19.558C16.427-398.446,16.427-435.992,39.894-433.646L39.894-433.646z"/>
				</g>
			</g>
		</g>
		<g>
			<g>
				<path d="M86.046-592.44c28.16,43.023,58.667,85.264,90.739,125.94c14.862,19.556-15.645,39.894-30.507,21.901
					c-32.072-40.677-61.796-82.917-90.739-125.938C42.241-590.875,72.748-612.778,86.046-592.44L86.046-592.44z"/>
			</g>
		</g>
		<g>
			<g>
				<g>
					<path d="M168.18-455.548c7.041,5.476,14.081,8.604,22.685,10.95c7.822,2.348,5.476,14.08-2.347,12.517
						c-10.169-3.129-20.338-7.04-28.161-14.08C153.318-450.855,161.14-459.459,168.18-455.548L168.18-455.548z"/>
				</g>
			</g>
			<g>
				<g>
					<path d="M183.825-442.25c7.04-10.951,17.991-20.338,31.289-17.209c12.516,3.129,24.25,13.298,23.467,26.596
						c-1.564,12.516-12.516,21.902-25.032,21.12c-14.862,0-25.031-11.733-30.507-24.249c-2.347-7.822,8.604-11.733,11.733-4.693
						s7.04,13.298,14.862,14.862c7.822,2.347,17.992-2.347,16.427-12.516c-0.782-7.04-11.734-13.299-18.774-10.951
						c-5.476,1.563-10.169,7.821-13.298,12.516C189.301-427.388,179.914-435.992,183.825-442.25L183.825-442.25z"/>
				</g>
			</g>
		</g>
	</g>
</g>
</svg>
