<?xml version="1.0" encoding="utf-8"?>
<!-- Generator: Adobe Illustrator 16.0.0, SVG Export Plug-In . SVG Version: 6.00 Build 0)  -->
<!DOCTYPE svg PUBLIC "-//W3C//DTD SVG 1.1//EN" "http://www.w3.org/Graphics/SVG/1.1/DTD/svg11.dtd">
<svg version="1.1" id="图层_1" xmlns="http://www.w3.org/2000/svg" xmlns:xlink="http://www.w3.org/1999/xlink" x="0px" y="0px"
	 width="641.141px" height="746.5px" viewBox="0 0 641.141 746.5" enable-background="new 0 0 641.141 746.5" xml:space="preserve">
<g>
	<g>
		<path fill="#FFFFFF" stroke="#64677B" stroke-width="3.2934" stroke-miterlimit="10" d="M510.284,205.69l80.404-46.428
			C563.75,112.836,524.774,74.165,477.735,47.43l-46.021,79.793C465.594,146.714,492.021,174.059,510.284,205.69z"/>
		<path fill="#FFFFFF" stroke="#64677B" stroke-width="3.2934" stroke-miterlimit="10" d="M431.614,127.122l46.121-79.689
			C432.635,21.719,380.29,7.027,324.475,7.027v91.425C360.904,98.45,397.841,107.635,431.614,127.122z"/>
		<path fill="#FFFFFF" stroke="#64677B" stroke-width="3.2934" stroke-miterlimit="10" d="M324.374,98.45V7.025
			c-55.814,0-108.158,14.691-153.258,40.405l46.018,79.689C249.684,108.45,286.825,98.45,324.374,98.45z"/>
		<path fill="#FFFFFF" stroke="#64677B" stroke-width="3.2934" stroke-miterlimit="10" d="M217.134,127.224l-46.12-79.793
			c-46.937,26.733-86.017,65.404-112.853,111.832l80.405,46.428C158.157,171.814,185.503,145.386,217.134,127.224z"/>
	</g>
	<g>
		<g>
			<g>
				<g>
					<path fill="#666666" d="M258.051,44.472c11.836,0,11.836-18.469,0-18.469C246.113,26.005,246.113,44.472,258.051,44.472
						L258.051,44.472z"/>
				</g>
			</g>
			<g>
				<g>
					<g>
						<path fill="#666666" d="M238.46,53.962c-1.224,0.104-2.347,0.104-3.571-0.102c-1.02-0.204-1.428,1.325-0.408,1.529
							c1.327,0.308,2.653,0.407,3.979,0.204C239.582,55.493,239.582,53.86,238.46,53.962L238.46,53.962z"/>
					</g>
				</g>
				<g>
					<g>
						<path fill="#666666" d="M235.705,54.574c-0.204-1.632-0.612-3.367-2.347-3.979c-1.531-0.511-3.571-0.103-4.388,1.43
							c-0.816,1.53-0.102,3.47,1.429,4.184c1.734,0.919,3.673,0.308,5.102-0.815c0.816-0.611-0.306-1.836-1.123-1.121
							c-0.816,0.61-1.836,1.121-2.857,0.714c-0.918-0.307-1.632-1.53-0.816-2.348c0.51-0.611,1.633-0.611,2.347-0.407
							c0.918,0.407,1.122,1.53,1.224,2.448C234.174,55.594,235.807,55.594,235.705,54.574L235.705,54.574z"/>
					</g>
				</g>
			</g>
			<g>
				<g>
					<path fill="#666666" d="M258.255,67.941c-3.877,2.143-7.449,4.796-10.714,7.854c-1.633,1.531-0.306,3.979,1.734,4.186
						c3.979,0.307,7.959,0.307,11.938,0.103c1.428-0.103,2.959-1.53,2.347-3.062c-0.51-1.326-0.918-2.756-1.123-4.186
						c-0.204-1.325-1.428-3.061-3.061-2.347c-2.245,0.918-3.775,2.143-5.204,4.081c-1.531,2.144,1.326,4.286,3.367,3.368
						c0.816-0.408,1.53-0.816,2.245-1.43c0.612-0.512,1.123-1.53,1.735-1.938c-0.612,0.103-1.225,0.204-1.837,0.204
						c0.102,0.103,0.306,0.103,0.408,0.204c-0.612-0.611-1.123-1.122-1.735-1.734c0.51,1.429,0.612,2.959,0.816,4.388
						c0.51,3.063,5.204,1.734,4.694-1.325c-0.408-2.144-0.204-5.714-2.959-6.325c-2.653-0.512-3.775,2.65-5.918,3.673
						c1.123,1.122,2.245,2.245,3.367,3.367c0.612-0.816,1.327-1.43,2.245-1.838c-1.021-0.814-2.041-1.529-3.061-2.348
						c0.204,1.938,0.612,3.675,1.224,5.408c0.816-1.021,1.531-2.041,2.347-3.063c-3.979,0.204-7.959,0.204-11.938-0.103
						c0.612,1.43,1.123,2.755,1.735,4.185c2.959-2.755,6.224-5.103,9.693-7.041C263.459,70.594,261.01,66.411,258.255,67.941
						L258.255,67.941z"/>
				</g>
			</g>
			<g>
				<g>
					<path fill="#666666" d="M254.582,43.963c0.714,9.186,1.02,18.366,0.714,27.551c-0.102,4.185,6.327,4.185,6.53,0
						c0.306-9.185,0.102-18.365-0.714-27.551C260.806,39.882,254.276,39.882,254.582,43.963L254.582,43.963z"/>
				</g>
			</g>
			<g>
				<g>
					<path fill="#666666" d="M257.643,49.881c3.061,3.268,6.734,5.918,10.816,7.652c1.224,0.511,3.367,0.307,3.571-1.428
						c0.51-3.979,0-7.653-1.837-11.227c-1.428-2.755-5.612-0.306-4.184,2.449c1.123,2.245,1.633,4.896,1.327,7.448
						c1.225-0.511,2.347-1.021,3.571-1.429c-3.775-1.634-7.041-3.878-9.897-6.938C258.969,44.167,255.5,47.534,257.643,49.881
						L257.643,49.881z"/>
				</g>
			</g>
			<g>
				<g>
					<path fill="#666666" d="M257.337,46.719c-5.918,1.837-12.041,5.103-18.163,6.325c-3.061,0.612-1.734,5.307,1.327,4.693
						c6.122-1.122,12.142-4.388,18.162-6.326C261.622,50.493,260.398,45.8,257.337,46.719L257.337,46.719z"/>
				</g>
			</g>
		</g>
		<g>
			<line fill="none" stroke="#000000" stroke-miterlimit="10" x1="229.175" y1="85.185" x2="299.579" y2="85.185"/>
			<line fill="none" stroke="#000000" stroke-miterlimit="10" x1="229.889" y1="84.777" x2="226.828" y2="96.001"/>
			
				<line fill="none" stroke="#000000" stroke-width="0.5" stroke-miterlimit="10" x1="271.418" y1="85.594" x2="271.418" y2="97.022"/>
		</g>
	</g>
	<g>
		<g>
			<g>
				<g>
					<path fill="#666666" d="M119.69,113.449c0.408,1.633,0.714,3.266,1.122,5c0.306,1.326,0.408,3.266,1.327,4.388
						c1.734,1.938,5.918,0.816,8.061,0.204c2.857-0.918,1.632-5.408-1.225-4.488c-0.918,0.307-1.939,0.51-2.959,0.611
						c-0.204,0-1.225-0.104-1.429,0c1.225,1.53,1.633,1.836,1.429,0.918c-0.102-0.307-0.102-0.611-0.204-0.918
						c-0.51-2.245-1.021-4.592-1.531-6.837C123.567,109.265,119.077,110.49,119.69,113.449L119.69,113.449z"/>
				</g>
			</g>
			<g>
				<g>
					<path d="M119.588,113.245c-2.857,1.633-5.306,3.878-7.245,6.429c-1.225,1.634-2.653,3.878-2.551,6.021
						c0.204,3.163,5.102,3.163,4.898,0c0-0.204,0.102-0.612,0.306-1.123c0.408-0.816,0.918-1.632,1.531-2.348
						c1.53-1.938,3.469-3.57,5.51-4.796C124.689,115.898,122.24,111.715,119.588,113.245L119.588,113.245z"/>
				</g>
			</g>
			<g>
				<g>
					<g>
						<path fill="#666666" d="M124.689,113.552c11.836,0,11.836-18.47,0-18.47C112.854,95.185,112.751,113.552,124.689,113.552
							L124.689,113.552z"/>
					</g>
				</g>
				<g>
					<g>
						<path fill="#666666" d="M120.097,108.552c-3.469,10.611-5.204,21.632-5.204,32.854c0,4.184,6.428,4.184,6.53,0
							c0.102-10.611,1.735-20.917,5-31.121C127.648,106.205,121.424,104.572,120.097,108.552L120.097,108.552z"/>
					</g>
				</g>
				<g>
					<g>
						<path fill="#666666" d="M117.342,142.223c3.979,0.407,7.857,1.326,11.734,2.552c-0.204-1.53-0.408-2.959-0.612-4.489
							c-3.367,1.837-6.734,3.367-10.204,4.693c1.021,0.814,2.041,1.53,3.061,2.347c-0.102-1.836-0.408-3.673-0.918-5.51
							c-0.816,1.021-1.53,2.041-2.347,3.062c1.327,0,2.245,0.204,3.367,0.816c0.408-1.531,0.816-3.063,1.225-4.593
							c-2.245-0.104-4.694-2.755-6.836-0.714c-1.939,1.733-0.306,4.999,0.204,7.04c0.714,3.063,5.51,1.733,4.693-1.326
							c-0.204-0.715-0.306-1.326-0.51-2.041c-0.102-0.511,0-1.529-0.51-0.815c-0.714,0.408-1.429,0.815-2.143,1.226
							c0.51,0,1.633,0.815,2.143,0.918c1.02,0.308,2.041,0.407,3.061,0.512c2.449,0.102,3.265-3.367,1.224-4.593
							c-1.836-1.021-3.673-1.529-5.816-1.529c-1.531,0-2.857,1.529-2.347,3.061c0.408,1.43,0.714,2.756,0.816,4.186
							c0.102,1.429,1.531,2.959,3.062,2.347c3.877-1.53,7.754-3.163,11.428-5.204c1.939-1.02,1.327-3.774-0.612-4.488
							c-4.285-1.43-8.571-2.348-12.958-2.756C114.281,137.122,114.281,142.019,117.342,142.223L117.342,142.223z"/>
					</g>
				</g>
			</g>
			<g>
				<g>
					<g>
						<path d="M122.955,127.734c1.122,0.103,2.245,0.511,3.163,1.021c0.918,0.512,1.734-0.918,0.816-1.429
							c-1.327-0.612-2.653-1.021-3.979-1.225C121.934,126,121.934,127.633,122.955,127.734L122.955,127.734z"/>
					</g>
				</g>
				<g>
					<g>
						<path d="M125.608,127.938c-0.204,1.837,0,3.569,1.734,4.489c1.429,0.714,3.367,0.611,4.388-0.716
							c0.918-1.325,0.612-3.163-0.51-4.184c-1.428-1.326-3.469-1.122-5.102-0.408c-0.918,0.408-0.102,1.837,0.816,1.429
							c0.918-0.407,2.143-0.61,2.959,0c0.714,0.512,1.122,1.634,0.408,2.349c-0.612,0.61-1.939,0.407-2.551-0.104
							c-0.918-0.611-0.714-1.938-0.51-2.855C127.342,126.918,125.71,126.918,125.608,127.938L125.608,127.938z"/>
					</g>
				</g>
			</g>
			<g>
				<g>
					<path d="M123.669,124.469c-3.265-0.716-6.53-0.308-9.795-1.123c-3.061-0.715-4.387,3.979-1.326,4.693
						c3.265,0.714,6.53,0.307,9.795,1.122C125.404,129.878,126.73,125.183,123.669,124.469L123.669,124.469z"/>
				</g>
			</g>
			<path fill="none" stroke="#333333" stroke-width="1.5929" stroke-miterlimit="10" d="M106.017,126.102"/>
		</g>
		<g>
			<line fill="none" stroke="#000000" stroke-miterlimit="10" x1="102.446" y1="153.448" x2="167.034" y2="153.448"/>
			<line fill="none" stroke="#000000" stroke-miterlimit="10" x1="103.159" y1="153.04" x2="100.098" y2="164.263"/>
			
				<line fill="none" stroke="#000000" stroke-width="0.5" stroke-miterlimit="10" x1="144.688" y1="153.856" x2="144.688" y2="165.284"/>
		</g>
	</g>
	<g>
		<g>
			<g>
				<g>
					<path fill="#666666" d="M399.066,43.86c11.836,0,11.836-18.469,0-18.469S387.23,43.86,399.066,43.86L399.066,43.86z"/>
				</g>
			</g>
			<g>
				<g>
					<path fill="#666666" d="M399.37,67.431c-3.877,2.144-7.447,4.795-10.713,7.855c-1.633,1.53-0.308,3.979,1.733,4.185
						c3.979,0.307,7.959,0.307,11.938,0.103c1.43-0.103,2.961-1.53,2.348-3.062c-0.51-1.327-0.918-2.756-1.122-4.185
						c-0.203-1.326-1.429-3.063-3.062-2.347c-2.244,0.918-3.775,2.143-5.203,4.081c-1.531,2.143,1.326,4.284,3.367,3.366
						c0.815-0.407,1.528-0.815,2.244-1.43c0.612-0.51,1.123-1.529,1.733-1.938c-0.61,0.103-1.226,0.203-1.837,0.203
						c0.104,0.104,0.309,0.104,0.408,0.204c-0.612-0.611-1.123-1.122-1.733-1.733c0.511,1.429,0.61,2.959,0.815,4.388
						c0.51,3.062,5.203,1.734,4.692-1.327c-0.407-2.143-0.204-5.714-2.959-6.325c-2.653-0.511-3.774,2.652-5.918,3.675
						c1.121,1.121,2.244,2.243,3.367,3.366c0.61-0.815,1.325-1.43,2.243-1.838c-1.02-0.814-2.041-1.528-3.061-2.347
						c0.202,1.938,0.61,3.673,1.225,5.408c0.816-1.021,1.529-2.041,2.347-3.063c-3.979,0.204-7.959,0.204-11.938-0.103
						c0.61,1.429,1.123,2.756,1.733,4.184c2.959-2.755,6.226-5.102,9.692-7.04C404.575,70.084,402.126,65.9,399.37,67.431
						L399.37,67.431z"/>
				</g>
			</g>
			<g>
				<g>
					<path d="M397.126,44.881c-4.896,0.612-9.896,1.227-14.692,2.245c-1.429,0.307-2.347,2.348-1.429,3.571
						c2.244,2.959,4.388,5.204,7.959,6.529c2.959,1.122,4.186-3.57,1.326-4.692c-2.244-0.815-3.674-2.449-5-4.286
						c-0.51,1.226-1.02,2.348-1.428,3.571c4.387-1.021,8.979-1.53,13.469-2.04C400.188,49.472,400.188,44.575,397.126,44.881
						L397.126,44.881z"/>
				</g>
			</g>
			<g>
				<g>
					<path fill="#666666" d="M395.698,43.452c0.713,9.185,1.02,18.367,0.713,27.551c-0.103,4.184,6.326,4.184,6.531,0
						c0.307-9.184,0.102-18.366-0.716-27.551C401.82,39.269,395.393,39.269,395.698,43.452L395.698,43.452z"/>
				</g>
			</g>
			<g>
				<g>
					<g>
						<path d="M388.861,55.799c1.225-0.102,2.348-0.102,3.571,0.104c1.021,0.204,1.429-1.327,0.407-1.531
							c-1.325-0.306-2.65-0.408-3.979-0.204C387.841,54.268,387.841,55.901,388.861,55.799L388.861,55.799z"/>
					</g>
				</g>
				<g>
					<g>
						<path d="M391.719,55.187c0.204,1.633,0.612,3.366,2.349,3.979c1.528,0.512,3.569,0.104,4.387-1.429
							c0.815-1.53,0.103-3.47-1.428-4.184c-1.734-0.919-3.675-0.308-5.104,0.814c-0.814,0.612,0.306,1.837,1.121,1.123
							c0.816-0.612,1.838-1.123,2.857-0.715c0.918,0.307,1.633,1.53,0.815,2.348c-0.511,0.611-1.634,0.611-2.347,0.407
							c-0.92-0.407-1.123-1.53-1.226-2.448C393.148,54.166,391.516,54.166,391.719,55.187L391.719,55.187z"/>
					</g>
				</g>
			</g>
			<g>
				<g>
					<path fill="#666666" d="M401.003,50.39c3.879,1.021,7.757,1.938,11.734,2.652c2.551,0.512,3.571-2.448,1.633-3.979
						c-1.633-1.227-2.551-3.163-4.285-4.39c-2.244-1.632-4.389,2.041-2.143,3.775c1.633,1.225,2.551,3.163,4.284,4.388
						c0.511-1.325,1.123-2.65,1.634-3.979c-3.98-0.714-7.857-1.634-11.734-2.652C399.475,45.493,398.352,49.677,401.003,50.39
						L401.003,50.39z"/>
				</g>
			</g>
		</g>
		<g>
			<line fill="none" stroke="#000000" stroke-miterlimit="10" x1="416.411" y1="85.594" x2="346.007" y2="85.594"/>
			<line fill="none" stroke="#000000" stroke-miterlimit="10" x1="415.696" y1="85.185" x2="418.759" y2="96.409"/>
			
				<line fill="none" stroke="#000000" stroke-width="0.5" stroke-miterlimit="10" x1="374.169" y1="86.002" x2="374.169" y2="97.429"/>
		</g>
	</g>
	<g>
		<g>
			<g>
				<g>
					<path fill="#666666" d="M519.061,116.102c3.062,1.529,6.123,2.96,9.285,4.488c1.733,0.816,4.39-0.61,3.571-2.755
						c-1.021-2.551-2.041-5.203-2.959-7.755c-1.123-2.855-5.815-1.632-4.694,1.327c1.021,2.551,2.041,5.203,2.959,7.755
						c1.226-0.919,2.349-1.837,3.571-2.756c-3.061-1.53-6.123-2.959-9.284-4.489C518.753,110.49,516.305,114.674,519.061,116.102
						L519.061,116.102z"/>
				</g>
			</g>
			<g>
				<g>
					<path fill="#B3B3B3" d="M517.835,113.143c-3.674,5.611-7.651,11.122-11.836,16.429c-1.938,2.551,2.041,5.204,3.979,2.856
						c4.185-5.308,8.063-10.815,11.839-16.429C523.55,113.245,519.57,110.49,517.835,113.143L517.835,113.143z"/>
				</g>
			</g>
			<g>
				<g>
					<g>
						<path fill="#666666" d="M516.509,110.082c11.837,0,11.837-18.468,0-18.468C504.673,91.716,504.673,110.082,516.509,110.082
							L516.509,110.082z"/>
					</g>
				</g>
				<g>
					<g>
						<path fill="#666666" d="M514.775,106.715c3.266,10.104,4.896,20.407,5,31.121c0,4.186,6.528,4.186,6.528,0
							c-0.103-11.224-1.837-22.142-5.203-32.854C519.775,101.001,513.55,102.735,514.775,106.715L514.775,106.715z"/>
					</g>
				</g>
				<g>
					<g>
						<path fill="#666666" d="M523.854,133.856c-4.487,0.407-8.772,1.326-12.956,2.756c-1.839,0.61-2.552,3.367-0.613,4.488
							c3.674,2.041,7.449,3.674,11.428,5.204c1.531,0.611,2.959-0.919,3.063-2.349c0.102-1.428,0.305-2.855,0.814-4.183
							c0.511-1.531-0.814-3.063-2.348-3.063c-2.144,0-3.979,0.408-5.815,1.53c-2.041,1.225-1.226,4.592,1.226,4.592
							c1.02,0,2.041-0.102,3.061-0.51c0.513-0.204,1.633-1.021,2.144-0.919c-0.713-0.408-1.429-0.816-2.144-1.225
							c-0.51-0.716-0.408,0.202-0.51,0.814c-0.203,0.715-0.308,1.327-0.51,2.041c-0.716,3.063,3.979,4.388,4.691,1.326
							c0.511-2.04,2.041-5.307,0.205-7.04c-2.145-2.041-4.592,0.611-6.838,0.714c0.408,1.531,0.816,3.063,1.226,4.592
							c1.123-0.611,2.144-0.918,3.366-0.814c-0.814-1.021-1.527-2.04-2.346-3.063c-0.512,1.836-0.815,3.673-0.92,5.51
							c1.021-0.814,2.041-1.528,3.063-2.347c-3.571-1.327-6.938-2.959-10.205-4.693c-0.203,1.53-0.405,2.959-0.61,4.489
							c3.774-1.327,7.651-2.143,11.733-2.551C526.917,138.448,526.917,133.552,523.854,133.856L523.854,133.856z"/>
					</g>
				</g>
			</g>
			<g>
				<g>
					<g>
						<path fill="#B3B3B3" d="M507.122,131c-0.92,0.714-1.838,1.122-2.959,1.43c-1.021,0.307-0.715,1.836,0.305,1.632
							c1.326-0.407,2.654-0.918,3.675-1.836C508.958,131.612,507.939,130.489,507.122,131L507.122,131z"/>
					</g>
				</g>
				<g>
					<g>
						<path fill="#B3B3B3" d="M504.98,132.734c-0.921-1.43-2.35-2.653-4.082-2.245c-1.634,0.408-3.164,1.734-3.063,3.47
							c0.203,1.633,1.632,2.857,3.265,2.755c1.938,0,3.267-1.529,3.979-3.162c0.308-1.021-1.123-1.529-1.531-0.611
							c-0.407,0.918-0.918,1.732-1.938,1.938c-1.021,0.308-2.349-0.306-2.146-1.632c0.104-0.919,1.53-1.734,2.448-1.429
							c0.715,0.204,1.326,1.021,1.734,1.632C504.266,134.571,505.591,133.552,504.98,132.734L504.98,132.734z"/>
					</g>
				</g>
			</g>
		</g>
		<g>
			<line fill="none" stroke="#000000" stroke-miterlimit="10" x1="518.857" y1="150.795" x2="479.368" y2="150.795"/>
			<line fill="none" stroke="#000000" stroke-miterlimit="10" x1="518.143" y1="150.386" x2="521.202" y2="161.61"/>
		</g>
	</g>
	<g>
		<path fill="#999999" stroke="#FFFFFF" stroke-width="4.0287" stroke-miterlimit="10" d="M438.962,235.587l48.061-27.754
			c-15.816-27.55-38.979-51.426-68.468-68.363l-27.755,48.06C411.616,199.466,427.839,216.2,438.962,235.587"/>
		<path fill="#E6E6E6" stroke="#FFFFFF" stroke-width="4.0287" stroke-miterlimit="10" d="M390.8,187.528L390.8,187.528
			L390.8,187.528l27.755-48.062l0,0c-29.487-17.039-61.731-24.998-93.466-24.998v55.405
			C347.436,169.876,370.087,175.487,390.8,187.528z"/>
		<path fill="#E6E6E6" stroke="#FFFFFF" stroke-width="4.0287" stroke-miterlimit="10" d="M325.089,169.876
			C325.089,169.876,325.191,169.876,325.089,169.876v-55.508c-32.753,0-65.1,8.673-93.466,24.999l27.754,48.06
			C279.376,175.998,302.13,169.876,325.089,169.876z"/>
		<path fill="#E6E6E6" stroke="#FFFFFF" stroke-width="4.0287" stroke-miterlimit="10" d="M259.377,187.528
			C259.479,187.528,259.479,187.528,259.377,187.528l-27.754-48.062c-27.55,15.815-51.426,38.877-68.466,68.364l48.059,27.754
			C223.257,214.874,240.092,198.65,259.377,187.528z"/>
		<path fill="#E6E6E6" stroke="#FFFFFF" stroke-width="4.34" stroke-miterlimit="10" d="M394.167,261.402l45.611-26.325
			c-11.226-19.489-27.552-36.325-48.47-48.365l-26.323,45.61C377.639,239.566,387.434,249.668,394.167,261.402z"/>
		<path fill="#E6E6E6" stroke="#FFFFFF" stroke-width="4.34" stroke-miterlimit="10" d="M364.986,232.219l26.323-45.609l0,0
			c-20.916-12.04-43.672-17.754-66.118-17.754v52.648C338.762,221.608,352.436,224.975,364.986,232.219z"/>
		<path fill="#E6E6E6" stroke="#FFFFFF" stroke-width="4.34" stroke-miterlimit="10" d="M325.191,221.608v-52.651
			c-23.162,0-46.019,6.122-66.121,17.755l26.326,45.61C297.438,225.281,311.212,221.608,325.191,221.608z"/>
		<path fill="#E6E6E6" stroke="#FFFFFF" stroke-width="4.34" stroke-miterlimit="10" d="M285.397,232.219l-26.326-45.609
			c-19.489,11.225-36.325,27.55-48.467,48.364l45.61,26.325C263.459,248.851,273.662,239.056,285.397,232.219z"/>
		<path fill="#E6E6E6" stroke="#FFFFFF" stroke-width="5.0468" stroke-miterlimit="10" d="M325.292,219.874
			c-14.285,0-28.468,3.774-40.813,10.917l40.813,70.712V219.874z"/>
		<path fill="#E6E6E6" stroke="#FFFFFF" stroke-width="5.0468" stroke-miterlimit="10" d="M284.479,230.791
			c-12.04,6.938-22.448,17.04-29.896,29.897l70.71,40.813L284.479,230.791z"/>
		<path fill="#E6E6E6" stroke="#FFFFFF" stroke-width="5.0468" stroke-miterlimit="10" d="M366.21,230.791l-40.813,70.712
			l70.813-40.813C389.167,248.75,379.066,238.24,366.21,230.791z"/>
		<path fill="#E6E6E6" stroke="#FFFFFF" stroke-width="5.0468" stroke-miterlimit="10" d="M366.21,230.791
			c-12.855-7.447-26.938-10.917-40.813-10.917v81.73L366.21,230.791z"/>
	</g>
	<g>
		<path fill="none" stroke="#32CCCC" stroke-width="5" stroke-miterlimit="10" d="M500.284,208.956
			c-34.998-60.304-100.301-100.813-174.992-100.813c-74.894,0-140.197,40.609-175.196,101.118
			c23.468,13.57,174.891,100.913,174.891,100.913L500.284,208.956z"/>
	</g>
</g>
<g>
	<g>
		<path fill="#FFFFFF" stroke="#64677B" stroke-width="3.2934" stroke-miterlimit="10" d="M510.284,492.21l80.404,46.428
			c-26.834,46.426-65.914,85.098-112.953,111.83l-46.021-79.792C465.594,551.186,492.021,523.841,510.284,492.21z"/>
		<path fill="#FFFFFF" stroke="#64677B" stroke-width="3.2934" stroke-miterlimit="10" d="M431.614,570.777l46.02,79.792
			c-45.102,25.713-97.443,40.406-153.26,40.406v-91.526C360.904,599.449,397.841,590.266,431.614,570.777z"/>
		<path fill="#FFFFFF" stroke="#64677B" stroke-width="3.2934" stroke-miterlimit="10" d="M324.374,599.449v91.425
			c-55.814,0-108.158-14.691-153.258-40.406l46.018-79.688C249.684,589.449,286.825,599.449,324.374,599.449z"/>
		<path fill="#FFFFFF" stroke="#64677B" stroke-width="3.2934" stroke-miterlimit="10" d="M217.134,570.676l-46.12,79.792
			c-46.937-26.732-86.017-65.404-112.853-111.83l80.405-46.429C158.157,526.086,185.503,552.513,217.134,570.676z"/>
	</g>
	<g>
		<g>
			<line fill="none" stroke="#000000" stroke-miterlimit="10" x1="419.678" y1="621.897" x2="349.271" y2="621.897"/>
			<line fill="none" stroke="#000000" stroke-miterlimit="10" x1="418.962" y1="622.306" x2="422.023" y2="611.081"/>
			
				<line fill="none" stroke="#000000" stroke-width="0.5" stroke-miterlimit="10" x1="377.434" y1="621.489" x2="377.434" y2="610.061"/>
		</g>
		<g>
			<g>
				<g>
					<path fill="#666666" d="M394.372,629.244c11.836,0,11.836-18.469,0-18.469C382.534,610.878,382.434,629.244,394.372,629.244
						L394.372,629.244z"/>
				</g>
			</g>
			<g>
				<g>
					<g>
						<path fill="#666666" d="M413.861,640.469c1.325,0.204,2.651,0.103,3.979-0.203c1.021-0.204,0.613-1.837-0.407-1.53
							c-1.226,0.204-2.347,0.306-3.569,0.103C412.839,638.632,412.839,640.264,413.861,640.469L413.861,640.469z"/>
					</g>
				</g>
				<g>
					<g>
						<path fill="#666666" d="M418.247,639.447c0.104-0.918,0.205-2.041,1.226-2.449c0.716-0.306,1.839-0.203,2.349,0.408
							c0.815,0.816,0.102,2.041-0.816,2.349c-1.021,0.407-2.143-0.104-2.855-0.716c-0.816-0.61-1.939,0.512-1.123,1.122
							c1.43,1.123,3.266,1.735,5,0.919c1.53-0.715,2.348-2.651,1.53-4.285c-0.815-1.429-2.757-1.836-4.284-1.429
							c-1.839,0.511-2.35,2.348-2.552,3.979C416.514,640.469,418.146,640.469,418.247,639.447L418.247,639.447z"/>
					</g>
				</g>
			</g>
			<g>
				<g>
					<path fill="#666666" d="M391.616,656.998c3.469,2.04,6.733,4.285,9.692,7.04c0.612-1.429,1.123-2.755,1.733-4.184
						c-3.979,0.307-7.959,0.307-11.938,0.103c0.814,1.021,1.527,2.04,2.346,3.063c0.715-1.836,1.021-3.571,1.226-5.408
						c-1.021,0.815-2.041,1.531-3.062,2.348c0.918,0.408,1.733,1.021,2.244,1.837c1.123-1.122,2.246-2.244,3.366-3.367
						c-2.039-1.021-3.265-4.185-5.918-3.673c-2.754,0.611-2.651,4.081-2.959,6.325c-0.511,3.063,4.185,4.389,4.692,1.326
						c0.205-1.429,0.408-3.061,0.816-4.388c-0.611,0.611-1.121,1.123-1.734,1.734c0.103-0.104,0.308-0.104,0.408-0.204
						c-0.611-0.104-1.226-0.203-1.836-0.203c0.715,0.407,1.225,1.429,1.733,1.938c0.715,0.612,1.429,1.021,2.243,1.43
						c1.939,0.918,4.898-1.122,3.367-3.366c-1.428-1.938-2.959-3.163-5.203-4.082c-1.633-0.715-2.959,1.021-3.061,2.348
						c-0.205,1.428-0.613,2.755-1.123,4.184c-0.611,1.53,0.918,2.96,2.348,3.063c3.979,0.204,7.957,0.204,11.938-0.103
						c1.938-0.104,3.367-2.652,1.733-4.185c-3.266-3.063-6.836-5.611-10.713-7.856C391.311,651.283,388.861,655.468,391.616,656.998
						L391.616,656.998z"/>
				</g>
			</g>
			<g>
				<g>
					<path fill="#666666" d="M391.208,628.837c-0.715,9.184-1.02,18.365-0.715,27.551c0.104,4.183,6.633,4.183,6.531,0
						c-0.308-9.186-0.104-18.367,0.715-27.551C398.044,624.652,391.616,624.755,391.208,628.837L391.208,628.837z"/>
				</g>
			</g>
			<g>
				<g>
					<path fill="#666666" d="M391.208,631.284c-2.756,3.063-6.02,5.307-9.897,6.938c1.226,0.511,2.349,1.021,3.571,1.429
						c-0.307-2.551,0.203-5.103,1.326-7.448c1.431-2.755-2.754-5.307-4.184-2.448c-1.836,3.57-2.347,7.243-1.836,11.225
						c0.202,1.734,2.346,1.938,3.568,1.429c4.082-1.733,7.757-4.388,10.816-7.651C396.82,632.407,393.352,628.938,391.208,631.284
						L391.208,631.284z"/>
				</g>
			</g>
			<g>
				<g>
					<path fill="#666666" d="M393.657,636.284c5.918,1.837,12.039,5.104,18.162,6.326c3.061,0.612,4.387-4.081,1.325-4.692
						c-6.12-1.122-12.144-4.389-18.161-6.326C392.025,630.673,390.698,635.366,393.657,636.284L393.657,636.284z"/>
				</g>
			</g>
		</g>
	</g>
	<g>
		<g>
			<line fill="none" stroke="#000000" stroke-miterlimit="10" x1="537.529" y1="554.145" x2="472.939" y2="554.145"/>
			<line fill="none" stroke="#000000" stroke-miterlimit="10" x1="536.814" y1="554.552" x2="539.876" y2="543.329"/>
			
				<line fill="none" stroke="#000000" stroke-width="0.5" stroke-miterlimit="10" x1="495.286" y1="553.736" x2="495.286" y2="542.309"/>
		</g>
		<g>
			<g>
				<g>
					<path fill="#B3B3B3" d="M517.835,550.369c2.145,1.226,3.98,2.857,5.511,4.797c0.612,0.715,1.122,1.53,1.53,2.347
						c0.203,0.512,0.308,0.92,0.308,1.123c-0.204,3.163,4.692,3.163,4.896,0c0.103-2.144-1.326-4.389-2.551-6.021
						c-1.938-2.652-4.388-4.796-7.244-6.428C517.529,544.554,515.081,548.84,517.835,550.369L517.835,550.369z"/>
				</g>
			</g>
			<g>
				<g>
					<path fill="#B3B3B3" d="M517.428,562.104c3.267-0.714,6.53-0.307,9.795-1.122c3.063-0.714,1.735-5.408-1.325-4.693
						c-3.266,0.715-6.529,0.308-9.796,1.122C513.143,558.125,514.366,562.818,517.428,562.104L517.428,562.104z"/>
				</g>
			</g>
			<g>
				<g>
					<g>
						<path fill="#666666" d="M515.184,546.492c11.837,0,11.837-18.469,0-18.469C503.348,528.023,503.348,546.492,515.184,546.492
							L515.184,546.492z"/>
					</g>
				</g>
				<g>
					<g>
						<path fill="#666666" d="M513.448,543.125c3.264,10.104,4.896,20.407,5,31.121c0,4.186,6.528,4.186,6.528,0
							c-0.103-11.224-1.836-22.142-5.202-32.854C518.448,537.411,512.225,539.146,513.448,543.125L513.448,543.125z"/>
					</g>
				</g>
				<g>
					<g>
						<path fill="#666666" d="M522.529,570.267c-4.488,0.407-8.775,1.325-12.959,2.755c-1.836,0.611-2.552,3.367-0.611,4.489
							c3.675,2.04,7.449,3.674,11.429,5.203c1.53,0.611,2.959-0.918,3.062-2.348c0.104-1.429,0.307-2.855,0.815-4.184
							c0.513-1.53-0.815-3.063-2.347-3.063c-2.143,0-3.979,0.408-5.815,1.53c-2.041,1.226-1.226,4.592,1.226,4.592
							c1.021,0,2.041-0.103,3.062-0.511c0.511-0.204,1.633-1.021,2.144-0.918c-0.713-0.408-1.429-0.816-2.144-1.226
							c-0.511-0.714-0.408,0.204-0.511,0.815c-0.203,0.714-0.307,1.326-0.51,2.041c-0.715,3.062,3.979,4.389,4.692,1.326
							c0.511-2.041,2.041-5.307,0.203-7.04c-2.144-2.041-4.591,0.611-6.836,0.714c0.407,1.53,0.815,3.063,1.226,4.592
							c1.123-0.611,2.143-0.919,3.366-0.814c-0.815-1.021-1.53-2.041-2.347-3.063c-0.512,1.837-0.814,3.675-0.92,5.512
							c1.021-0.815,2.041-1.53,3.063-2.349c-3.572-1.326-6.939-2.959-10.205-4.692c-0.203,1.529-0.408,2.959-0.611,4.489
							c3.775-1.327,7.652-2.144,11.734-2.552C525.591,574.858,525.591,569.962,522.529,570.267L522.529,570.267z"/>
					</g>
				</g>
			</g>
			<g>
				<g>
					<path fill="#666666" d="M517.734,547.003c-1.227,1.226-2.552,2.448-3.268,4.081c-0.202,0.408-0.307,0.715-0.407,1.122
						c-0.103,0.204-0.103,0.512-0.202,0.716c-0.205,0.714,0,0.406,0.713-0.919c-0.104-0.103-1.734-0.103-1.938-0.204
						c-0.611-0.103-1.225-0.307-1.838-0.511c-2.854-0.919-4.08,3.571-1.225,4.489c2.145,0.715,6.633,1.837,8.266-0.408
						c0.613-0.815,0.613-1.938,1.021-2.854c0.51-0.92,1.428-1.634,2.143-2.349C523.243,548.125,519.876,544.859,517.734,547.003
						L517.734,547.003z"/>
				</g>
			</g>
			<g>
				<g>
					<g>
						<path fill="#B3B3B3" d="M516.917,559.044c-1.428,0.203-2.756,0.51-3.979,1.226c-0.919,0.51-0.104,1.836,0.814,1.428
							c1.021-0.51,2.041-0.815,3.164-1.021C517.938,560.471,517.938,558.84,516.917,559.044L516.917,559.044z"/>
					</g>
				</g>
				<g>
					<g>
						<path fill="#B3B3B3" d="M512.632,560.88c0.104,0.919,0.307,2.041-0.407,2.652c-0.612,0.612-2.041,0.918-2.757,0.307
							c-0.713-0.61-0.406-1.733,0.205-2.244c0.918-0.715,2.145-0.611,3.162-0.104c0.918,0.408,1.734-0.918,0.816-1.429
							c-1.634-0.714-3.57-0.918-5,0.307c-1.227,1.021-1.634,2.959-0.611,4.285c0.918,1.327,2.857,1.43,4.285,0.815
							c1.938-0.815,2.143-2.651,1.938-4.488C514.161,559.859,512.53,559.859,512.632,560.88L512.632,560.88z"/>
					</g>
				</g>
			</g>
			<path fill="none" stroke="#333333" stroke-width="1.5929" stroke-miterlimit="10" d="M533.854,559.044"/>
		</g>
	</g>
	<g>
		<g>
			<line fill="none" stroke="#000000" stroke-miterlimit="10" x1="229.175" y1="620.878" x2="299.579" y2="620.878"/>
			<line fill="none" stroke="#000000" stroke-miterlimit="10" x1="229.889" y1="621.285" x2="226.828" y2="610.061"/>
			
				<line fill="none" stroke="#000000" stroke-width="0.5" stroke-miterlimit="10" x1="271.418" y1="620.469" x2="271.418" y2="609.041"/>
		</g>
		<g>
			<g>
				<g>
					<path fill="#666666" d="M244.48,630.877c11.836,0,11.836-18.469,0-18.469C232.645,612.51,232.542,630.877,244.48,630.877
						L244.48,630.877z"/>
				</g>
			</g>
			<g>
				<g>
					<path fill="#666666" d="M241.725,658.631c3.469,2.041,6.734,4.285,9.694,7.041c0.612-1.43,1.122-2.756,1.734-4.185
						c-3.979,0.307-7.959,0.307-11.938,0.103c0.816,1.021,1.531,2.041,2.347,3.063c0.714-1.837,1.02-3.571,1.224-5.408
						c-1.02,0.816-2.041,1.531-3.061,2.348c0.918,0.407,1.735,1.021,2.245,1.837c1.122-1.122,2.245-2.244,3.367-3.366
						c-2.041-1.021-3.265-4.186-5.918-3.674c-2.755,0.611-2.653,4.081-2.959,6.326c-0.51,3.062,4.184,4.389,4.694,1.325
						c0.204-1.429,0.408-3.062,0.816-4.388c-0.612,0.612-1.123,1.123-1.735,1.733c0.102-0.103,0.306-0.103,0.408-0.202
						c-0.612-0.104-1.225-0.205-1.836-0.205c0.714,0.406,1.224,1.429,1.734,1.938c0.714,0.612,1.429,1.021,2.245,1.431
						c1.939,0.918,4.898-1.123,3.367-3.367c-1.428-1.939-2.959-3.163-5.204-4.082c-1.633-0.714-2.959,1.021-3.061,2.347
						c-0.204,1.429-0.612,2.755-1.123,4.186c-0.612,1.529,0.918,2.959,2.347,3.062c3.979,0.204,7.959,0.204,11.938-0.103
						c1.938-0.104,3.367-2.652,1.735-4.186c-3.266-3.061-6.837-5.611-10.714-7.855C241.419,652.916,238.97,657.1,241.725,658.631
						L241.725,658.631z"/>
				</g>
			</g>
			<g>
				<g>
					<path fill="#B3B3B3" d="M246.521,636.795c4.49,0.512,8.979,1.123,13.469,2.041c-0.51-1.226-1.021-2.348-1.429-3.57
						c-1.428,1.837-2.755,3.47-5,4.286c-2.959,1.121-1.633,5.813,1.327,4.691c3.571-1.325,5.714-3.57,7.958-6.529
						c0.918-1.226,0-3.267-1.428-3.57c-4.796-1.021-9.796-1.633-14.693-2.245C243.358,631.592,243.358,636.488,246.521,636.795
						L246.521,636.795z"/>
				</g>
			</g>
			<g>
				<g>
					<g>
						<path fill="#B3B3B3" d="M254.684,641.182c-1.327-0.204-2.653-0.104-3.979,0.204c-1.021,0.203-0.612,1.837,0.408,1.529
							c1.224-0.203,2.347-0.307,3.571-0.103C255.704,642.918,255.704,641.386,254.684,641.182L254.684,641.182z"/>
					</g>
				</g>
				<g>
					<g>
						<path fill="#B3B3B3" d="M250.296,642.202c-0.102,0.919-0.204,2.041-1.225,2.449c-0.714,0.306-1.836,0.204-2.347-0.408
							c-0.816-0.815-0.102-2.041,0.816-2.347c1.02-0.408,2.143,0.102,2.857,0.714c0.816,0.612,1.938-0.51,1.122-1.122
							c-1.428-1.122-3.265-1.733-5-0.919c-1.531,0.715-2.347,2.653-1.531,4.286c0.816,1.429,2.755,1.837,4.286,1.429
							c1.837-0.511,2.347-2.347,2.551-3.979C252.03,641.182,250.398,641.182,250.296,642.202L250.296,642.202z"/>
					</g>
				</g>
			</g>
			<g>
				<g>
					<path fill="#666666" d="M241.317,630.469c-0.714,9.185-1.02,18.367-0.714,27.551c0.102,4.184,6.632,4.184,6.53,0
						c-0.306-9.184-0.102-18.366,0.714-27.551C248.153,626.285,241.725,626.285,241.317,630.469L241.317,630.469z"/>
				</g>
			</g>
			<g>
				<g>
					<path fill="#666666" d="M241.419,633.223c-3.877,1.021-7.754,1.938-11.734,2.651c0.51,1.326,1.122,2.653,1.632,3.979
						c1.633-1.226,2.653-3.163,4.286-4.389c2.245-1.634,0-5.407-2.143-3.774c-1.633,1.225-2.653,3.163-4.286,4.388
						c-1.938,1.43-0.816,4.489,1.632,3.979c3.979-0.714,7.857-1.634,11.734-2.653C245.194,636.692,244.072,632.51,241.419,633.223
						L241.419,633.223z"/>
				</g>
			</g>
		</g>
	</g>
	<g>
		<path fill="#999999" stroke="#FFFFFF" stroke-width="4.0287" stroke-miterlimit="10" d="M438.962,462.313l48.061,27.754
			c-15.816,27.55-38.979,51.426-68.468,68.364L390.8,510.371C411.616,498.433,427.839,481.699,438.962,462.313z"/>
		<path fill="#E6E6E6" stroke="#FFFFFF" stroke-width="4.0287" stroke-miterlimit="10" d="M390.8,510.371L390.8,510.371
			L390.8,510.371l27.755,48.062l0,0c-29.487,17.039-61.731,24.999-93.466,24.999v-55.406
			C347.436,528.023,370.087,522.412,390.8,510.371z"/>
		<path fill="#E6E6E6" stroke="#FFFFFF" stroke-width="4.0287" stroke-miterlimit="10" d="M325.089,528.023
			C325.089,528.023,325.191,528.023,325.089,528.023v55.508c-32.753,0-65.1-8.673-93.466-24.999l27.754-48.06
			C279.376,521.901,302.13,528.023,325.089,528.023z"/>
		<path fill="#E6E6E6" stroke="#FFFFFF" stroke-width="4.0287" stroke-miterlimit="10" d="M259.377,510.371
			C259.479,510.371,259.479,510.371,259.377,510.371l-27.754,48.062c-27.55-15.815-51.426-38.876-68.466-68.364l48.059-27.754
			C223.257,483.025,240.092,499.249,259.377,510.371z"/>
		<path fill="#E6E6E6" stroke="#FFFFFF" stroke-width="4.34" stroke-miterlimit="10" d="M394.167,436.497l45.611,26.325
			c-11.226,19.489-27.552,36.325-48.47,48.365l-26.323-45.61C377.639,458.334,387.434,448.231,394.167,436.497z"/>
		<path fill="#E6E6E6" stroke="#FFFFFF" stroke-width="4.34" stroke-miterlimit="10" d="M364.986,465.68l26.323,45.608l0,0
			c-20.916,12.04-43.672,17.755-66.118,17.755v-52.649C338.762,476.291,352.436,472.925,364.986,465.68z"/>
		<path fill="#E6E6E6" stroke="#FFFFFF" stroke-width="4.34" stroke-miterlimit="10" d="M325.191,476.291v52.65
			c-23.162,0-46.019-6.122-66.121-17.754l26.326-45.61C297.438,472.618,311.212,476.291,325.191,476.291z"/>
		<path fill="#E6E6E6" stroke="#FFFFFF" stroke-width="4.34" stroke-miterlimit="10" d="M285.397,465.68l-26.326,45.608
			c-19.489-11.225-36.325-27.55-48.467-48.364l45.61-26.325C263.459,449.049,273.662,458.844,285.397,465.68z"/>
		<path fill="#E6E6E6" stroke="#FFFFFF" stroke-width="5.0468" stroke-miterlimit="10" d="M325.292,478.025
			c-14.285,0-28.468-3.775-40.813-10.918l40.813-70.711V478.025z"/>
		<path fill="#E6E6E6" stroke="#FFFFFF" stroke-width="5.0468" stroke-miterlimit="10" d="M284.479,467.107
			c-12.04-6.938-22.448-17.04-29.896-29.896l70.71-40.813L284.479,467.107z"/>
		<path fill="#E6E6E6" stroke="#FFFFFF" stroke-width="5.0468" stroke-miterlimit="10" d="M366.21,467.107l-40.813-70.711
			l70.813,40.813C389.167,449.253,379.066,459.659,366.21,467.107z"/>
		<path fill="#E6E6E6" stroke="#FFFFFF" stroke-width="5.0468" stroke-miterlimit="10" d="M366.21,467.107
			c-12.855,7.449-26.938,10.918-40.813,10.918v-81.73L366.21,467.107z"/>
	</g>
	<g>
		<path fill="none" stroke="#EE9B4A" stroke-width="5" stroke-miterlimit="10" d="M500.284,488.943
			c-34.998,60.304-100.301,100.813-174.992,100.813c-74.894,0-140.197-40.609-175.196-101.117
			c23.468-13.571,174.891-100.914,174.891-100.914L500.284,488.943z"/>
	</g>
	<g>
		<g>
			<line fill="none" stroke="#000000" stroke-miterlimit="10" x1="141.525" y1="555.777" x2="181.013" y2="555.777"/>
			<line fill="none" stroke="#000000" stroke-miterlimit="10" x1="142.239" y1="556.186" x2="139.178" y2="544.963"/>
		</g>
		<g>
			<g>
				<g>
					<path fill="#666666" d="M127.75,571.389c-3.061,1.53-6.122,2.959-9.285,4.489c-1.735,0.815-4.388-0.611-3.571-2.756
						c1.021-2.551,2.041-5.203,2.959-7.755c1.123-2.856,5.816-1.633,4.694,1.326c-1.021,2.551-2.041,5.204-2.959,7.755
						c-1.225-0.918-2.347-1.837-3.571-2.755c3.061-1.53,6.122-2.959,9.285-4.49C128.056,565.777,130.505,569.962,127.75,571.389
						L127.75,571.389z"/>
				</g>
			</g>
			<g>
				<g>
					<g>
						<path fill="#666666" d="M130.301,565.369c-11.836,0-11.836-18.469,0-18.469C142.137,547.003,142.137,565.369,130.301,565.369
							L130.301,565.369z"/>
					</g>
				</g>
				<g>
					<g>
						<path fill="#666666" d="M132.036,562.003c-3.265,10.103-4.898,20.406-5,31.12c0,4.186-6.53,4.186-6.53,0
							c0.102-11.225,1.837-22.143,5.204-32.854C127.036,556.288,133.26,558.022,132.036,562.003L132.036,562.003z"/>
					</g>
				</g>
				<g>
					<g>
						<path fill="#666666" d="M122.955,589.144c4.489,0.408,8.775,1.326,12.958,2.755c1.836,0.612,2.551,3.367,0.612,4.489
							c-3.673,2.041-7.449,3.674-11.428,5.203c-1.53,0.611-2.959-0.918-3.061-2.348c-0.102-1.429-0.306-2.855-0.816-4.184
							c-0.51-1.53,0.816-3.063,2.347-3.063c2.143,0,3.979,0.408,5.816,1.531c2.041,1.226,1.224,4.592-1.225,4.592
							c-1.021,0-2.041-0.103-3.061-0.511c-0.51-0.204-1.632-1.021-2.143-0.918c0.714-0.408,1.428-0.816,2.143-1.226
							c0.51-0.714,0.408,0.204,0.51,0.815c0.204,0.714,0.306,1.326,0.51,2.041c0.714,3.062-3.979,4.387-4.694,1.326
							c-0.51-2.041-2.041-5.307-0.204-7.041c2.143-2.04,4.592,0.612,6.836,0.715c-0.408,1.53-0.816,3.062-1.224,4.592
							c-1.123-0.611-2.143-0.919-3.367-0.814c0.816-1.021,1.53-2.041,2.347-3.063c0.51,1.837,0.816,3.675,0.918,5.511
							c-1.021-0.815-2.041-1.529-3.062-2.348c3.571-1.326,6.938-2.959,10.204-4.692c0.204,1.529,0.408,2.959,0.612,4.488
							c-3.775-1.325-7.652-2.143-11.734-2.551C119.894,593.735,119.894,588.838,122.955,589.144L122.955,589.144z"/>
					</g>
				</g>
			</g>
			<g>
				<g>
					<path d="M128.975,568.43c3.673,5.61,7.653,11.122,11.836,16.428c1.938,2.552-2.041,5.204-3.979,2.856
						c-4.184-5.307-8.061-10.814-11.836-16.429C123.261,568.635,127.24,565.777,128.975,568.43L128.975,568.43z"/>
				</g>
			</g>
			<g>
				<g>
					<g>
						<path d="M139.689,586.286c0.918,0.716,1.836,1.123,2.959,1.43c1.021,0.308,0.714,1.837-0.306,1.634
							c-1.327-0.408-2.653-0.919-3.673-1.837C137.75,586.898,138.771,585.776,139.689,586.286L139.689,586.286z"/>
					</g>
				</g>
				<g>
					<g>
						<path d="M141.729,588.022c0.918-1.43,2.347-2.653,4.082-2.245c1.633,0.408,3.163,1.734,3.061,3.469
							c-0.204,1.634-1.632,2.857-3.265,2.756c-1.938,0-3.265-1.53-3.979-3.163c-0.306-1.021,1.123-1.529,1.531-0.61
							c0.408,0.918,0.918,1.732,1.938,1.938c1.021,0.307,2.347-0.307,2.143-1.633c-0.102-0.918-1.531-1.733-2.449-1.429
							c-0.714,0.203-1.326,1.021-1.734,1.633C142.444,589.961,141.219,588.838,141.729,588.022L141.729,588.022z"/>
					</g>
				</g>
			</g>
		</g>
	</g>
</g>
<g>
	<circle fill="#666666" stroke="#666666" stroke-width="2" stroke-miterlimit="10" cx="463.042" cy="219.874" r="6.632"/>
	<circle fill="#666666" stroke="#666666" stroke-width="2" stroke-miterlimit="10" cx="463.553" cy="478.026" r="6.632"/>
</g>
<g>
	<path fill="#E6E6E6" stroke="#FFFFFF" stroke-width="4.0287" stroke-miterlimit="10" d="M288.56,383.643L288.56,383.643
		L288.56,383.643l14.387-53.569l0,0c-32.855-8.775-66.119-8.267-96.73,0l14.387,53.569
		C242.133,377.826,265.397,377.418,288.56,383.643z"/>
	<g>
		<path fill="#E6E6E6" stroke="#FFFFFF" stroke-width="4.0287" stroke-miterlimit="10" d="M186.829,382.52L186.829,382.52
			l14.387-53.569c-31.631-8.469-65.099-8.469-96.73,0l14.387,53.569C141.015,376.5,164.484,376.5,186.829,382.52z"/>
		<path fill="#E6E6E6" stroke="#FFFFFF" stroke-width="4.34" stroke-miterlimit="10" d="M173.463,433.436l13.673-50.813
			c-22.448-6.021-46.019-6.021-68.466,0l13.673,50.813C145.709,429.864,159.994,429.864,173.463,433.436z"/>
	</g>
	<g>
		<path fill="#E6E6E6" stroke="#FFFFFF" stroke-width="4.0287" stroke-miterlimit="10" d="M86.937,383.54L86.937,383.54
			l14.387-53.568c-30.713-8.266-63.875-8.774-96.73,0l14.387,53.469C42.04,377.315,65.406,377.724,86.937,383.54z"/>
		<path fill="#E6E6E6" stroke="#FFFFFF" stroke-width="4.34" stroke-miterlimit="10" d="M73.671,433.538l13.673-50.813
			c-21.734-5.815-45.202-6.226-68.466,0l13.673,50.813C46.427,429.763,60.611,429.968,73.671,433.538z"/>
		<path fill="#E6E6E6" stroke="#FFFFFF" stroke-width="5.0468" stroke-miterlimit="10" d="M73.977,431.804
			c-13.367-3.571-27.958-3.879-42.345,0l21.122,78.873L73.977,431.804z"/>
	</g>
	<text transform="matrix(1 0 0 1 241.7969 320.9382)" font-family="'Arial-BoldMT'" font-size="48">S</text>
	<text transform="matrix(1 0 0 1 135.2612 320.5886)" font-family="'Arial-BoldMT'" font-size="48">M</text>
	<text transform="matrix(1 0 0 1 44.2378 320.7351)" font-family="'Arial-BoldMT'" font-size="48">L</text>
</g>
<line opacity="0.5" fill="none" stroke="#111111" stroke-width="3" stroke-miterlimit="10" enable-background="new    " x1="463.042" y1="219.874" x2="620.07" y2="352.56"/>
<line opacity="0.5" fill="none" stroke="#111111" stroke-width="3" stroke-miterlimit="10" enable-background="new    " x1="463.042" y1="478.026" x2="620.07" y2="352.56"/>
</svg>
