<?xml version="1.0" encoding="utf-8"?>
<!-- Generator: Adobe Illustrator 16.0.0, SVG Export Plug-In . SVG Version: 6.00 Build 0)  -->
<!DOCTYPE svg PUBLIC "-//W3C//DTD SVG 1.1//EN" "http://www.w3.org/Graphics/SVG/1.1/DTD/svg11.dtd">
<svg version="1.1" id="图层_1" xmlns="http://www.w3.org/2000/svg" xmlns:xlink="http://www.w3.org/1999/xlink" x="0px" y="0px"
	 width="574px" height="553px" viewBox="7.14 136.445 574 553" enable-background="new 7.14 136.445 574 553" xml:space="preserve">
<g>
	<g>
		<g>
			<g>
				<path fill="#666666" d="M1266.437-241.998c90.74,0,90.74-141.585,0-141.585C1174.916-383.583,1174.916-241.998,1266.437-241.998
					L1266.437-241.998z"/>
			</g>
		</g>
		<g>
			<g>
				<g>
					<path fill="#666666" d="M1116.248-169.25c-9.387,0.782-17.99,0.782-27.377-0.782c-7.822-1.564-10.951,10.169-3.129,11.733
						c10.168,2.347,20.338,3.129,30.506,1.564C1124.853-157.517,1124.853-170.032,1116.248-169.25L1116.248-169.25z"/>
				</g>
			</g>
			<g>
				<g>
					<path fill="#666666" d="M1095.128-164.557c-1.564-12.517-4.693-25.814-17.992-30.508c-11.732-3.911-27.377-0.782-33.635,10.951
						c-6.26,11.734-0.783,26.597,10.951,32.072c13.297,7.04,28.16,2.347,39.111-6.258c6.258-4.693-2.348-14.08-8.605-8.604
						c-6.258,4.693-14.08,8.604-21.902,5.476c-7.039-2.347-12.516-11.733-6.258-17.992c3.912-4.693,12.516-4.693,17.992-3.129
						c7.039,3.129,8.604,11.734,9.387,18.774C1083.394-156.735,1095.91-156.735,1095.128-164.557L1095.128-164.557z"/>
				</g>
			</g>
		</g>
		<g>
			<g>
				<path fill="#666666" d="M1268.001-62.084c-29.725,16.427-57.104,36.765-82.135,60.231
					c-12.516,11.733-2.346,30.508,13.299,32.072c30.506,2.347,61.014,2.347,91.521,0.782c10.951-0.782,22.684-11.734,17.99-23.468
					c-3.91-10.169-7.039-21.12-8.604-32.071c-1.564-10.169-10.951-23.467-23.467-17.991c-17.209,7.04-28.943,16.427-39.895,31.289
					c-11.734,16.427,10.17,32.854,25.814,25.813c6.258-3.129,11.732-6.258,17.209-10.951c4.693-3.911,8.604-11.733,13.297-14.862
					c-4.693,0.782-9.387,1.564-14.08,1.564c0.783,0.782,2.348,0.782,3.129,1.564c-4.693-4.693-8.604-8.604-13.297-13.298
					c3.91,10.951,4.693,22.685,6.258,33.636c3.91,23.468,39.893,13.298,35.982-10.169c-3.129-16.427-1.564-43.805-22.686-48.498
					c-20.338-3.911-28.941,20.338-45.369,28.16c8.605,8.604,17.209,17.209,25.814,25.813c4.693-6.258,10.168-10.951,17.209-14.08
					c-7.822-6.258-15.645-11.733-23.467-17.991c1.564,14.862,4.693,28.16,9.387,41.458c6.258-7.822,11.732-15.645,17.99-23.467
					c-30.506,1.564-61.014,1.564-91.521-0.782c4.693,10.951,8.605,21.12,13.299,32.071c22.684-21.12,47.717-39.111,74.313-53.974
					C1307.896-41.746,1289.123-73.818,1268.001-62.084L1268.001-62.084z"/>
			</g>
		</g>
		<g>
			<g>
				<path fill="#666666" d="M1239.841-245.909c5.477,70.4,7.822,140.802,5.477,211.203c-0.783,32.071,48.498,32.071,50.063,0
					c2.346-70.401,0.781-140.803-5.477-211.203C1287.558-277.198,1237.496-277.198,1239.841-245.909L1239.841-245.909z"/>
			</g>
		</g>
		<g>
			<g>
				<path fill="#666666" d="M1263.308-200.54c23.467,25.031,51.627,45.37,82.918,58.668c9.387,3.911,25.813,2.347,27.377-10.951
					c3.912-30.508,0-58.668-14.08-86.046c-10.951-21.12-43.023-2.347-32.072,18.773c8.605,17.209,12.518,37.547,10.17,57.104
					c9.387-3.911,17.992-7.822,27.379-10.952c-28.943-12.516-53.975-29.725-75.877-53.191
					C1273.478-244.345,1246.882-218.531,1263.308-200.54L1263.308-200.54z"/>
			</g>
		</g>
		<g>
			<g>
				<path fill="#666666" d="M1260.962-224.789c-45.371,14.08-92.305,39.111-139.238,48.498
					c-23.467,4.694-13.299,40.677,10.168,35.983c46.936-8.604,93.086-33.637,139.238-48.499
					C1293.816-195.847,1284.429-231.829,1260.962-224.789L1260.962-224.789z"/>
			</g>
		</g>
	</g>
	<g>
		<line fill="none" stroke="#000000" stroke-miterlimit="10" x1="1045.066" y1="70.113" x2="1584.806" y2="70.113"/>
		<line fill="none" stroke="#000000" stroke-miterlimit="10" x1="1050.541" y1="66.984" x2="1027.074" y2="153.03"/>
		
			<line fill="none" stroke="#000000" stroke-width="0.5" stroke-miterlimit="10" x1="1368.91" y1="73.242" x2="1368.91" y2="160.852"/>
	</g>
</g>
<g>
	<g>
		<g>
			<g>
				<path fill="#666666" d="M205.728,286.792c3.129,12.516,5.476,25.031,8.604,38.33c2.347,10.169,3.129,25.031,10.169,33.636
					c13.298,14.862,45.369,6.258,61.796,1.564c21.903-7.04,12.516-41.459-9.387-34.418c-7.041,2.347-14.863,3.911-22.685,4.693
					c-1.564,0-9.387-0.782-10.951,0c9.387,11.733,12.516,14.08,10.951,7.04c-0.782-2.347-0.782-4.693-1.564-7.04
					c-3.911-17.21-7.822-35.201-11.733-52.41C235.453,254.72,201.034,264.107,205.728,286.792L205.728,286.792z"/>
			</g>
		</g>
		<g>
			<g>
				<path d="M204.945,285.227c-21.902,12.516-40.676,29.725-55.539,49.281c-9.387,12.516-20.338,29.725-19.556,46.151
					c1.564,24.249,39.111,24.249,37.547,0c0-1.564,0.782-4.693,2.347-8.604c3.129-6.258,7.041-12.516,11.734-17.991
					c11.733-14.862,26.596-27.378,42.241-36.766C244.057,305.565,225.284,273.494,204.945,285.227L204.945,285.227z"/>
			</g>
		</g>
		<g>
			<g>
				<g>
					<path fill="#666666" d="M244.057,287.574c90.739,0,90.739-141.584,0-141.584C153.318,146.772,152.536,287.574,244.057,287.574
						L244.057,287.574z"/>
				</g>
			</g>
			<g>
				<g>
					<path fill="#666666" d="M208.856,249.245c-26.596,81.353-39.894,165.833-39.894,251.88c0,32.071,49.281,32.071,50.063,0
						c0.782-81.354,13.298-160.358,38.33-238.582C266.742,231.254,219.025,218.737,208.856,249.245L208.856,249.245z"/>
				</g>
			</g>
			<g>
				<g>
					<path fill="#666666" d="M187.736,507.383c30.507,3.129,60.232,10.169,89.957,19.556c-1.564-11.733-3.129-22.685-4.693-34.419
						c-25.814,14.081-51.628,25.814-78.224,35.983c7.822,6.258,15.645,11.733,23.467,17.991c-0.782-14.08-3.129-28.16-7.04-42.24
						c-6.258,7.822-11.733,15.645-17.991,23.467c10.169,0,17.209,1.564,25.813,6.258c3.129-11.733,6.258-23.467,9.387-35.201
						c-17.209-0.782-35.983-21.12-52.41-5.476c-14.863,13.299-2.347,38.33,1.564,53.975c5.476,23.467,42.24,13.298,35.982-10.169
						c-1.564-5.476-2.347-10.169-3.911-15.645c-0.782-3.911,0-11.733-3.911-6.258c-5.476,3.129-10.951,6.258-16.427,9.387
						c3.911,0,12.516,6.258,16.427,7.04c7.822,2.347,15.645,3.129,23.467,3.911c18.773,0.782,25.031-25.813,9.387-35.2
						c-14.08-7.823-28.161-11.734-44.587-11.734c-11.733,0-21.902,11.734-17.991,23.468c3.129,10.951,5.476,21.12,6.258,32.071
						s11.733,22.685,23.467,17.991c29.725-11.733,59.45-24.249,87.61-39.894c14.863-7.822,10.169-28.943-4.693-34.419
						c-32.854-10.951-65.708-17.991-99.344-21.12C164.269,468.27,164.269,505.818,187.736,507.383L187.736,507.383z"/>
				</g>
			</g>
		</g>
		<g>
			<g>
				<g>
					<path d="M230.759,396.304c8.604,0.782,17.209,3.911,24.249,7.822s13.298-7.04,6.258-10.951
						c-10.169-4.693-20.338-7.822-30.507-9.387C222.937,383.007,222.937,395.522,230.759,396.304L230.759,396.304z"/>
				</g>
			</g>
			<g>
				<g>
					<path d="M251.097,397.869c-1.564,14.08,0,27.379,13.298,34.419c10.952,5.476,25.814,4.693,33.636-5.476
						c7.041-10.17,4.693-24.25-3.911-32.072c-10.951-10.169-26.596-8.604-39.112-3.129c-7.04,3.129-0.782,14.08,6.258,10.951
						s16.427-4.693,22.685,0c5.476,3.911,8.604,12.516,3.129,17.992c-4.693,4.693-14.862,3.129-19.556-0.782
						c-7.04-4.694-5.476-14.863-3.911-21.903C264.395,390.047,251.879,390.047,251.097,397.869L251.097,397.869z"/>
				</g>
			</g>
		</g>
		<g>
			<g>
				<path d="M236.235,371.273c-25.032-5.476-50.063-2.347-75.095-8.604c-23.467-5.476-33.636,30.507-10.169,35.982
					c25.032,5.476,50.063,2.347,75.095,8.604C249.533,412.731,259.702,376.749,236.235,371.273L236.235,371.273z"/>
			</g>
		</g>
		<path fill="none" stroke="#333333" stroke-width="1.5929" stroke-miterlimit="10" d="M100.908,383.789"/>
	</g>
	<g>
		<line fill="none" stroke="#000000" stroke-miterlimit="10" x1="73.53" y1="593.427" x2="568.685" y2="593.427"/>
		<line fill="none" stroke="#000000" stroke-miterlimit="10" x1="79.006" y1="590.299" x2="55.539" y2="676.344"/>
		
			<line fill="none" stroke="#000000" stroke-width="0.5" stroke-miterlimit="10" x1="397.375" y1="596.556" x2="397.375" y2="684.167"/>
	</g>
</g>
<g>
	<g>
		<g>
			<g>
				<path fill="#666666" d="M2347.486-246.692c90.738,0,90.738-141.585,0-141.585
					C2256.746-388.277,2256.746-246.692,2347.486-246.692L2347.486-246.692z"/>
			</g>
		</g>
		<g>
			<g>
				<path fill="#666666" d="M2349.832-65.995c-29.725,16.427-57.104,36.765-82.135,60.231
					c-12.516,11.733-2.346,30.508,13.299,32.072c30.506,2.347,61.014,2.347,91.521,0.782c10.951-0.782,22.684-11.734,17.99-23.468
					c-3.91-10.169-7.039-21.12-8.604-32.071c-1.564-10.169-10.951-23.467-23.467-17.991c-17.209,7.04-28.943,16.427-39.895,31.289
					c-11.734,16.427,10.17,32.854,25.814,25.813c6.258-3.129,11.732-6.258,17.209-10.951c4.693-3.911,8.604-11.733,13.297-14.862
					c-4.693,0.782-9.387,1.564-14.08,1.564c0.783,0.782,2.348,0.782,3.129,1.564c-4.693-4.693-8.604-8.604-13.297-13.298
					c3.91,10.951,4.693,22.685,6.258,33.636c3.91,23.468,39.893,13.298,35.982-10.169c-3.129-16.427-1.564-43.805-22.686-48.498
					c-20.338-3.911-28.941,20.338-45.369,28.16c8.605,8.604,17.209,17.209,25.814,25.813c4.693-6.258,10.168-10.951,17.209-14.08
					c-7.822-6.258-15.645-11.733-23.467-17.991c1.564,14.862,4.693,28.16,9.387,41.458c6.258-7.822,11.732-15.645,17.99-23.467
					c-30.506,1.564-61.014,1.564-91.521-0.782c4.693,10.951,8.605,21.12,13.299,32.071c22.686-21.12,47.717-39.111,74.313-53.974
					C2389.726-45.657,2370.953-77.73,2349.832-65.995L2349.832-65.995z"/>
			</g>
		</g>
		<g>
			<g>
				<path d="M2332.623-238.869c-37.547,4.693-75.877,9.387-112.641,17.209c-10.951,2.347-17.992,17.991-10.951,27.378
					c17.209,22.686,33.635,39.895,61.014,50.063c22.684,8.604,32.072-27.378,10.168-35.983
					c-17.209-6.258-28.16-18.773-38.328-32.854c-3.912,9.387-7.822,17.991-10.951,27.378c33.635-7.822,68.836-11.733,103.254-15.645
					C2356.089-203.669,2356.089-241.216,2332.623-238.869L2332.623-238.869z"/>
			</g>
		</g>
		<g>
			<g>
				<path fill="#666666" d="M2321.671-249.821c5.477,70.4,7.822,140.802,5.477,211.203c-0.783,32.071,48.498,32.071,50.063,0
					c2.346-70.401,0.781-140.803-5.477-211.203C2368.605-281.893,2319.326-281.893,2321.671-249.821L2321.671-249.821z"/>
			</g>
		</g>
		<g>
			<g>
				<g>
					<path d="M2269.261-155.17c9.387-0.782,17.992-0.782,27.379,0.782c7.822,1.564,10.951-10.169,3.129-11.733
						c-10.17-2.347-20.338-3.129-30.508-1.564C2261.439-166.904,2261.439-154.388,2269.261-155.17L2269.261-155.17z"/>
				</g>
			</g>
			<g>
				<g>
					<path d="M2291.164-159.864c1.564,12.516,4.693,25.813,17.992,30.507c11.732,3.911,27.379,0.782,33.637-10.951
						s0.781-26.596-10.951-32.071c-13.299-7.041-28.162-2.347-39.113,6.258c-6.258,4.693,2.348,14.08,8.605,8.604
						c6.258-4.693,14.08-8.604,21.902-5.476c7.039,2.347,12.516,11.733,6.258,17.991c-3.912,4.693-12.516,4.693-17.992,3.129
						c-7.039-3.129-8.604-11.733-9.387-18.773C2302.115-167.686,2289.599-167.686,2291.164-159.864L2291.164-159.864z"/>
				</g>
			</g>
		</g>
		<g>
			<g>
				<path fill="#666666" d="M2362.347-196.629c29.725,7.822,59.451,14.862,89.957,20.338c19.557,3.912,27.379-18.773,12.516-30.507
					c-12.516-9.387-19.555-24.249-32.854-33.636c-17.209-12.516-33.637,15.645-16.428,28.942
					c12.518,9.387,19.557,24.249,32.855,33.636c3.91-10.169,8.604-20.338,12.516-30.507c-30.508-5.476-60.232-12.516-89.957-20.338
					C2350.615-234.176,2342.009-202.105,2362.347-196.629L2362.347-196.629z"/>
			</g>
		</g>
	</g>
	<g>
		<line fill="none" stroke="#000000" stroke-miterlimit="10" x1="2480.464" y1="73.242" x2="1940.724" y2="73.242"/>
		<line fill="none" stroke="#000000" stroke-miterlimit="10" x1="2474.99" y1="70.113" x2="2498.457" y2="156.159"/>
		
			<line fill="none" stroke="#000000" stroke-width="0.5" stroke-miterlimit="10" x1="2156.621" y1="76.371" x2="2156.621" y2="163.981"/>
	</g>
</g>
<g>
	<g>
		<g>
			<g>
				<path fill="#666666" d="M3267.392,307.13c23.469,11.733,46.936,22.686,71.184,34.419c13.299,6.258,33.637-4.693,27.379-21.121
					c-7.822-19.556-15.645-39.894-22.686-59.449c-8.604-21.902-44.586-12.516-35.982,10.169
					c7.822,19.556,15.645,39.894,22.686,59.45c9.387-7.04,17.99-14.081,27.377-21.121c-23.467-11.733-46.934-22.685-71.184-34.418
					C3265.046,264.107,3246.273,296.178,3267.392,307.13L3267.392,307.13z"/>
			</g>
		</g>
		<g>
			<g>
				<path fill="#B3B3B3" d="M3258.005,284.445c-28.16,43.023-58.668,85.264-90.738,125.939
					c-14.863,19.557,15.645,39.895,30.506,21.903c32.072-40.677,61.797-82.917,90.74-125.94
					C3301.812,285.227,3271.304,264.107,3258.005,284.445L3258.005,284.445z"/>
			</g>
		</g>
		<g>
			<g>
				<g>
					<path fill="#666666" d="M3247.837,260.978c90.738,0,90.738-141.585,0-141.585
						C3157.097,120.176,3157.097,260.978,3247.837,260.978L3247.837,260.978z"/>
				</g>
			</g>
			<g>
				<g>
					<path fill="#666666" d="M3234.539,235.165c25.031,77.44,37.547,156.446,38.33,238.581c0,32.072,50.063,32.072,50.063,0
						c-0.781-86.046-14.08-169.745-39.895-251.88C3272.869,191.359,3225.152,204.657,3234.539,235.165L3234.539,235.165z"/>
				</g>
			</g>
			<g>
				<g>
					<path fill="#666666" d="M3304.158,443.239c-34.418,3.129-67.271,10.169-99.344,21.12c-14.08,4.693-19.557,25.813-4.693,34.419
						c28.16,15.645,57.104,28.16,87.609,39.894c11.734,4.693,22.686-7.04,23.469-17.991c0.781-10.951,2.346-21.902,6.256-32.072
						c3.912-11.733-6.256-23.467-17.99-23.467c-16.428,0-30.508,3.129-44.588,11.733c-15.645,9.387-9.387,35.201,9.387,35.201
						c7.822,0,15.645-0.782,23.467-3.911c3.912-1.564,12.516-7.822,16.428-7.04c-5.477-3.129-10.951-6.258-16.428-9.388
						c-3.91-5.476-3.129,1.564-3.91,6.259c-1.564,5.476-2.348,10.169-3.912,15.645c-5.475,23.467,30.508,33.636,35.984,10.169
						c3.91-15.645,15.645-40.677,1.564-53.975c-16.428-15.645-35.201,4.693-52.41,5.476c3.129,11.733,6.258,23.467,9.387,35.201
						c8.604-4.693,16.428-7.04,25.813-6.258c-6.258-7.823-11.732-15.646-17.99-23.468c-3.912,14.08-6.258,28.161-7.041,42.241
						c7.822-6.258,15.646-11.733,23.469-17.991c-27.379-10.169-53.193-22.686-78.225-35.983
						c-1.564,11.733-3.129,22.685-4.693,34.419c28.943-10.169,58.668-16.428,89.957-19.557
						C3327.625,478.439,3327.625,440.892,3304.158,443.239L3304.158,443.239z"/>
				</g>
			</g>
		</g>
		<g>
			<g>
				<g>
					<path fill="#B3B3B3" d="M3175.871,421.336c-7.039,5.477-14.08,8.605-22.684,10.952c-7.822,2.347-5.477,14.08,2.346,12.516
						c10.17-3.129,20.338-7.04,28.16-14.08C3189.951,426.03,3182.128,417.425,3175.871,421.336L3175.871,421.336z"/>
				</g>
			</g>
			<g>
				<g>
					<path fill="#B3B3B3" d="M3159.445,434.635c-7.041-10.951-17.992-20.339-31.289-17.21c-12.516,3.13-24.25,13.299-23.469,26.597
						c1.566,12.516,12.518,21.902,25.033,21.12c14.861,0,25.031-11.733,30.506-24.249c2.348-7.822-8.604-11.733-11.732-4.693
						s-7.041,13.298-14.863,14.862c-7.822,2.347-17.99-2.347-16.426-12.516c0.781-7.04,11.732-13.298,18.773-10.951
						c5.475,1.564,10.168,7.822,13.297,12.516C3153.968,448.715,3164.138,440.892,3159.445,434.635L3159.445,434.635z"/>
				</g>
			</g>
		</g>
	</g>
	<g>
		<line fill="none" stroke="#000000" stroke-miterlimit="10" x1="3265.828" y1="573.09" x2="2963.103" y2="573.09"/>
		<line fill="none" stroke="#000000" stroke-miterlimit="10" x1="3260.353" y1="569.961" x2="3283.82" y2="656.007"/>
	</g>
</g>
<g>
	<g>
		<line fill="none" stroke="#000000" stroke-miterlimit="10" x1="2505.496" y1="4184.666" x2="1965.755" y2="4184.666"/>
		<line fill="none" stroke="#000000" stroke-miterlimit="10" x1="2500.021" y1="4187.795" x2="2523.488" y2="4101.749"/>
		
			<line fill="none" stroke="#000000" stroke-width="0.5" stroke-miterlimit="10" x1="2181.652" y1="4181.537" x2="2181.652" y2="4093.927"/>
	</g>
	<g>
		<g>
			<g>
				<path fill="#666666" d="M2311.501,4240.986c90.74,0,90.74-141.584,0-141.584
					C2220.763,4100.185,2219.98,4240.986,2311.501,4240.986L2311.501,4240.986z"/>
			</g>
		</g>
		<g>
			<g>
				<g>
					<path fill="#666666" d="M2460.91,4327.032c10.168,1.564,20.338,0.782,30.506-1.564c7.822-1.564,4.693-14.08-3.129-11.733
						c-9.387,1.564-17.99,2.347-27.377,0.781C2453.087,4312.952,2453.087,4325.468,2460.91,4327.032L2460.91,4327.032z"/>
				</g>
			</g>
			<g>
				<g>
					<path fill="#666666" d="M2494.544,4319.21c0.783-7.04,1.564-15.645,9.387-18.774c5.477-2.346,14.082-1.564,17.992,3.13
						c6.258,6.258,0.783,15.645-6.258,17.991c-7.822,3.129-16.428-0.782-21.902-5.476c-6.258-4.693-14.863,3.911-8.605,8.604
						c10.951,8.604,25.033,13.298,38.33,7.04c11.734-5.476,17.992-20.338,11.734-32.854c-6.258-10.951-21.121-14.08-32.855-10.951
						c-14.08,3.912-17.99,17.992-19.555,30.508C2481.248,4327.032,2493.763,4327.032,2494.544,4319.21L2494.544,4319.21z"/>
				</g>
			</g>
		</g>
		<g>
			<g>
				<path fill="#666666" d="M2290.382,4453.754c26.596,15.645,51.627,32.854,74.313,53.975c4.693-10.951,8.604-21.12,13.297-32.071
					c-30.506,2.347-61.014,2.347-91.521,0.782c6.258,7.822,11.734,15.645,17.992,23.467c5.475-14.08,7.822-27.378,9.387-41.458
					c-7.822,6.258-15.645,11.733-23.467,17.991c7.039,3.129,13.297,7.822,17.209,14.08c8.605-8.604,17.209-17.209,25.814-25.813
					c-15.646-7.823-25.033-32.071-45.371-28.161c-21.119,4.693-20.338,31.29-22.684,48.5c-3.912,23.467,32.07,33.635,35.982,10.168
					c1.564-10.951,3.129-23.467,6.258-33.636c-4.693,4.693-8.605,8.604-13.299,13.298c0.783-0.781,2.348-0.781,3.129-1.564
					c-4.693-0.781-9.387-1.564-14.08-1.564c5.477,3.129,9.387,10.951,13.299,14.863c5.477,4.692,10.951,7.822,17.209,10.951
					c14.863,7.04,37.547-8.604,25.814-25.814c-10.951-14.862-22.686-24.248-39.895-31.289c-12.516-5.476-22.686,7.822-23.467,17.992
					c-1.564,10.951-4.693,21.119-8.605,32.07c-4.693,11.734,7.041,22.686,17.992,23.467c30.506,1.565,61.014,1.565,91.521-0.781
					c14.861-0.782,25.813-20.338,13.297-32.072c-25.031-23.467-52.408-43.021-82.133-60.231
					C2288.035,4409.949,2269.261,4442.021,2290.382,4453.754L2290.382,4453.754z"/>
			</g>
		</g>
		<g>
			<g>
				<path fill="#666666" d="M2287.253,4237.857c-5.477,70.4-7.822,140.803-5.477,211.203c0.783,32.072,50.846,32.072,50.064,0
					c-2.348-70.4-0.783-140.803,5.475-211.203C2339.664,4205.786,2290.382,4206.568,2287.253,4237.857L2287.253,4237.857z"/>
			</g>
		</g>
		<g>
			<g>
				<path fill="#666666" d="M2287.253,4256.631c-21.121,23.467-46.152,40.677-75.877,53.192c9.387,3.911,17.99,7.822,27.379,10.951
					c-2.348-19.556,1.564-39.112,10.168-57.103c10.951-21.121-21.121-40.677-32.072-18.773c-14.08,27.377-17.99,55.537-14.08,86.045
					c1.564,13.299,17.992,14.863,27.379,10.951c31.289-13.298,59.449-33.636,82.916-58.667
					C2330.277,4265.236,2303.679,4238.641,2287.253,4256.631L2287.253,4256.631z"/>
			</g>
		</g>
		<g>
			<g>
				<path fill="#666666" d="M2306.027,4294.961c45.369,14.08,92.303,39.111,139.238,48.498
					c23.467,4.693,33.635-31.289,10.168-35.982c-46.934-8.604-93.086-33.636-139.238-48.498
					C2293.511,4251.938,2283.341,4287.92,2306.027,4294.961L2306.027,4294.961z"/>
			</g>
		</g>
	</g>
</g>
<g>
	<g>
		<line fill="none" stroke="#000000" stroke-miterlimit="10" x1="3408.976" y1="3665.261" x2="2913.824" y2="3665.261"/>
		<line fill="none" stroke="#000000" stroke-miterlimit="10" x1="3403.501" y1="3668.39" x2="3426.968" y2="3582.345"/>
		
			<line fill="none" stroke="#000000" stroke-width="0.5" stroke-miterlimit="10" x1="3085.132" y1="3662.133" x2="3085.132" y2="3574.523"/>
	</g>
	<g>
		<g>
			<g>
				<path fill="#B3B3B3" d="M3258.005,3636.32c16.428,9.387,30.508,21.902,42.24,36.765c4.695,5.476,8.605,11.733,11.734,17.991
					c1.564,3.911,2.346,7.04,2.346,8.604c-1.564,24.249,35.984,24.249,37.549,0c0.781-16.427-10.17-33.636-19.557-46.151
					c-14.863-20.338-33.637-36.766-55.539-49.281C3255.66,3591.732,3236.886,3624.586,3258.005,3636.32L3258.005,3636.32z"/>
			</g>
		</g>
		<g>
			<g>
				<path fill="#B3B3B3" d="M3254.876,3726.276c25.031-5.476,50.064-2.347,75.096-8.604c23.467-5.476,13.297-41.458-10.17-35.982
					c-25.031,5.476-50.063,2.346-75.094,8.604C3222.023,3695.769,3231.41,3731.752,3254.876,3726.276L3254.876,3726.276z"/>
			</g>
		</g>
		<g>
			<g>
				<g>
					<path fill="#666666" d="M3237.667,3606.594c90.74,0,90.74-141.585,0-141.585
						C3146.929,3465.01,3146.929,3606.594,3237.667,3606.594L3237.667,3606.594z"/>
				</g>
			</g>
			<g>
				<g>
					<path fill="#666666" d="M3224.371,3580.781c25.031,77.441,37.547,156.447,38.328,238.581c0,32.071,50.064,32.071,50.064,0
						c-0.783-86.046-14.08-169.745-39.895-251.88C3262.699,3536.975,3214.984,3550.273,3224.371,3580.781L3224.371,3580.781z"/>
				</g>
			</g>
			<g>
				<g>
					<path fill="#666666" d="M3293.988,3788.855c-34.418,3.129-67.271,10.169-99.344,21.12c-14.08,4.694-19.555,25.813-4.693,34.419
						c28.162,15.645,57.104,28.16,87.611,39.894c11.732,4.693,22.684-7.04,23.467-17.991s2.346-21.902,6.258-32.072
						c3.912-11.732-6.258-23.467-17.992-23.467c-16.426,0-30.506,3.129-44.586,11.734c-15.645,9.387-9.387,35.199,9.387,35.199
						c7.822,0,15.645-0.781,23.467-3.91c3.91-1.564,12.516-7.822,16.426-7.041c-5.475-3.129-10.951-6.258-16.426-9.387
						c-3.912-5.475-3.129,1.564-3.912,6.258c-1.564,5.477-2.346,10.17-3.91,15.645c-5.477,23.468,30.506,33.637,35.982,10.17
						c3.912-15.645,15.645-40.677,1.564-53.975c-16.426-15.645-35.201,4.693-52.41,5.476c3.129,11.733,6.258,23.468,9.387,35.2
						c8.605-4.693,16.428-7.039,25.814-6.258c-6.258-7.822-11.734-15.645-17.992-23.467c-3.91,14.08-6.258,28.16-7.039,42.241
						c7.822-6.258,15.645-11.733,23.467-17.991c-27.379-10.17-53.191-22.686-78.223-35.982c-1.564,11.732-3.129,22.684-4.693,34.418
						c28.941-10.17,58.666-16.428,89.957-19.557C3317.457,3824.055,3317.457,3786.508,3293.988,3788.855L3293.988,3788.855z"/>
				</g>
			</g>
		</g>
		<g>
			<g>
				<path fill="#666666" d="M3257.224,3610.506c-9.387,9.387-19.557,18.773-25.031,31.289c-1.564,3.129-2.348,5.477-3.129,8.605
					c-0.783,1.564-0.783,3.91-1.564,5.475c-1.566,5.477,0,3.129,5.475-7.039c-0.781-0.783-13.299-0.783-14.861-1.564
					c-4.693-0.783-9.389-2.348-14.08-3.912c-21.904-7.039-31.291,27.379-9.389,34.418c16.428,5.477,50.846,14.08,63.361-3.129
					c4.693-6.258,4.693-14.861,7.822-21.902c3.912-7.039,10.951-12.516,16.428-17.99
					C3299.464,3619.11,3273.65,3594.078,3257.224,3610.506L3257.224,3610.506z"/>
			</g>
		</g>
		<g>
			<g>
				<g>
					<path fill="#B3B3B3" d="M3250.966,3702.809c-10.951,1.564-21.121,3.911-30.508,9.387c-7.039,3.911-0.781,14.08,6.258,10.952
						c7.822-3.912,15.645-6.258,24.25-7.823C3258.789,3713.76,3258.789,3701.245,3250.966,3702.809L3250.966,3702.809z"/>
				</g>
			</g>
			<g>
				<g>
					<path fill="#B3B3B3" d="M3218.113,3716.889c0.781,7.04,2.346,15.645-3.129,20.339c-4.693,4.693-15.646,7.039-21.121,2.346
						c-5.477-4.693-3.129-13.298,1.564-17.209c7.039-5.476,16.428-4.693,24.25-0.782c7.039,3.129,13.297-7.04,6.258-10.951
						c-12.516-5.476-27.379-7.04-38.33,2.347c-9.387,7.822-12.516,22.685-4.693,32.854c7.039,10.169,21.902,10.951,32.854,6.258
						c14.863-6.258,16.428-20.338,14.863-34.418C3229.845,3709.067,3217.33,3709.067,3218.113,3716.889L3218.113,3716.889z"/>
				</g>
			</g>
		</g>
		<path fill="none" stroke="#333333" stroke-width="1.5929" stroke-miterlimit="10" d="M3380.816,3702.809"/>
	</g>
</g>
<g>
	<g>
		<line fill="none" stroke="#000000" stroke-miterlimit="10" x1="1045.066" y1="4176.844" x2="1584.806" y2="4176.844"/>
		<line fill="none" stroke="#000000" stroke-miterlimit="10" x1="1050.541" y1="4179.973" x2="1027.074" y2="4093.927"/>
		
			<line fill="none" stroke="#000000" stroke-width="0.5" stroke-miterlimit="10" x1="1368.91" y1="4173.715" x2="1368.91" y2="4086.104"/>
	</g>
	<g>
		<g>
			<g>
				<path fill="#666666" d="M1162.4,4253.502c90.74,0,90.74-141.584,0-141.584C1071.662,4112.7,1070.878,4253.502,1162.4,4253.502
					L1162.4,4253.502z"/>
			</g>
		</g>
		<g>
			<g>
				<path fill="#666666" d="M1141.281,4466.27c26.596,15.645,51.627,32.854,74.311,53.975c4.693-10.951,8.605-21.12,13.299-32.071
					c-30.508,2.347-61.014,2.347-91.521,0.782c6.258,7.822,11.734,15.645,17.992,23.467c5.475-14.08,7.822-27.378,9.387-41.459
					c-7.822,6.258-15.645,11.734-23.467,17.992c7.039,3.129,13.297,7.822,17.209,14.08c8.604-8.604,17.209-17.209,25.813-25.814
					c-15.645-7.822-25.031-32.07-45.369-28.16c-21.121,4.693-20.338,31.29-22.686,48.499c-3.91,23.468,32.072,33.636,35.984,10.169
					c1.564-10.951,3.129-23.467,6.258-33.636c-4.693,4.693-8.605,8.604-13.299,13.298c0.783-0.781,2.348-0.781,3.129-1.564
					c-4.693-0.781-9.387-1.564-14.08-1.564c5.477,3.129,9.387,10.951,13.299,14.863c5.475,4.692,10.951,7.822,17.209,10.951
					c14.861,7.04,37.547-8.605,25.813-25.814c-10.951-14.862-22.684-24.248-39.893-31.289c-12.518-5.476-22.686,7.822-23.469,17.991
					c-1.564,10.952-4.693,21.12-8.604,32.071c-4.693,11.734,7.039,22.686,17.99,23.467c30.508,1.564,61.016,1.564,91.521-0.781
					c14.863-0.782,25.814-20.338,13.299-32.072c-25.031-23.467-52.41-43.022-82.135-60.231
					C1138.933,4422.465,1120.16,4454.537,1141.281,4466.27L1141.281,4466.27z"/>
			</g>
		</g>
		<g>
			<g>
				<path fill="#B3B3B3" d="M1178.044,4298.872c34.418,3.911,68.838,8.604,103.256,15.645c-3.912-9.387-7.822-17.991-10.951-27.378
					c-10.951,14.08-21.121,26.596-38.33,32.854c-22.686,8.604-12.516,44.588,10.17,35.982
					c27.377-10.168,43.805-27.378,61.014-50.063c7.039-9.387,0-25.031-10.951-27.379c-36.766-7.822-75.094-12.516-112.643-17.209
					C1153.796,4258.979,1153.796,4296.525,1178.044,4298.872L1178.044,4298.872z"/>
			</g>
		</g>
		<g>
			<g>
				<g>
					<path fill="#B3B3B3" d="M1240.625,4332.508c-10.17-1.564-20.34-0.781-30.508,1.564c-7.822,1.564-4.693,14.08,3.129,11.734
						c9.387-1.564,17.992-2.348,27.379-0.783C1248.447,4345.807,1248.447,4334.072,1240.625,4332.508L1240.625,4332.508z"/>
				</g>
			</g>
			<g>
				<g>
					<path fill="#B3B3B3" d="M1206.988,4340.33c-0.783,7.041-1.564,15.645-9.387,18.773c-5.477,2.348-14.08,1.565-17.992-3.129
						c-6.258-6.258-0.781-15.645,6.258-17.99c7.822-3.13,16.428,0.781,21.902,5.475c6.258,4.693,14.863-3.91,8.605-8.604
						c-10.951-8.604-25.031-13.299-38.33-7.041c-11.732,5.477-17.99,20.338-11.732,32.854c6.258,10.951,21.119,14.08,32.854,10.951
						c14.08-3.911,17.992-17.991,19.557-30.507C1220.285,4332.508,1207.769,4332.508,1206.988,4340.33L1206.988,4340.33z"/>
				</g>
			</g>
		</g>
		<g>
			<g>
				<path fill="#666666" d="M1138.152,4250.373c-5.477,70.401-7.824,140.803-5.477,211.203c0.783,32.072,50.846,32.072,50.063,0
					c-2.346-70.4-0.781-140.802,5.477-211.203C1190.56,4218.302,1141.281,4218.302,1138.152,4250.373L1138.152,4250.373z"/>
			</g>
		</g>
		<g>
			<g>
				<path fill="#666666" d="M1138.933,4271.494c-29.725,7.822-59.449,14.862-89.957,20.338c3.912,10.168,8.605,20.338,12.516,30.507
					c12.516-9.387,20.338-24.249,32.854-33.636c17.209-12.516,0-41.459-16.426-28.943c-12.516,9.388-20.338,24.25-32.854,33.637
					c-14.863,10.951-6.258,34.418,12.516,30.508c30.506-5.477,60.23-12.516,89.957-20.338
					C1167.876,4298.09,1159.271,4266.018,1138.933,4271.494L1138.933,4271.494z"/>
			</g>
		</g>
	</g>
</g>
<g>
	<g>
		<line fill="none" stroke="#000000" stroke-miterlimit="10" x1="373.126" y1="3677.777" x2="675.851" y2="3677.777"/>
		<line fill="none" stroke="#000000" stroke-miterlimit="10" x1="378.601" y1="3680.906" x2="355.134" y2="3594.861"/>
	</g>
	<g>
		<g>
			<g>
				<path fill="#666666" d="M267.524,3797.46c-23.467,11.733-46.934,22.685-71.183,34.418c-13.298,6.258-33.636-4.693-27.378-21.12
					c7.823-19.557,15.645-39.895,22.685-59.45c8.604-21.902,44.587-12.516,35.983,10.169c-7.823,19.557-15.645,39.895-22.685,59.45
					c-9.387-7.04-17.991-14.081-27.378-21.12c23.467-11.734,46.934-22.686,71.183-34.419
					C269.871,3754.437,288.645,3786.508,267.524,3797.46L267.524,3797.46z"/>
			</g>
		</g>
		<g>
			<g>
				<g>
					<path fill="#666666" d="M287.08,3751.308c-90.739,0-90.739-141.585,0-141.585C377.82,3610.506,377.82,3751.308,287.08,3751.308
						L287.08,3751.308z"/>
				</g>
			</g>
			<g>
				<g>
					<path fill="#666666" d="M300.378,3725.494c-25.032,77.441-37.548,156.447-38.33,238.582c0,32.071-50.063,32.071-50.063,0
						c0.782-86.047,14.081-169.745,39.894-251.88C262.048,3681.689,309.765,3694.987,300.378,3725.494L300.378,3725.494z"/>
				</g>
			</g>
			<g>
				<g>
					<path fill="#666666" d="M230.759,3933.568c34.418,3.129,67.272,10.17,99.344,21.121c14.08,4.693,19.557,25.813,4.693,34.418
						c-28.16,15.645-57.103,28.16-87.61,39.895c-11.733,4.693-22.685-7.041-23.467-17.992c-0.782-10.951-2.347-21.902-6.258-32.071
						c-3.911-11.733,6.258-23.468,17.992-23.468c16.427,0,30.507,3.129,44.587,11.734c15.645,9.387,9.387,35.2-9.387,35.2
						c-7.822,0-15.645-0.782-23.467-3.911c-3.911-1.564-12.516-7.822-16.427-7.04c5.476-3.129,10.951-6.258,16.427-9.387
						c3.911-5.476,3.129,1.564,3.911,6.258c1.564,5.476,2.347,10.169,3.911,15.645c5.476,23.468-30.507,33.636-35.983,10.169
						c-3.911-15.645-15.645-40.676-1.564-53.975c16.427-15.645,35.201,4.693,52.41,5.477c-3.129,11.733-6.258,23.467-9.387,35.2
						c-8.604-4.693-16.427-7.04-25.813-6.258c6.258-7.822,11.733-15.645,17.991-23.467c3.911,14.08,6.258,28.16,7.04,42.24
						c-7.822-6.257-15.645-11.733-23.467-17.991c27.378-10.169,53.192-22.685,78.224-35.982c1.564,11.733,3.129,22.685,4.693,34.418
						c-28.943-10.169-58.668-16.427-89.957-19.556C207.292,3968.769,207.292,3931.221,230.759,3933.568L230.759,3933.568z"/>
				</g>
			</g>
		</g>
		<g>
			<g>
				<path d="M276.911,3774.775c28.161,43.022,58.667,85.264,90.739,125.939c14.863,19.556-15.645,39.895-30.508,21.902
					c-32.07-40.676-61.795-82.917-90.738-125.939C233.106,3776.34,263.613,3754.437,276.911,3774.775L276.911,3774.775z"/>
			</g>
		</g>
		<g>
			<g>
				<g>
					<path d="M359.046,3911.666c7.039,5.476,14.08,8.604,22.684,10.951c7.822,2.347,5.477,14.08-2.346,12.516
						c-10.17-3.129-20.338-7.04-28.16-14.08C344.183,3916.359,352.005,3907.755,359.046,3911.666L359.046,3911.666z"/>
				</g>
			</g>
			<g>
				<g>
					<path d="M374.691,3924.964c7.039-10.951,17.99-20.338,31.289-17.209c12.516,3.129,24.248,13.298,23.467,26.596
						c-1.564,12.517-12.516,21.903-25.031,21.12c-14.863,0-25.031-11.732-30.508-24.249c-2.346-7.822,8.605-11.733,11.734-4.693
						s7.039,13.298,14.861,14.862c7.822,2.347,17.992-2.347,16.428-12.516c-0.783-7.04-11.734-13.298-18.773-10.951
						c-5.477,1.564-10.17,7.822-13.299,12.516C380.166,3939.826,370.779,3931.221,374.691,3924.964L374.691,3924.964z"/>
				</g>
			</g>
		</g>
	</g>
</g>
</svg>
